<?xml version="1.0" encoding="UTF-8" standalone="no"?>
<!DOCTYPE svg PUBLIC "-//W3C//DTD SVG 1.1//EN" "http://www.w3.org/Graphics/SVG/1.1/DTD/svg11.dtd">
<svg width="100%" height="100%" viewBox="0 0 2947 1177" version="1.1" xmlns="http://www.w3.org/2000/svg" xmlns:xlink="http://www.w3.org/1999/xlink" xml:space="preserve" xmlns:serif="http://www.serif.com/" style="fill-rule:evenodd;clip-rule:evenodd;stroke-miterlimit:10;">
    <g transform="matrix(5.55556,0,0,5.55556,10.7013,1104.82)">
        <path d="M0,-185.961L-0.469,-184.735L0.107,-181.38L2.971,-175.154L4.786,-174.326L9.736,-168.884L11.218,-168.884L14.273,-165.086L16.004,-164.424L17.492,-165L21.203,-161.865L25.241,-155.432L29.286,-151.556L30.441,-151.556L30.441,-148.585L31.515,-147.674L31.929,-144.737L33.375,-143.413L35.775,-143.455L38.83,-139.608L40.397,-138.696L41.764,-138.903L42.177,-137.699L41.265,-136.089L42.711,-134.471L43.829,-131.571L43.723,-130.845L46.031,-124.738L47.105,-121.433L50.069,-120.529L53.451,-118.22L53.451,-116.239L56.258,-111.288L58.893,-109.306L59.392,-103.7L63.679,-95.77L63.429,-92.556L64.505,-89.671L68.629,-86.536L72.837,-81.335L73.991,-78.528L77.204,-77.865L78.365,-76.547L81.163,-74.731L81.576,-71.432L84.055,-69.865L87.025,-66.566L92.139,-63.345L93.292,-60.873L96.59,-59.961L103.355,-54.026L103.933,-51.632L105.414,-50.97L106.981,-48.334L107.807,-49.317L107.807,-51.547L107.144,-52.701L107.144,-53.941L109.21,-53.528L113.661,-49.402L114.573,-50.144L114.651,-53.115L115.563,-54.681L117.457,-54.268L119.523,-51.048L120.84,-50.471L122.407,-52.046L122.157,-57.161L123.319,-63.431L122.08,-67.635L123.974,-72.172L122.984,-73.904L123.148,-77.538L125.214,-78.45L126.117,-80.096L125.79,-82.24L124.059,-83.066L121.994,-84.72L121.09,-87.356L119.687,-88.103L119.024,-89.914L116.88,-90.825L113.419,-90.412L111.189,-90.74L110.862,-94.124L109.21,-96.354L107.729,-95.442L108.796,-97.672L107.893,-100.145L107.558,-105.758L104.836,-104.683L103.683,-105.758L99.232,-105.845L95.351,-108.48L95.436,-110.375L97.744,-111.451L100.4,-112.94L98.662,-113.852L96.184,-113.482L94.816,-114.023L92.338,-113.111L94.118,-114.721L96.846,-116.752L100.236,-117.287L99.574,-119.651L96.063,-123.542L94.032,-123.791L91.391,-122.01L89.033,-120.563L86.142,-120.393L87.794,-120.727L88.869,-121.717L89.945,-122.01L91.056,-123.585L90.522,-125.031L87.922,-126.278L83.912,-126.15L81.057,-128.514L81.057,-130.046L80.686,-133.025L75.893,-137.741L74.325,-138.076L72.837,-137.619L70.98,-139.067L70.444,-143.299L67.147,-146.597L62.852,-148.998L60.132,-149.162L59.556,-148.086L58.237,-148.998L57.575,-152.048L56.008,-150.48L54.854,-152.133L54.691,-155.517L52.625,-158.154L50.153,-158.652L49.25,-160.22L42.647,-164.587L40.418,-164.836L37.697,-167.886L34.977,-168.299L34.236,-170.037L33.66,-173.664L31.344,-174.904L30.027,-177.711L29.037,-178.039L27.392,-181.01L24.75,-182L22.357,-182L20.79,-181.422L19.55,-182.249L16.666,-182.328L13.282,-181.422L11.631,-182.498L6.353,-186.125L1.652,-186.787L0,-185.961ZM6.552,-153.764L5.649,-152.816L4.985,-151.407L7.179,-150.038L9.865,-150.415L8.29,-152.525L6.552,-153.764ZM22.136,-143.705L24.821,-142.835L23.83,-144.281L22.136,-143.705ZM22.256,-135.012L24.486,-135.091L25.604,-136.295L27.093,-135.76L28.788,-132.526L31.43,-130.46L30.732,-128.843L30.255,-125.85L29.244,-125.38L27.072,-129.391L25.462,-129.805L24.878,-132.355L22.256,-135.012ZM38.624,-119.566L41.308,-119.524L42.297,-118.825L42.547,-120.314L39.862,-121.261L38.624,-119.566ZM37.092,-113.354L35.931,-110.874L37.298,-109.3L38.908,-110.917L38.872,-112.569L37.092,-113.354ZM38.609,-104.846L38.609,-103.037L41.08,-102.125L44.05,-97.672L46.935,-96.767L46.935,-101.056L43.552,-105.922L40.995,-106.749L38.609,-104.846ZM51.058,-94.451L49.905,-93.134L51.222,-91.402L53.779,-90.576L51.058,-94.451ZM55.268,-87.191L57.326,-86.287L55.595,-84.72L55.268,-87.191ZM58.65,-84.962L57.162,-82.902L61.371,-79.027L60.872,-81.25L61.044,-83.152L58.65,-84.962ZM79.818,-56.142L82.709,-54.026L82.674,-55.643L81.227,-56.72L79.818,-56.142ZM71.883,-141.924L73.122,-138.49L75.188,-138.817L77.261,-141.183L75.231,-143.498L73.827,-142.294L71.883,-141.924ZM79.775,-136.337L80.979,-136.416L83.956,-135.34L85.194,-133.602L83.748,-131.115L82.63,-132.112L79.775,-136.337ZM86.263,-132.817L84.574,-129.961L84.981,-127.809L88.911,-127.353L91.597,-126.028L92.466,-126.769L91.718,-130.082L89.204,-132.234L86.263,-132.817ZM109.118,-117.493L107.878,-115.263L109.032,-113.852L110.891,-114.472L113.54,-113.068L114.452,-113.81L110.976,-117.044L109.118,-117.493ZM107.301,-112.527L106.14,-110.995L107.999,-109.221L109.986,-110.375L109.239,-112.527L107.301,-112.527ZM118.333,-98.449L118.291,-96.589L116.14,-94.936L117.55,-93.069L121.716,-92.777L122.834,-91.658L122.92,-89.386L124.202,-88.552L124.9,-85.496L127.464,-83.837L129.735,-84.128L130.483,-81.848L131.559,-80.936L132.713,-82.632L131.929,-84.955L133.126,-87.768L129.365,-88.639L126.93,-91.331L126.018,-96.504L125.107,-97.337L124.822,-99.282L123.169,-100.066L121.716,-100.066L121.923,-98.035L122.757,-96.546L120.563,-97.295L119.074,-98.869L118.333,-98.449ZM134.778,-83.793L134.451,-81.848L135.811,-83.051L134.778,-83.793ZM142.178,-88.118L142.997,-86.122L142.877,-85.011L140.547,-84.449L139.778,-83.287L141.595,-83.209L141.538,-83.951L143.04,-84.72L142.983,-81.47L144.713,-79.71L146.658,-82.711L147.854,-80.908L149.614,-80.558L150.297,-82.168L152.05,-83.003L150.995,-85.275L147.17,-87.741L143.332,-88.466L142.178,-88.118ZM157.134,-98.784L157.299,-97.608L159.015,-96.839L159.77,-97.814L158.83,-98.826L157.134,-98.784ZM106.433,-133.067L105.399,-130.745L107.836,-130.082L108.54,-127.225L110.029,-127.766L110.728,-131.244L109.616,-132.447L110.52,-134.229L109.281,-133.936L108.206,-132.939L106.433,-133.067ZM100.813,-130.909L103.249,-130.125L104.367,-132.362L103.911,-133.98L100.813,-130.909ZM120.455,-156.115L120.213,-154.135L121.453,-153.366L123.682,-155.745L121.822,-156.472L120.455,-156.115ZM127.627,-158.282L126.93,-156.914L128.453,-156.707L127.627,-158.282ZM127.335,-159.315L128.582,-160.64L127.171,-161.302L127.335,-159.315ZM127.379,-154.513L127.335,-152.653L128.582,-153.309L127.379,-154.513ZM146.431,-168.505L148.702,-166.311L149.984,-166.311L149.493,-164.53L151.18,-164.53L152.135,-167.758L149.528,-171.277L147.591,-170.122L146.431,-168.505ZM116.724,-39.741L117.628,-38.787L119.366,-39.414L119.572,-41.729L121.973,-42.065L123.041,-44.422L122.878,-46.823L125.192,-49.517L126.224,-48.477L128.909,-48.519L132.584,-47.941L134.322,-46.532L135.277,-47.358L136.309,-48.519L139.82,-48.313L142.05,-46.532L146.145,-45.54L151.144,-44.999L152.462,-42.598L152.05,-40.361L152.961,-39.414L156.885,-37.633L163.786,-37.754L169.904,-36.763L175.111,-37.633L176.513,-39.491L177.176,-44.009L179.319,-44.131L182.133,-41.152L183.949,-41.188L186.015,-41.565L187.589,-40.611L189.981,-38.501L191.968,-38.623L193.585,-36.849L195.066,-37.59L198.123,-37.546L198.25,-34.483L200.436,-31.584L200.608,-29.887L202.175,-28.114L204.739,-26.91L207.216,-27.821L208.99,-26.746L210.856,-26.824L212.337,-27.779L214.204,-27.821L214.738,-27.074L216.718,-26.746L217.999,-25.335L217.301,-20.327L216.141,-18.879L217.423,-18.011L218.085,-14.57L216.718,-14.157L215.03,-15.895L212.465,-15.61L209.532,-18.046L207.174,-18.666L204.988,-20.989L203.25,-21.032L199.988,-19.33L196.555,-19.201L193.67,-20.853L190.459,-21.516L187.817,-19.286L184.932,-21.345L180.972,-21.595L178.579,-20.277L172.554,-22.585L167.035,-26.048L163.402,-25.97L160.682,-27.865L159.028,-27.786L157.626,-26.134L155.482,-26.546L153.751,-28.363L152.177,-28.235L150.111,-25.834L145.027,-27.28L141.473,-29.973L138.005,-30.222L136.431,-31.049L134.322,-29.81L131.637,-30.757L128.617,-31.256L127.592,-32.246L129.159,-35.103L130.149,-36.058L128.539,-36.143L127.171,-35.395L125.648,-36.35L124.615,-38.337L122.129,-37.34L117.507,-37.425L116.019,-38.295L115.933,-39.62L116.724,-39.741ZM115.028,-41.359L115.278,-40.197L116.104,-40.282L116.183,-41.359L115.028,-41.359ZM201.263,-37.59L199.611,-35.232L201.925,-32.866L203.621,-32.623L205.066,-33.486L208.99,-33.287L211.063,-34.198L213.584,-34.526L214.574,-35.894L213.413,-36.428L210.358,-35.973L208.62,-36.557L202.466,-36.763L201.263,-37.59ZM485.482,-20.234C485.398,-20.149 489.407,-20.484 489.407,-20.484L490.974,-20.811L493.908,-20.355L495.768,-21.267L497.541,-23.341L499.321,-23.79L500.19,-24.951L500.19,-26.154L500.724,-26.732L501.18,-28.641L501.593,-29.467L499.899,-30.793L499.157,-31.491L495.069,-31.662L492.541,-30.458L491.344,-27.188L490.148,-24.872L485.482,-20.234ZM496.8,-20.647L497.754,-20.441L499.899,-19.693L500.561,-20.355L499.735,-22.962L498.951,-23.169L497.754,-22.429L496.8,-20.647ZM218.733,-22.292L218.733,-20.561L219.801,-19.08L222.935,-18.418L225.735,-16.272L226.318,-14.955L227.308,-16.358L229.124,-17.264L229.864,-18.089L231.924,-18.502L232.5,-19.821L230.028,-22.791L226.973,-23.455L223.84,-22.378L221.283,-23.041L218.733,-22.292ZM229.623,-15.24L230.741,-16.351L231.488,-15.111L230.285,-14.491L229.623,-15.24ZM237.03,-18.831L239.437,-20.569L243.034,-19.407L242.535,-16.721L241.502,-15.24L241.709,-13.338L240.135,-13.914L237.941,-13.045L234.258,-14.157L233.511,-15.198L234.508,-15.86L236.495,-15.774L237.03,-18.831ZM243.718,-16.023L243.39,-14.62L244.216,-13.8L243.554,-12.81L244.544,-11.57L246.609,-10.666L249.578,-11.321L251.224,-10.666L253.702,-11.485L254.693,-12.81L256.751,-12.062L259.229,-13.137L261.537,-12.725L264.008,-14.868L264.749,-13.301L266.899,-13.63L270.112,-13.224L268.63,-14.456L271.6,-14.456L271.85,-16.935L271.023,-15.945L270.361,-18.004L270.61,-19.735L268.218,-20.397L268.545,-18.581L267.391,-18.089L267.142,-20.07L264.835,-21.466L262.527,-20.647L260.384,-21.965L258.482,-22.791L255.682,-21.06L255.76,-19.821L260.384,-18.089L262.199,-16.272L259.144,-15.86L257.327,-15.032L254.607,-16.764L254.031,-18.752L252.463,-19.08L250.569,-18.581L248.504,-19.08L245.206,-17.84C245.206,-17.84 243.554,-16.023 243.718,-16.023ZM276.436,-17.591L274.485,-18.211L273.659,-15.61L274.863,-13.957L275.568,-16.686L276.436,-17.591ZM277.512,-16.351L276.721,-14.077L278.253,-14.37L278.501,-15.731L277.512,-16.351ZM279.043,-16.187C278.943,-16.358 279.598,-18.253 279.598,-18.253L283.066,-20.149L288.673,-21.389L291.478,-19.985L293.045,-20.397L296.015,-19.657L299.148,-17.676L301.541,-18.666L304.839,-18.502L306.327,-17.341L308.885,-17.591L310.202,-19.158L312.26,-19.821L313.585,-21.801L312.68,-22.292L314.653,-23.619L317.046,-22.627L317.296,-20.561L316.22,-18.666L314.738,-18.004L313.086,-15.774L310.616,-15.446L309.625,-14.378L307.973,-14.955L304.511,-15.032L301.292,-13.551L297.624,-14.242L295.096,-13.166L294.604,-12.547L292.945,-12.589L291.663,-13.295L289.598,-12.425L288.273,-13.544L286.493,-13.786L284.876,-13.501L283.138,-13.957L281.606,-13.786L279.706,-14.242L279.043,-16.187ZM319.681,-20.982L318.192,-19.699L319.354,-19.037L320.059,-20.028L319.681,-20.982ZM318.485,-17.591L316.128,-17.135L315.337,-15.318L316.619,-16.686L318.485,-17.591ZM320.386,-16.971L322.665,-18.588L322.167,-19.613L323.157,-19.992L324.774,-19.742L326.348,-20.654L327.216,-20.07L324.859,-17.882L323.783,-16.6L321.42,-16.101L320.386,-16.971ZM327.466,-17.341L329.04,-17.384L330.158,-16.315L331.931,-18.71L331.724,-19.699L330.613,-18.666L328.498,-18.418L327.466,-17.341ZM335.785,-21.808L333.505,-20.819L334.417,-20.156L333.67,-19.33L333.876,-18.46L335.905,-17.961L339.793,-19.33L341.083,-20.819L339.922,-21.602L336.775,-21.275L335.785,-21.808ZM346.133,-21.559L345.464,-20.612L345.883,-20.112L346.751,-20.776L346.133,-21.559ZM349.937,-24.701L352.422,-26.147L356.025,-25.363L357.264,-24.373L357.798,-25.407L359.457,-26.689L361.196,-27.593L360.74,-28.833L358.874,-29.624L357.094,-28.299L353.248,-27.971L352.051,-28.962L350.27,-28.093L349.444,-25.692L349.937,-24.701ZM226.831,-36.257L228.384,-34.776L229.851,-36.407L230.947,-36.214L231.696,-36.214L231.282,-36.856L229.837,-37.476L227.699,-37.747L226.788,-36.919L226.831,-36.257ZM233.455,-32.809L235.135,-32.744L235.669,-32.866L235.498,-32.211L233.868,-32.246L233.455,-32.809ZM268.88,-6.534L273.822,-9.098L276.877,-6.705L278.943,-6.705L281.001,-7.858L283.722,-6.534L284.462,-4.473L286.692,-4.473L288.593,-1.588L290.488,0.228L290.573,1.718L287.681,3.199L284.462,3.526L281.827,2.372L279.925,-0.349L278.032,-0.762L276.222,-2.985L273.659,-2.571L270.524,-3.235L268.716,-4.887L268.88,-6.534ZM302.012,5.679L303.251,6.505L303.542,7.624L302.054,8.365L299.981,8.243L301.1,6.383L302.012,5.679ZM319.026,6.171L316.882,7.16L317.296,7.574L313.748,9.305L312.017,10.873L313.663,11.449L318.862,9.305L319.603,7.488L319.026,6.171ZM318.769,4.567L319.638,2.251L318.769,2.209L317.574,4.111L318.769,4.567ZM321.048,2.045L320.344,4.396L321.504,5.308L325.23,5.102L328.498,2.956L330.528,2.338L332.394,2.501L334.545,0.927L335.949,-1.218L340.249,-4.445L341.29,-5.814L342.458,-6.32L339.694,-8.885L337.337,-11.556L336.348,-11.071L334.41,-10.508L334.246,-7.566L332.188,-7.232L329.794,-5.999L328.093,-7.995L327.437,-7.36L325.215,-6.041L324.389,-3.648L322.246,-0.1L321.904,0.862L322.829,1.731L323.206,2.678L321.982,2.678L321.048,2.045ZM363.802,-22.1L365.255,-22.842L366.409,-21.887L364.999,-21.146L363.802,-22.1ZM369.016,-21.352L370.589,-21.808L370.504,-20.569L369.016,-21.352ZM372.206,-22.3L375.597,-22.058L377.463,-22.429L377.463,-21.232L374.77,-20.277L372.535,-21.352L372.206,-22.3ZM366.16,-28.798L368.31,-30.323L366.951,-30.985L366.039,-30.159L366.16,-28.798ZM383.751,-20.896L385.859,-21.067L386.814,-20.484L384.912,-20.32L383.751,-20.896ZM381.145,-34.291L382.177,-35.117L383.338,-34.291L382.761,-33.379L381.514,-33.429L381.145,-34.291ZM393.516,-26.482L394.84,-27.138L396.336,-26.275L396.785,-24.452L395.054,-24.081L393.601,-25.278L393.516,-26.482ZM397.327,-23.133L394.969,-21.887L396.336,-21.887L397.327,-23.133ZM393.146,-40.369L391.984,-39.499L393.558,-39.414L393.146,-40.369ZM398.402,-43.844L399.976,-44.793L398.815,-45.37L398.402,-43.844ZM415.7,-32.638L412.596,-29.867L412.474,-28.798L412.888,-28.007L411.648,-26.974L411.606,-25.278L413.258,-23.874L414.711,-24.288L417.317,-27.558L418.187,-30.366L417.731,-31.976L418.35,-33.173L418.144,-33.999L416.819,-34.334L415.744,-33.507L415.7,-32.638ZM412.062,-23.212L410.78,-23.341L408.707,-21.93L408.379,-21.025L410.032,-21.352L411.521,-22.513L412.062,-23.212ZM411.854,-31.519L408.871,-31.313L410.323,-30.693L411.521,-30.985L411.854,-31.519ZM408.999,-30.244L407.675,-29.745L408.622,-29.539C408.622,-29.539 408.999,-30.366 408.999,-30.244ZM418.806,-35.075L421.662,-33.586L420.878,-34.746L418.806,-35.075ZM420.751,-36.029L422.616,-36.977L421.99,-37.348L420.751,-36.029ZM450.798,-54.048L449.724,-54.219L448.732,-52.48L447.693,-52.188L448.896,-51.86L449.062,-50.948L450.136,-51.156L448.562,-50.044L448.896,-48.675L449.724,-48.76L451.297,-49.879L452.622,-49.837L453.156,-50.913L453.07,-52.893L452.166,-53.014L450.798,-54.048ZM451.212,-54.795L452.286,-53.557L453.156,-53.513L452.201,-54.874L451.212,-54.795ZM447.614,-51.533L446.996,-51.511L446.703,-50.727L447.614,-50.749L447.614,-51.533ZM452.067,-48.989L450.122,-48.269L448.505,-46.844L448.896,-46.225L451.304,-44.921L452.229,-44.237L453.412,-45.662L453.64,-46.924L453.163,-47.215L453.37,-47.835L452.665,-48.868L452.067,-48.989ZM447.8,-47.314L446.476,-47.629L446.29,-46.488L448.006,-44.551L449.395,-43.824L450.058,-44.258L448.156,-46.076L447.8,-47.314ZM450.948,-43.844C450.948,-43.909 450.285,-43.368 450.285,-43.368L450.393,-42.278L451.318,-41.552L452.479,-41.779L452.087,-42.912L450.948,-43.844ZM446.831,-44.65L445.942,-45.356L446.19,-44.38L446.255,-42.021L447.138,-41.18L447.679,-39.898L446.875,-40.681L446.106,-40.746L445.92,-38.637L446.996,-37.583L448.135,-37.747L450.243,-39.649L450.656,-40.681L449.623,-41.344L448.896,-42.898L446.831,-44.65ZM453.519,-40.582L452.643,-39.585L453.227,-39.093L453.761,-39.67L453.519,-40.582ZM435.565,-55.95L433.292,-54.753L432.302,-49.958L431.469,-48.597L433.001,-49.174L434.532,-53.884L435.565,-55.95ZM429.403,-53.678L430.023,-51.49L430.109,-49.666L430.935,-48.804L431.014,-51.447L429.403,-53.678ZM462.628,-110.995L464.523,-109.1L464.444,-110.418L465.597,-110.34L467.578,-107.696L467.243,-106.214L468.981,-105.88L469.636,-105.88L470.626,-105.389L473.269,-105.88L472.279,-106.87L470.626,-107.696L469.145,-110.09L467.243,-111.322L465.435,-111.322L462.215,-111.907L462.628,-110.995ZM462.628,-100.023C462.628,-100.108 463.37,-99.119 463.37,-99.119L467.001,-97.63L472.279,-96.888L477.058,-97.63L478.382,-98.37L474.508,-99.196L472.607,-98.705L469.145,-99.695L466.83,-98.534L462.628,-100.023ZM460.898,-100.764L457.928,-100.764L459.573,-100.187L460.898,-100.764ZM455.862,-108.024L454.466,-107.618L455.784,-106.214L457.265,-106.543L455.862,-108.024ZM159.343,-132.697L161.158,-135.831L163.878,-139.466L165.033,-141.196L166.814,-141.753L169.142,-137.57L172.817,-134.963L173.187,-134.008L175.794,-131.564L176.741,-129.662L178.436,-129.456L181.742,-130.367L182.119,-131.693L184.967,-131.485L186.577,-132.313L192.859,-131.978L199.226,-134.55L200.92,-136.038L206.476,-136.21L209.361,-134.806L210.272,-133.402L212.992,-133.487L217.693,-136.046L223.134,-136.872L222.807,-138.603L227.344,-145.45L229.16,-150.316L232.621,-155.517L235.099,-164.352L235.099,-166.076L236.254,-168.057L236.09,-169.546L238.483,-172.431L240.377,-171.612L244.01,-171.939L249.037,-171.861L250.277,-170.95L253.496,-171.035L255.968,-170.287L255.846,-169.66L254.693,-169.417L254.856,-168.341L254.116,-167.188L256.508,-166.282L258.73,-163.64L256.174,-162.977L253.617,-163.39L252.548,-162.727L254.358,-160.59L255.326,-160.049L255.596,-158.794L254.607,-158.524L253.781,-156.793L255.682,-155.14L256.424,-152.746L260.219,-148.791L261.949,-147.223L260.796,-145.072L257.826,-144.417L257.413,-143.006L258.403,-142.187L258.894,-140.206L260.632,-139.216L265.497,-134.677L267.142,-134.677L269.044,-132.534L269.698,-131.13L271.515,-130.716L270.938,-128.65L269.534,-128.072L268.054,-128.65L266.323,-127.417L263.68,-127.745L259.97,-131.379L260.711,-128.322L260.049,-127.168L258.98,-128.571L256.588,-126.178L256.588,-124.525L255.519,-123.293L255.105,-118.918L254.116,-117.35L253.289,-113.388L250.241,-110.995L251.395,-108.024L249.985,-105.965L248.012,-103.899L247.05,-106.051L245.89,-106.627L246.509,-105.103L246.346,-102.666L244.401,-100.436L244.023,-98.406L242.122,-97.622L240.427,-97.871L240.84,-96.839L239.929,-95.513L242.706,-95.678L243.155,-95.221L242.827,-93.198L241.502,-92.25L242.25,-91.751L243.567,-91.873L243.859,-90.306L243.155,-88.523L241.338,-89.066L241.003,-89.515L240.883,-88.61L241.915,-87.619L242.62,-86.957L240.883,-83.273L239.679,-83.273L239.18,-84.177L238.525,-81.292L238.525,-79.725L236.133,-75.351L232.257,-72.708L228.953,-72.13L224.253,-69.907L222.031,-69.573L221.369,-72.708L221.782,-74.446L220.627,-76.178L220.214,-77.003L219.139,-76.505L217.9,-78.157L216.831,-77.581L215.016,-78.072L214.025,-79.888L213.221,-78.072L214.011,-76.547L211.888,-77.146L210.977,-78.321L210.977,-80.138L209.738,-81.206L208.421,-80.387L206.356,-81.627L205.116,-81.456L203.385,-79.561L200.586,-79.148L200.116,-78.023L198.421,-77.78L197.217,-78.856L195.892,-78.478L193.243,-75.215L191.591,-75.215L191.84,-77.075L191.505,-80.922L190.558,-83.729L191.007,-85.717L190.309,-87.242L190.516,-86.002L189.476,-83.814L188.03,-82.86L186.62,-83.857L184.675,-82.446L181.784,-82.198L180.039,-82.825L177.639,-82.989L176.941,-84.477L175.16,-82.945L173.878,-82.945L172.554,-86.131L172.51,-88.859L171.891,-93.982L169.904,-95.264L169.363,-96.668L170.602,-98.199L172.176,-100.472L171.891,-102.495L170.774,-104.526L167.511,-107.782L164.704,-109.428L161.998,-110.062L161.914,-110.974L163.985,-111.223L165.766,-112.79L169.775,-113.746L172.468,-115.847L174.662,-115.683L172.589,-116.303L169.527,-114.408L165.973,-113.867L164.478,-113.532L162.162,-114.237L160.71,-116.887L161.415,-117.585L162.74,-116.923L161.706,-118.661L158.309,-122.922L157.981,-127.261L159.556,-128.208L159.804,-129.577L159.228,-131.101L159.343,-132.697ZM164.813,-105.31L167.647,-105.188L169.299,-104.013L167.092,-101.698L165.659,-101.284L164.704,-102.503L165.039,-103.97C165.039,-103.97 164.833,-105.295 164.813,-105.31ZM162.454,-108.936L165.389,-108.416L166.656,-107.197L167.561,-106.927L167.625,-106.101L164.94,-106.222L163.816,-106.165L162.205,-108.038L162.454,-108.936ZM161.358,-113.909L164.149,-113.09L164.563,-112.463L163.388,-111.807L161.336,-112.527L160.923,-113.602L161.358,-113.909ZM240.613,-77.701L240.74,-73.712L240.142,-71.418L238.384,-70.199L237.472,-71.318L237.821,-74.617L239.002,-77.929L240.056,-78.592L240.613,-77.701ZM241.588,-77.822L242.186,-77.267L241.915,-74.233L241.296,-74.04L241.175,-76.917L241.588,-77.822ZM255.931,-160.461L257.021,-159.821L257.007,-157.79L256.26,-158.018L255.931,-160.461ZM258.368,-162.792L256.032,-162.214L257.748,-161.745L258.368,-162.792ZM257.086,-169.182L257.007,-168.705L257.669,-167.594L259.549,-167.508L259.506,-168.271L257.086,-169.182ZM257.007,-167.899L257.669,-166.746L256.53,-167.259L257.007,-167.899ZM280.574,-180.403L284.363,-183.525L286.144,-183.859L286.329,-182.121L283.659,-180.219L281.194,-179.684L280.574,-180.403ZM276.579,-177.989L276.123,-176.578L277.12,-174.512L277.12,-176.335L276.579,-177.989ZM293.9,-189.801L295.886,-189.758L296.841,-190.421L297.873,-189.801L299.483,-190.628L299.447,-191.626L296.841,-192.117L294.106,-191.575L293.236,-190.585L293.9,-189.801ZM291.044,-197.41L289.598,-195.672L290.965,-195.216L291.585,-196.334L291.044,-197.41ZM288.836,-123.371L291.478,-124.282L294.612,-122.794L298.322,-122.715L302.445,-124.775L305.166,-124.446L306.157,-123.128L308.55,-123.128L309.952,-123.783L314.817,-123.293L317.381,-123.456L317.872,-124.118L320.592,-124.033L322.409,-123.044L322.985,-121.889L325.294,-121.147L333.954,-123.128L337.586,-125.601L338.575,-127.496L340.058,-127.667L341.297,-129.149L342.863,-130.225L343.604,-132.206L344.594,-133.851L345.67,-134.677L344.594,-135.831L344.345,-137.157L341.132,-137.897L338.903,-137.157L338.491,-134.927L336.76,-133.602L336.597,-132.447L334.203,-130.716L332.388,-130.468L331.233,-128.736L328.513,-128.072L323.072,-129.149L318.449,-129.562L317.623,-128.322L316.555,-128.159L314.325,-130.138L312.595,-130.304L310.616,-130.225L308.464,-130.716L305.501,-131.215L303.934,-130.225L302.197,-131.215L299.975,-133.359L296.591,-134.015L294.533,-133.936L294.533,-131.457L292.795,-130.304L291.806,-128.159L290.324,-126.841L287.354,-127.831L284.634,-127.168L283.558,-125.936L283.808,-125.11L280.924,-122.38L280.924,-119.081L281.5,-117.186L281.328,-113.388L280.752,-112.071L281.906,-109.349L282.24,-107.197L281.328,-108.36L280.674,-110.09L279.185,-109.678L277.705,-107.86L275.887,-106.87L275.474,-104.64L275.81,-102.004L274.983,-100.272L275.56,-95.485L274.983,-94.416L274.656,-92.514L273.167,-91.851L273.246,-88.966L270.61,-86.907L269.784,-83.936L270.197,-83.023L269.207,-81.706L270.524,-77.745L271.764,-75.928L272.59,-76.426L274.321,-76.426L275.56,-77.331L276.713,-76.754L277.455,-73.869L279.434,-68.582L278.608,-67.264L277.953,-64.294L276.301,-61.899L276.051,-56.947L276.386,-53.071L277.618,-53.071L279.185,-52.081L281.578,-52.167L282.654,-53.406L284.797,-52.907L286.692,-53.242L288.095,-52.167L288.507,-53.984L288.259,-56.292L286.692,-57.361L286.365,-60.339L287.597,-62.397L288.095,-66.187L287.681,-69.743L286.778,-70.734L289.006,-74.032L289.747,-77.003L289.085,-80.551L287.597,-81.87L287.597,-82.939L290.075,-84.506L291.065,-86.08L293.372,-86.573L295.688,-85.745L295.438,-84.591L296.506,-82.696L296.506,-80.387L294.697,-78.321L294.198,-76.262L295.438,-73.946L297.004,-73.705L298.408,-71.966L301.043,-70.399L301.456,-68.255L300.551,-68.419L299.975,-64.215L300.801,-61.899L302.445,-61.322L303.685,-61.735L306.242,-60.666L308.136,-60.995L307.973,-61.821L307.318,-63.473L309.29,-65.284L311.27,-65.783L313.998,-67.35L317.381,-67.1L318.613,-68.419L319.524,-67.926L321.17,-67.926L322.16,-69.573L321.832,-70.562L318.862,-70.812L317.951,-70.399L316.969,-70.734L314.817,-70.485L314.653,-72.13L313.585,-72.301L313.663,-73.37L312.68,-73.62L311.683,-73.042L311.605,-74.282L309.625,-74.859L308.962,-76.262L310.287,-77.581L310.779,-78.649L311.605,-78.321L310.943,-79.725L311.932,-79.888L312.431,-81.042L311.355,-82.119L309.789,-82.61L310.451,-83.686L310.202,-84.926L308.221,-86.243L306.897,-86.33L306.327,-88.475L303.187,-92.022L301.292,-93.34L300.138,-95.399L300.387,-96.311L301.292,-96.226L301.791,-95.071L303.849,-94.994L305.664,-96.39L306.157,-97.793L310.779,-99.446L314.076,-102.004L315.643,-104.64L317.708,-105.716L317.787,-107.283L320.265,-107.86L322.487,-106.706L323.891,-106.543L325.871,-109.349L325.871,-111.159L323.478,-112.071L318.364,-111.572L316.142,-110.005L312.759,-110.005L311.106,-109.514L309.126,-107.447L306.983,-107.618L305.33,-107.197L303.187,-108.524L301.129,-109.1L298.899,-106.214L297.332,-102.417L295.103,-101.262L292.718,-101.591L292.14,-102.659L289.171,-105.965L286.201,-108.524L284.634,-112.563L284.961,-117.022L286.778,-121.311L288.836,-123.371ZM303.207,-113.326L304.248,-113.368L305.815,-112.42L304.206,-112.049L303.207,-113.326ZM304.824,-113.909L306.648,-113.162L306.726,-114.408C306.726,-114.408 304.868,-113.952 304.824,-113.909ZM316.868,-102.624L319.432,-104.156L322.573,-103.899L322.822,-102.909L322.082,-101.591L323.811,-102.004L324.638,-103.407L326.283,-102.168L325.871,-100.436L323.811,-99.938L323.149,-100.764L322.082,-99.196L320.18,-100.6L318.698,-99.282L316.969,-100.515L316.868,-102.624ZM326.447,-99.938L325.13,-98.948L326.861,-98.37L326.447,-99.938ZM323.478,-97.63L322.487,-96.725L324.14,-96.475L323.478,-97.63ZM321.091,-96.226L319.354,-95.485L320.592,-94.907C320.592,-94.907 321.091,-96.148 321.091,-96.226ZM304.369,-58.679L304.248,-57.233L303.586,-56.534L304.412,-54.048L305.401,-53.641L307.103,-54.795L306.562,-57.111L305.195,-59.093C305.195,-59.093 304.412,-58.679 304.369,-58.679ZM309.376,-57.026C309.461,-57.069 309.461,-56.079 309.461,-56.079L310.373,-55.33L312.36,-55.579L312.645,-56.491L313.513,-56.734L313.763,-58.636L315.216,-60.125L315.251,-61.33L314.219,-63.267L312.275,-62.277L310.743,-60.703L311.405,-59.341L309.376,-57.026ZM314.631,-54.718L316.575,-58.059L317.616,-61.614L317.822,-65.212L318.769,-66.081L320.386,-65.832L320.429,-64.342L321.133,-62.811L321.048,-61.742L320.465,-62.647L320.094,-61.65L318.734,-60.581L318.065,-59.711L318.563,-57.98L320.386,-57.568L320.756,-56.534L319.973,-55.579L318.606,-55.124L317.324,-52.936L315.878,-52.188L314.346,-53.014L314.631,-54.718ZM334.787,-97.002L336.283,-98.492L337.394,-98.199L338.804,-98.776L341.083,-98.199L342.528,-97.415L343.974,-98.492L345.464,-97.95L345.506,-96.011L343.733,-96.212L341.703,-95.264L340.086,-95.678L337.608,-94.188L335.45,-94.644L334.623,-95.884L334.787,-97.002ZM346.133,-97.209L347.371,-97.786L349.11,-97.124L350.726,-97.871L354.985,-97.288L357.307,-96.874L354.615,-96.212L349.608,-95.056L347.123,-95.756L347.044,-96.633L346.133,-97.209ZM352.464,-94.438L352.464,-92.621L354.039,-90.056L353.952,-88.979L353.041,-89.393L352.051,-92.079L351.631,-93.982L352.464,-94.438ZM288.928,-50.25L290.751,-46.609L289.84,-44.913L288.971,-42.52L288.48,-44.216L287.483,-45.826L288.273,-47.272L288.437,-49.089L288.928,-50.25ZM291.314,-34.354L289.74,-35.189L288.85,-34.354L290.111,-33.3L291.314,-34.354ZM354.58,-81.542L356.722,-80.63L358.539,-82.198L362.906,-81.954L366.125,-80.63L366.288,-79.311L368.268,-77.003L368.104,-75.272L366.21,-75.351L363.895,-73.291L361.253,-73.534L358.539,-73.291L357.542,-74.196L354.166,-74.859L352.35,-77.331L352.677,-80.216L354.58,-81.542ZM377.177,-77.909L379.235,-81.206L380.966,-79.311L381.964,-77.83L384.022,-77.994L386.166,-80.138L387.569,-80.138L388.807,-77.994L393.757,-77.416L394.826,-78.899L397.134,-78.899L401.677,-76.178L403.735,-75.763L406.207,-73.127L408.6,-73.127L409.512,-75.186L408.436,-79.476L402.746,-82.696L398.046,-83.601L395.738,-85.504L393.26,-85.745L391.193,-83.936L388.807,-84.177L387.156,-84.841L383.773,-84.591L379.072,-84.676L378.082,-83.352L377.919,-82.034L376.024,-81.371L375.276,-79.397L375.86,-77.909L377.177,-77.909ZM376.594,-84.349L374.606,-84.227L375.062,-83.237L376.217,-83.316L376.594,-84.349ZM374.151,-81.991L372.826,-80.794L374.108,-80.587L374.151,-81.991ZM374.977,-75.009L377.669,-75.835L378.787,-76.662L379.984,-76.084L378.616,-73.648L378.203,-74.724L376.508,-73.683L374.977,-75.009ZM380.852,-76.163L382.013,-76.163L382.22,-75.129L381.102,-75.129L380.852,-76.163ZM383.004,-76.334L384.286,-76.54L384.371,-75.671L383.502,-75.421L383.004,-76.334ZM402.703,-98.698L398.487,-97.665L396.991,-96.668L397.989,-95.72L401.627,-94.523L404.776,-95.47L403.864,-95.969L403.7,-97.701L402.703,-98.698ZM369.678,-99.731L372.869,-102.125L375.64,-102.004L378.452,-99.146L377.79,-97.829L374.479,-97.829L372.947,-97.537L370.96,-98.363L369.678,-99.731ZM370.055,-113.04L369.351,-112.378L369.514,-111.016L370.754,-109.114L372.699,-109.15L373.944,-107.996L374.977,-109.072L374.393,-110.019L372.783,-110.724L372.905,-112.42L371.623,-113.326L370.055,-113.04ZM368.146,-114.323L366.864,-114.358L366.16,-112.128L367.57,-111.593L368.19,-113.125L368.146,-114.323ZM368.232,-109.735L369.058,-108.038L366.701,-108.737L367.528,-110.268L368.232,-109.735ZM377.427,-114.878L378.332,-111.657L381.301,-109.015L381.964,-107.946L381.053,-107.618L380.889,-106.214L380.39,-108.024L378.41,-108.851L376.601,-112.563L374.208,-114.051L372.719,-116.609L373.631,-118.996L373.217,-120.321L373.545,-121.725L371.323,-123.542L371.736,-125.85L372.641,-127.333L371.323,-129.726L370.17,-131.215L370.91,-134.101L372.306,-135.169L372.064,-138.062L372.805,-141.361L376.266,-144.745L377.427,-145.072L377.177,-143.264L375.447,-141.282L375.86,-140.043L377.834,-139.216L377.834,-135.746L376.929,-132.861L375.112,-132.782L373.467,-131.13L374.457,-129.235L375.774,-129.476L376.515,-131.293L378.496,-132.206L379.485,-133.359L378.332,-133.438L378.581,-135.005L382.042,-136.736L385.674,-138.062L386.992,-136.659L387.156,-135.005L385.425,-130.966L381.301,-129.562L379.813,-127.831L380.725,-126.264L382.206,-126.1L385.097,-124.033L385.504,-122.38L386.58,-121.476L384.349,-121.311L382.783,-122.551L379.813,-122.63L377.177,-123.456L375.525,-122.879L375.525,-118.59L377.427,-114.878ZM379.57,-145.528L380.276,-141.895L381.558,-143.006L383.253,-142.885L384.912,-144.495L384.249,-146.277L382.761,-147.223L381.308,-146.149L379.57,-145.528ZM361.196,-166.738L362.435,-166.403L363.14,-164.252L362.272,-164.252C362.272,-164.252 361.196,-166.696 361.196,-166.738ZM361.196,-172.317L362.022,-169.546L362.272,-167.401L363.432,-167.892L364.344,-169.923L363.802,-172.068L362.272,-173.059L361.196,-172.317ZM347.236,-164.053L349.543,-161.41L350.285,-159.015L349.295,-157.861L347.236,-159.679L346.823,-162.564L347.236,-164.053ZM411.108,-108.159L408.749,-106.463L408.793,-103.365L411.235,-102.83L412.311,-103.614L412.888,-107.504L411.108,-108.159ZM411.484,-109.856L410.609,-108.494L409.619,-109.57L411.484,-109.856ZM409.825,-108.202L407.467,-109.072L405.31,-108.615L407.09,-107.668L409.825,-108.202ZM413.55,-115.028L415.003,-114.486L416.905,-115.149L416.491,-116.717L413.714,-118.411L409.868,-118.411L408.13,-117.094L405.851,-117.044L405.146,-116.638L405.894,-115.847L404.32,-115.398L407.631,-114.899L409.741,-113.952L411.648,-114.237L411.606,-115.191L409.741,-115.933L409.455,-116.431L410.239,-116.887L413.55,-115.028ZM390.702,-119.651L395.054,-117.464L395.381,-116.303L392.276,-117.999L390.702,-119.651ZM527.005,-87.84L525.566,-44.856L524.904,-41.609L524.868,-39.763L525.359,-38.808L524.433,-10.972L523.75,-10.986L520.944,-11.977L517.753,-15.432L517.005,-17.085L517.091,-17.833L514.777,-19.906L513.701,-20.561L513.287,-22.344L514.321,-24.003L514.242,-26.568L513.701,-24.038L512.211,-23.091L508.786,-23.341L506.842,-22.3L505.233,-22.344L504.236,-23.341L501.558,-21.887L500.147,-23.504L501.18,-24.167L501.885,-25.948L501.885,-27.273L502.419,-28.014L502.832,-30.956L501.387,-31.534L500.105,-33.194L501.344,-33.478L502.376,-33.151L504.655,-34.063L506.101,-34.227L504.449,-34.683L501.928,-34.312L499.899,-35.26L497.997,-36.706L498.58,-38.203L499.649,-38.323L501.429,-38.117L500.482,-39.278L497.505,-41.43L495.518,-42.798L494.877,-44.244L495.453,-46.638L492.897,-49.281L492.897,-50.271L495.205,-52.167L493.061,-52.002L491.743,-52.907L492.242,-53.735L491.331,-54.809L492.983,-56.121L490.34,-55.63L489.6,-56.541L488.36,-56.042L487.456,-56.705L489.35,-58.929L487.706,-57.945L485.64,-57.86L482.591,-59.098L481.765,-61.244L478.625,-62.313L476.652,-61.984L469.885,-64.129L462.877,-66.273L459.452,-66.494L456.717,-67.777L456.176,-68.767L455.891,-69.679L453.448,-70.213L453.568,-71.866L455.229,-72.115L456.14,-71.866L456.012,-72.408L454.317,-72.693L452.373,-71.909L450.842,-72.487L450.094,-73.442L449.431,-73.648L448.442,-72.487L448.028,-74.759L447.116,-75.379L446.247,-74.965L445.664,-74.018L444.382,-75.421L443.676,-78.236L442.665,-80.63L444.068,-82.446L444.068,-85.169L442.915,-82.939L442.01,-80.466L441.675,-78.735L440.685,-78.236L438.954,-75.101L439.203,-73.206L436.889,-70.32L434.581,-69.821L432.523,-70.485L430.792,-74.36L430.871,-75.763L431.861,-76.178L432.11,-77.745L431.783,-79.311L430.379,-78.82L429.554,-79.64L428.399,-82.446L426.333,-83.522L423.699,-83.936L422.873,-85.09L424.269,-86.821L426.997,-87.071L427.901,-86.158L430.294,-85.916L432.024,-85.005L434.254,-86.33L434.994,-89.051L436.725,-89.628L440.272,-87.975L441.675,-85.916L442.665,-88.139L443.904,-89.792L445.058,-89.378L445.392,-91.851L444.73,-93.34L438.954,-93.996L439.781,-92.841L438.377,-92.514L437.224,-92.841L433.677,-92.101L432.274,-92.599L430.957,-91.936L429.554,-92.763L427.488,-92.265L425.344,-92.599L422.959,-94.572L422.296,-97.216L422.787,-97.879L421.549,-100.023L418.336,-101.84L417.096,-103.158L416.434,-102.254L414.626,-101.262L411.983,-101.676L412.396,-103.073L415.117,-104.811L415.365,-106.456L414.54,-107.946L416.271,-109.428L419.404,-109.514L420.971,-110.995L422.787,-111.494L425.757,-113.802L426.662,-114.629L430.294,-115.37L436.148,-113.14L439.781,-110.667L443.492,-110.831L447.287,-110.503L448.192,-109.514L447.451,-108.274L447.451,-105.466L449.431,-103.821L450.172,-101.755L448.769,-99.695L447.53,-97.551L448.356,-94.495L448.526,-89.215L450.007,-86.657L451.326,-85.005L452.237,-84.926L451.988,-87.811L453.056,-88.966L454.381,-88.139L454.295,-85.831L455.036,-83.601L455.784,-84.1L456.524,-82.034L459.082,-79.975L460.399,-78.571L462.301,-78.571L464.523,-79.561L465.099,-81.627L466.339,-82.61L467.628,-83.08L467.628,-85.938L469.074,-88.304L471.303,-88.503L473.497,-89.785L473.745,-91.901L474.572,-93.106L475.605,-92.607L477.008,-92.727L479.116,-93.518L482.42,-93.932L482.876,-95.584L481.801,-97.615L482.214,-98.734L487.919,-102.082L490.604,-101.84L492.462,-100.094L495.931,-98.57L500.026,-97.658L502.17,-95.834L504.485,-95.627L507.376,-94.801L513.993,-91.773L515.688,-92.109L517.254,-91.859L520.104,-91.152L522.176,-91.238L523.871,-90.035L523.536,-89.044L523.622,-87.805L525.067,-87.305L526.97,-87.84L527.005,-87.84Z" style="fill:rgb(72,76,77);stroke:white;stroke-width:0.29px;"/>
        <g transform="matrix(2.44604,0,0,2.53767,-330.547,-75.4759)">
            <path d="M192.555,11.7C193.758,10.195 196.5,6.548 196.5,4.5C196.5,2.016 194.484,0 192,0C189.516,0 187.5,2.016 187.5,4.5C187.5,6.548 190.242,10.195 191.445,11.7C191.733,12.059 192.267,12.059 192.555,11.7ZM192,3C192.823,3 193.5,3.677 193.5,4.5C193.5,5.323 192.823,6 192,6C191.177,6 190.5,5.323 190.5,4.5C190.5,3.677 191.177,3 192,3Z" style="fill:rgb(72,180,92);fill-rule:nonzero;"/>
        </g>
        <g transform="matrix(0.18,0,0,0.18,-142.933,-682.901)">
            <text x="1692.36px" y="3514.1px" style="font-family:'ArialMT', 'Arial', sans-serif;font-size:176px;fill:rgb(72,180,92);">Jakarta</text>
        </g>
    </g>
</svg>
