<?xml version="1.0" encoding="utf-8"?>
<!-- Generator: Adobe Illustrator 24.0.0, SVG Export Plug-In . SVG Version: 6.00 Build 0)  -->
<svg version="1.1" id="Layer_1" xmlns="http://www.w3.org/2000/svg" xmlns:xlink="http://www.w3.org/1999/xlink" x="0px" y="0px"
	 viewBox="0 0 320 66" style="enable-background:new 0 0 320 66;" xml:space="preserve">
<style type="text/css">
	.st0{fill:#0C1D14;}
	.st1{fill:#0B8137;}
	.st2{fill:url(#SVGID_1_);}
	.st3{fill:#102E22;}
</style>
<path class="st0" d="M70.5,63h1c1,0,1.9-0.1,2.5-0.3c0.7-0.2,1.3-0.6,1.8-1.1c1.1-1,1.7-2.3,1.7-3.9c0-1.6-0.5-3-1.6-4
	c-1-0.9-2.4-1.4-4.4-1.4h-1C70.5,52.3,70.5,63,70.5,63z M68.2,65.1V50.2h3.1c1.5,0,2.7,0.1,3.6,0.4c0.9,0.3,1.8,0.8,2.6,1.5
	c1.5,1.4,2.3,3.2,2.3,5.5c0,2.3-0.8,4.1-2.4,5.6c-0.8,0.7-1.7,1.2-2.5,1.5c-0.8,0.3-2,0.4-3.5,0.4L68.2,65.1L68.2,65.1z"/>
<path class="st0" d="M91.8,59.4l-2.2-5.1l-2.3,5.1H91.8z M92.7,61.5h-6.4l-1.7,3.6h-2.4l7.4-15.8l7.1,15.8h-2.5L92.7,61.5z"/>
<polygon class="st0" points="103.9,52.3 103.9,65.1 101.7,65.1 101.7,52.3 98.2,52.3 98.2,50.2 107.4,50.2 107.4,52.3 "/>
<path class="st0" d="M118.4,59.4l-2.2-5.1l-2.3,5.1H118.4z M119.3,61.5h-6.4l-1.7,3.6h-2.4l7.4-15.8l7.1,15.8h-2.5L119.3,61.5z"/>
<path class="st0" d="M143.2,51v2.7c-1.3-1.1-2.7-1.6-4.1-1.6c-1.5,0-2.8,0.5-3.9,1.6c-1.1,1.1-1.6,2.4-1.6,4c0,1.6,0.5,2.9,1.6,4
	c1.1,1.1,2.4,1.6,3.9,1.6c0.8,0,1.5-0.1,2-0.4c0.3-0.1,0.6-0.3,1-0.5c0.3-0.2,0.7-0.5,1.1-0.8v2.7c-1.3,0.7-2.6,1.1-4.1,1.1
	c-2.1,0-4-0.7-5.5-2.2c-1.5-1.5-2.3-3.3-2.3-5.4c0-1.9,0.6-3.6,1.9-5.1c1.6-1.8,3.6-2.7,6-2.7C140.7,49.9,142,50.3,143.2,51"/>
<polygon class="st0" points="156.3,52.3 150.3,52.3 150.3,55.9 156.2,55.9 156.2,58 150.3,58 150.3,63 156.3,63 156.3,65.1 
	148.1,65.1 148.1,50.2 156.3,50.2 156.3,52.3 "/>
<polygon class="st0" points="161.3,65.1 161.3,49.2 172.2,60.5 172.2,50.2 174.5,50.2 174.5,66 163.6,54.7 163.6,65.1 161.3,65.1 
	"/>
<polygon class="st0" points="184.2,52.3 184.2,65.1 181.9,65.1 181.9,52.3 178.5,52.3 178.5,50.2 187.6,50.2 187.6,52.3 "/>
<path class="st0" d="M193.9,57h0.7c2.1,0,3.2-0.8,3.2-2.4c0-1.5-1-2.3-3.1-2.3h-0.8L193.9,57L193.9,57z M196.7,58.7l4.6,6.3h-2.8
	l-4.3-6.1h-0.4v6.1h-2.3V50.2h2.6c2,0,3.4,0.4,4.3,1.1c1,0.8,1.5,1.9,1.5,3.3c0,1.1-0.3,2-0.9,2.7C198.5,58,197.7,58.5,196.7,58.7"
	/>
<polygon class="st0" points="213.8,52.3 207.8,52.3 207.8,55.9 213.7,55.9 213.7,58 207.8,58 207.8,63 213.8,63 213.8,65.1 
	205.6,65.1 205.6,50.2 213.8,50.2 "/>
<path class="st0" d="M227.2,52.4l-1.8,1.1c-0.3-0.6-0.7-1-1-1.2c-0.3-0.2-0.7-0.3-1.2-0.3c-0.6,0-1.1,0.2-1.6,0.5
	c-0.4,0.3-0.6,0.8-0.6,1.3c0,0.7,0.5,1.3,1.6,1.8l1.5,0.6c1.2,0.5,2.1,1.1,2.7,1.8c0.6,0.7,0.8,1.6,0.8,2.6c0,1.4-0.5,2.5-1.4,3.4
	c-0.9,0.9-2.1,1.3-3.4,1.3c-1.3,0-2.4-0.4-3.2-1.1c-0.8-0.8-1.4-1.8-1.6-3.2l2.3-0.5c0.1,0.9,0.3,1.5,0.5,1.8c0.5,0.6,1.1,1,2,1
	c0.7,0,1.3-0.2,1.8-0.7c0.5-0.5,0.7-1.1,0.7-1.8c0-0.3,0-0.6-0.1-0.8c-0.1-0.2-0.2-0.5-0.4-0.7s-0.4-0.4-0.7-0.6
	c-0.3-0.2-0.6-0.3-1-0.5l-1.4-0.6c-2-0.9-3.1-2.1-3.1-3.8c0-1.1,0.4-2.1,1.3-2.8c0.9-0.8,1.9-1.1,3.2-1.1
	C224.9,49.9,226.3,50.8,227.2,52.4"/>
<path class="st1" d="M18.9,53l-7.3,0.7c1.1,1.1,2.2,2,3.1,2.7l4.2-0.4V53z"/>
<path class="st1" d="M8,49.2l11-2v-3L6.4,46.5C6.9,47.5,7.4,48.4,8,49.2"/>
<path class="st1" d="M4.6,42.3l14.3-4v-3l-15,4.2C4.1,40.5,4.3,41.4,4.6,42.3"/>
<path class="st1" d="M18.9,26.5L3.2,32.4c0,0.2,0,0.4,0,0.6c0,0.8,0,1.6,0.1,2.3l15.6-5.8V26.5z"/>
<path class="st1" d="M3.6,27.8l15.3-7.1v-3L4.4,24.4C4.1,25.5,3.8,26.6,3.6,27.8"/>
<path class="st1" d="M6.8,18.6l12.1-6.8v-3l-8.6,4.8C9.1,15,7.9,16.7,6.8,18.6"/>
<polygon class="st1" points="60.2,13.3 18.9,0 18.9,3 60.2,16.3 "/>
<rect x="18.9" y="61.8" class="st1" width="41.3" height="3"/>
<path class="st1" d="M34.3,37.4L34.3,37.4c-0.1,1-0.3,2-0.6,2.9L60.2,44v-3L34.3,37.4z"/>
<path class="st1" d="M34.4,29.3c0.1,1,0.2,2,0.2,3l25.6,4.7v-3L34.4,29.3z"/>
<path class="st1" d="M32,45.4c-0.5,1-1,2-1.5,2.9l29.7,2.7v-3L32,45.4z"/>
<path class="st1" d="M26.6,53.3c-1.1,1.1-2.2,2.1-3.1,2.8c0,0,0,0,0,0l36.8,1.7v-3L26.6,53.3z"/>
<path class="st1" d="M24,10.2c1.3,1,2.7,2.4,4.2,4.1l32.1,8.8v-3L24,10.2z"/>
<path class="st1" d="M32.1,20.7c0.5,1,0.9,2.1,1.3,3.3l26.9,6.2v-3L32.1,20.7z"/>
<linearGradient id="SVGID_1_" gradientUnits="userSpaceOnUse" x1="68.248" y1="21.7605" x2="320.001" y2="21.7605">
	<stop  offset="0.3017" style="stop-color:#0D3022"/>
	<stop  offset="0.7039" style="stop-color:#0C8035"/>
</linearGradient>
<path class="st2" d="M112.3,37.7L112.3,37.7c-1.4,0-2.6-0.8-3.1-2.1L101,15.8c-0.6-1.3,0.4-2.8,1.9-2.8h0.4c0.8,0,1.6,0.5,1.9,1.3
	l7.2,18.1h0.1l6.9-18.1c0.3-0.8,1.1-1.3,1.9-1.3c1.5,0,2.5,1.5,1.9,2.8l-7.9,19.8C114.9,36.9,113.7,37.7,112.3,37.7 M135.9,25.4
	c0,1.3,0.2,2.5,0.6,3.6c0.4,1.1,1,2.1,1.8,2.9c0.8,0.8,1.7,1.5,2.8,2s2.3,0.7,3.6,0.7c1.3,0,2.6-0.2,3.6-0.7c1.1-0.5,2-1.1,2.8-2
	c0.8-0.8,1.4-1.8,1.8-2.9c0.4-1.1,0.6-2.3,0.6-3.6c0-1.3-0.2-2.5-0.6-3.6c-0.4-1.1-1-2.1-1.8-2.9c-0.8-0.8-1.7-1.5-2.8-2
	s-2.3-0.7-3.6-0.7c-1.3,0-2.6,0.2-3.6,0.7c-1.1,0.5-2,1.1-2.8,2s-1.4,1.8-1.8,2.9C136.1,22.9,135.9,24.1,135.9,25.4 M131.4,25.4
	c0-1.9,0.3-3.7,1-5.3c0.7-1.6,1.6-2.9,2.8-4.1c1.2-1.1,2.6-2,4.2-2.7c1.6-0.6,3.4-0.9,5.3-0.9c1.9,0,3.7,0.3,5.3,0.9
	c1.6,0.6,3,1.5,4.2,2.7c1.2,1.1,2.1,2.5,2.8,4.1c0.7,1.6,1,3.4,1,5.3c0,1.9-0.3,3.7-1,5.3c-0.7,1.6-1.6,2.9-2.8,4.1
	c-1.2,1.1-2.6,2-4.2,2.7c-1.6,0.6-3.4,0.9-5.3,0.9c-1.9,0-3.7-0.3-5.3-0.9c-1.6-0.6-3-1.5-4.2-2.7c-1.2-1.1-2.1-2.5-2.8-4.1
	C131.8,29.1,131.4,27.3,131.4,25.4 M248.6,13L248.6,13c1.1,0,2.1,0.9,2.1,2.1v21.6c0,1.1-0.9,2.1-2.1,2.1c-1.1,0-2.1-0.9-2.1-2.1
	V15.1C246.6,13.9,247.5,13,248.6,13 M246.6,6.8c0-0.5,0.2-1,0.6-1.4s0.9-0.6,1.5-0.6s1.1,0.2,1.5,0.6c0.4,0.4,0.6,0.9,0.6,1.4
	c0,0.6-0.2,1.1-0.6,1.5c-0.4,0.4-0.9,0.6-1.5,0.6c-0.6,0-1.1-0.2-1.5-0.6C246.7,7.9,246.6,7.4,246.6,6.8 M266,25.4
	c0,1.3,0.2,2.5,0.6,3.6c0.4,1.1,1,2.1,1.8,2.9c0.8,0.8,1.7,1.5,2.8,2s2.3,0.7,3.6,0.7s2.6-0.2,3.6-0.7c1.1-0.5,2-1.1,2.8-2
	c0.8-0.8,1.4-1.8,1.8-2.9c0.4-1.1,0.6-2.3,0.6-3.6c0-1.3-0.2-2.5-0.6-3.6c-0.4-1.1-1-2.1-1.8-2.9c-0.8-0.8-1.7-1.5-2.8-2
	s-2.3-0.7-3.6-0.7s-2.6,0.2-3.6,0.7c-1.1,0.5-2,1.1-2.8,2s-1.4,1.8-1.8,2.9C266.2,22.9,266,24.1,266,25.4 M261.5,25.4
	c0-1.9,0.3-3.7,1-5.3c0.7-1.6,1.6-2.9,2.8-4.1c1.2-1.1,2.6-2,4.2-2.7c1.6-0.6,3.4-0.9,5.3-0.9c1.9,0,3.7,0.3,5.3,0.9
	c1.6,0.6,3,1.5,4.2,2.7c1.2,1.1,2.1,2.5,2.8,4.1c0.7,1.6,1,3.4,1,5.3c0,1.9-0.3,3.7-1,5.3c-0.7,1.6-1.6,2.9-2.8,4.1
	c-1.2,1.1-2.6,2-4.2,2.7c-1.6,0.6-3.4,0.9-5.3,0.9s-3.7-0.3-5.3-0.9c-1.6-0.6-3-1.5-4.2-2.7c-1.2-1.1-2.1-2.5-2.8-4.1
	C261.8,29.1,261.5,27.3,261.5,25.4 M235.3,34.3c-0.6,0.1-1.3,0.2-1.9,0.2c-0.9,0-1.6-0.1-2.1-0.4c-0.5-0.3-0.9-0.7-1.1-1.2
	c-0.2-0.5-0.4-1.1-0.4-1.8s-0.1-1.4-0.1-2.2V16.5h5.8c0.8,0,1.5-0.7,1.5-1.5v-0.5c0-0.8-0.7-1.5-1.5-1.5h-5.8h-4.1h-3.9
	c-0.8,0-1.5,0.7-1.5,1.5V15c0,0.8,0.7,1.5,1.5,1.5h3.9v13.6c0,1.3,0.1,2.4,0.2,3.5s0.5,1.9,1,2.6c0.5,0.7,1.2,1.2,2.1,1.6
	c0.9,0.4,2.1,0.6,3.6,0.6c0.8,0,1.6-0.1,2.5-0.2c0.5-0.1,0.9-0.2,1.3-0.3c0.6-0.2,1.1-0.8,1-1.5l0-0.7
	C237.1,34.8,236.2,34.1,235.3,34.3C235.3,34.3,235.3,34.3,235.3,34.3 M201.7,34.6c0.2,0,0.4,0,0.6-0.1c1.4-0.1,2.8-0.6,3.7-1.8
	c0.9-1.2,1.4-2.8,1.4-4.9V15.1c0-1.1,0.9-2.1,2.1-2.1c1.1,0,2.1,0.9,2.1,2.1v13.2c0,1.5-0.2,2.8-0.6,4.1c-0.4,1.2-0.9,2.3-1.7,3.2
	c-0.8,0.9-1.8,1.6-2.9,2.1c-1.8,0.7-3.8,0.9-5.7,0.8c-1.9,0-3.8-0.1-5.5-0.8c-1.2-0.5-2.2-1.2-2.9-2.1c-0.8-0.9-1.4-1.9-1.7-3.2
	c-0.4-1.2-0.6-2.6-0.6-4.1V15.1c0-1.1,0.9-2.1,2.1-2.1c1.1,0,2.1,0.9,2.1,2.1v12.8c0,2.1,0.5,3.7,1.4,4.9
	C196.8,34.6,199.5,34.8,201.7,34.6 M308.1,16.9c-0.2,0-0.4,0-0.6,0.1c-1.4,0.1-2.8,0.6-3.7,1.8c-0.9,1.2-1.4,2.8-1.4,4.9v12.8
	c0,1.1-0.9,2.1-2.1,2.1c-1.1,0-2.1-0.9-2.1-2.1V23.2c0-1.5,0.2-2.8,0.6-4.1c0.4-1.2,0.9-2.3,1.7-3.2s1.8-1.6,2.9-2.1
	c1.8-0.7,3.8-0.9,5.7-0.8c1.9,0,3.8,0.1,5.5,0.8c1.2,0.5,2.2,1.2,3,2.1c0.8,0.9,1.4,1.9,1.7,3.2c0.4,1.2,0.6,2.6,0.6,4.1v13.2
	c0,1.1-0.9,2.1-2.1,2.1c-1.1,0-2.1-0.9-2.1-2.1V23.6c0-2.1-0.5-3.7-1.4-4.9C313,16.8,310.4,16.7,308.1,16.9 M92,19.8
	c-0.6-1.6-1.4-3-2.4-4.1c-1-1.1-2.3-2-3.7-2.5c-1.5-0.6-3.1-0.9-4.8-0.9c-1.8,0-3.5,0.3-5.1,0.9c-1.6,0.6-2.9,1.5-4,2.7
	c-1.1,1.1-2,2.5-2.7,4.1c-0.6,1.6-1,3.4-1,5.3c0,1.8,0.3,3.5,0.9,5.1c0.6,1.6,1.4,3,2.5,4.1c1.1,1.2,2.4,2.1,4,2.8
	c1.6,0.7,3.3,1,5.3,1c2.3,0,4.4-0.4,6.2-1.1c1.1-0.5,2.2-1.2,3.3-2.2c0.7-0.7,0.9-1.8,0.4-2.7c-0.7-1-2.1-1.1-3-0.3
	c-0.7,0.7-1.4,1.2-2.2,1.6c-1.2,0.6-2.8,0.9-4.6,0.9c-1.1,0-2.2-0.2-3.1-0.6s-1.8-1-2.5-1.7c-0.7-0.7-1.3-1.6-1.7-2.5
	c-0.4-1-0.7-2-0.8-3c-0.1-0.8-0.2-2.2,0-3.5h0c0.3-2.1,1.1-3.8,2.6-5.1c1.4-1.3,3.3-1.9,5.6-1.9c2.3,0,4.1,0.6,5.4,1.9
	c1.3,1.3,2,3,2.1,5.1h-9.8c-1,0-1.8,0.8-1.8,1.7c0,1,0.8,1.7,1.8,1.7h12.9c0.7,0,1.3-0.6,1.3-1.3C92.8,23.3,92.5,21.4,92,19.8
	 M178.6,34.3L178.6,34.3c-0.6,0.1-1.3,0.2-1.9,0.2c-0.9,0-1.6-0.1-2.1-0.4c-0.5-0.3-0.9-0.7-1.1-1.2c-0.2-0.5-0.4-1.1-0.4-1.8
	s-0.1-1.4-0.1-2.2V14.4c0-1.1-0.9-2.1-2.1-2.1c-1.1,0-2.1,0.9-2.1,2.1v15.6c0,1.3,0.1,2.4,0.2,3.5c0.2,1,0.5,1.9,1,2.6
	c0.5,0.7,1.2,1.3,2.1,1.6c0.9,0.4,2.1,0.6,3.6,0.6c0.8,0,1.6-0.1,2.5-0.2c0.4-0.1,0.9-0.2,1.2-0.3c0.7-0.2,1.1-0.8,1.1-1.5l0-0.6
	C180.4,34.8,179.5,34.1,178.6,34.3"/>
<g>
	<rect x="0" y="61.8" class="st3" width="18.9" height="3"/>
	<path class="st3" d="M11.6,53.7L0,54.7v3l14.7-1.4C13.8,55.7,12.7,54.8,11.6,53.7"/>
	<path class="st3" d="M8,49.2c-0.6-0.8-1.1-1.7-1.6-2.7L0,47.7v3L8,49.2z"/>
	<path class="st3" d="M3.9,39.5L0,40.6v3l4.6-1.3C4.3,41.4,4.1,40.5,3.9,39.5"/>
	<path class="st3" d="M3.3,35.3c-0.1-0.8-0.1-1.5-0.1-2.3c0-0.2,0-0.4,0-0.6L0,33.5v3L3.3,35.3z"/>
	<path class="st3" d="M3.6,27.8c0.2-1.2,0.5-2.3,0.8-3.4l-4.4,2v3L3.6,27.8z"/>
	<path class="st3" d="M10.4,13.6L0,19.4v3l6.8-3.8C7.9,16.7,9.1,15,10.4,13.6"/>
	<polygon class="st3" points="18.9,0 0,12.3 0,15.3 18.9,3 	"/>
</g>
</svg>
