<?xml version="1.0" encoding="utf-8"?>
<!-- Generator: Adobe Illustrator 24.0.0, SVG Export Plug-In . SVG Version: 6.00 Build 0)  -->
<svg version="1.1" id="Layer_1" xmlns="http://www.w3.org/2000/svg" xmlns:xlink="http://www.w3.org/1999/xlink" x="0px" y="0px"
	 viewBox="0 0 120 120" style="enable-background:new 0 0 120 120;" xml:space="preserve">
<style type="text/css">
	.st0{fill:#6AC398;}
	.st1{fill:#FFFFFF;}
</style>
<circle class="st0" cx="60" cy="60" r="60"/>
<path class="st1" d="M44.8,77.8c0.2,0.2,0.5,0.3,0.7,0.3s0.5-0.1,0.7-0.3l3.2-3.2c2.9,2.5,6.5,3.8,10.2,3.8c4.2,0,8.4-1.6,11.6-4.9
	c8.5-8.5,8.1-28.4,8-29.3c0-0.5-0.5-1-1-1c-0.9,0-21.1-0.2-29.3,8.1c-6.1,6.1-6.5,15.7-1,21.8l-3.2,3.2
	C44.4,76.8,44.4,77.4,44.8,77.8z M69.8,72.2c-5.3,5.3-13.6,5.7-19,1l3.3-3.3l17.2,0.4C70.9,71,70.4,71.6,69.8,72.2z M76,58.5
	l-10.2-0.3l11.5-11.5C77.2,49.4,76.9,53.8,76,58.5z M72.6,68.4L56.1,68l7.8-7.8l11.7,0.3C74.9,63.3,73.9,66,72.6,68.4z M64.4,56.8
	l-0.3-10.1c4.6-0.9,9.1-1.3,11.7-1.4L64.4,56.8z M62.4,58.8l-7.8,7.8l-0.4-16.5c2.4-1.3,5.1-2.2,7.9-2.9L62.4,58.8z M50.4,52.8
	c0.5-0.5,1.1-1,1.8-1.5l0.4,17.2l-3.3,3.3C44.8,66.4,45.1,58.1,50.4,52.8z"/>
<path class="st1" d="M61.9,20.8c-22.1,0-40,17.9-40,40c0,11.7,5,22.6,13.8,30.2H31c-0.6,0-1,0.4-1,1s0.4,1,1,1h7.4c0.6,0,1-0.4,1-1
	v-7.2c0-0.6-0.4-1-1-1c-0.6,0-1,0.4-1,1v5.1c-8.6-7.3-13.5-17.8-13.5-29.1c0-21,17-38,38-38s38,17,38,38s-17,38-38,38
	c-0.6,0-1,0.4-1,1s0.4,1,1,1c22.1,0,40-17.9,40-40S84,20.8,61.9,20.8z"/>
</svg>
