<?xml version="1.0" encoding="UTF-8"?>
<svg width="1200pt" height="1200pt" version="1.1" viewBox="0 0 1200 1200" xmlns="http://www.w3.org/2000/svg">
 <g fill="#333031">
  <path d="m1004.4 546v-276c0-35.008-13.906-68.582-38.66-93.34-24.754-24.754-58.328-38.66-93.34-38.66h-3.6016l0.003906-70.801c0-9.5469-3.793-18.703-10.547-25.453-6.75-6.7539-15.906-10.547-25.453-10.547h-126c-9.5469 0-18.707 3.793-25.457 10.547-6.75 6.75-10.543 15.906-10.543 25.453v70.801h-291.6v-70.801c0-9.5469-3.793-18.703-10.543-25.453-6.75-6.7539-15.91-10.547-25.457-10.547h-126c-9.5469 0-18.703 3.793-25.453 10.547-6.7539 6.75-10.547 15.906-10.547 25.453v70.801h-3.6016 0.003906c-35.012 0-68.586 13.906-93.34 38.66-24.754 24.758-38.66 58.332-38.66 93.34v646.8c0 35.008 13.906 68.582 38.66 93.336 24.754 24.758 58.328 38.664 93.34 38.664h375.6c42.461 48.637 97.867 84.211 159.76 102.58 61.895 18.371 127.73 18.781 189.86 1.1836 62.117-17.598 117.96-52.48 161.02-100.58 43.066-48.105 71.578-107.45 82.223-171.13 10.645-63.68 2.9805-129.07-22.102-188.57-25.078-59.492-66.543-110.64-119.56-147.48zm-261.6-442.8h54v109.2h-54zm-489.6 0h54v109.2h-54zm-75.602 106.8h3.6016v38.398c0 9.5508 3.793 18.707 10.547 25.457 6.75 6.75 15.906 10.543 25.453 10.543h126c9.5469 0 18.707-3.793 25.457-10.543s10.543-15.906 10.543-25.457v-38.398h291.6v38.398c0 9.5508 3.793 18.707 10.543 25.457s15.91 10.543 25.457 10.543h126c9.5469 0 18.703-3.793 25.453-10.543 6.7539-6.75 10.547-15.906 10.547-25.457v-38.398h3.6016-0.003906c15.914 0 31.176 6.3203 42.43 17.574 11.25 11.25 17.57 26.512 17.57 42.426v66h-813.6v-66c0-15.914 6.3203-31.176 17.574-42.426 11.25-11.254 26.512-17.574 42.426-17.574zm0 766.8h0.003906c-15.914 0-31.176-6.3203-42.43-17.574-11.25-11.254-17.57-26.512-17.57-42.426v-508.8h814.8v100.8c-63.793-23.863-133.27-28.062-199.48-12.059-66.203 16.004-126.09 51.48-171.95 101.85-45.848 50.371-75.555 113.32-85.281 180.74-9.7266 67.414 0.96875 136.2 30.707 197.47zm633.6 120c-71.148-0.32031-139.27-28.836-189.43-79.297-50.16-50.461-78.27-118.75-78.164-189.9 0.10938-71.152 28.418-139.36 78.73-189.67 50.312-50.312 118.52-78.625 189.67-78.73 71.152-0.10547 139.45 28 189.91 78.164 50.461 50.16 78.977 118.28 79.293 189.43 0 71.398-28.281 139.89-78.656 190.5-50.375 50.598-118.74 79.188-190.14 79.504z"/>
  <path d="m832.8 814.8v-168h-72v204c0 9.5469 3.793 18.703 10.543 25.453 6.75 6.7539 15.91 10.547 25.457 10.547h164.4v-72z"/>
 </g>
</svg>
