<?xml version="1.0" encoding="UTF-8"?>
<svg width="1200pt" height="1200pt" version="1.1" viewBox="0 0 1200 1200" xmlns="http://www.w3.org/2000/svg">
 <g fill="#333031">
  <path d="m1160 480h-500v-325.56c12.336-7.0898 19.957-20.215 20-34.441v-80c0-10.609-4.2148-20.781-11.715-28.285-7.5039-7.5-17.676-11.715-28.285-11.715h-600c-10.609 0-20.781 4.2148-28.285 11.715-7.5 7.5039-11.715 17.676-11.715 28.285v80c0.042969 14.227 7.6641 27.352 20 34.441v1005.6c0 10.609 4.2148 20.781 11.715 28.285 7.5039 7.5 17.676 11.715 28.285 11.715h1100c10.609 0 20.781-4.2148 28.285-11.715 7.5-7.5039 11.715-17.676 11.715-28.285v-640c0-10.609-4.2148-20.781-11.715-28.285-7.5039-7.5-17.676-11.715-28.285-11.715zm-1120-440h600v80h-600zm20 120h560v1e3h-120v-240c0-10.609-4.2148-20.781-11.715-28.285-7.5039-7.5-17.676-11.715-28.285-11.715h-240c-10.609 0-20.781 4.2148-28.285 11.715-7.5 7.5039-11.715 17.676-11.715 28.285v240h-120zm160 760h100v240h-100zm140 240v-240h100v240zm300 0v-640h500v640z"/>
  <path d="m540 820c10.609 0 20.781-4.2148 28.285-11.715 7.5-7.5039 11.715-17.676 11.715-28.285v-80c0-10.609-4.2148-20.781-11.715-28.285-7.5039-7.5-17.676-11.715-28.285-11.715h-400c-10.609 0-20.781 4.2148-28.285 11.715-7.5 7.5039-11.715 17.676-11.715 28.285v80c0 10.609 4.2148 20.781 11.715 28.285 7.5039 7.5 17.676 11.715 28.285 11.715zm-260-40v-80h120v80zm260 0h-100v-80h100zm-400-80h100v80h-100z"/>
  <path d="m140 600h400c10.609 0 20.781-4.2148 28.285-11.715 7.5-7.5039 11.715-17.676 11.715-28.285v-80c0-10.609-4.2148-20.781-11.715-28.285-7.5039-7.5-17.676-11.715-28.285-11.715h-400c-10.609 0-20.781 4.2148-28.285 11.715-7.5 7.5039-11.715 17.676-11.715 28.285v80c0 10.609 4.2148 20.781 11.715 28.285 7.5039 7.5 17.676 11.715 28.285 11.715zm140-40v-80h120v80zm260 0h-100v-80h100zm-400-80h100v80h-100z"/>
  <path d="m140 380h400c10.609 0 20.781-4.2148 28.285-11.715 7.5-7.5039 11.715-17.676 11.715-28.285v-80c0-10.609-4.2148-20.781-11.715-28.285-7.5039-7.5-17.676-11.715-28.285-11.715h-400c-10.609 0-20.781 4.2148-28.285 11.715-7.5 7.5039-11.715 17.676-11.715 28.285v80c0 10.609 4.2148 20.781 11.715 28.285 7.5039 7.5 17.676 11.715 28.285 11.715zm140-40v-80h120v80zm260 0h-100v-80h100zm-400-80h100v80h-100z"/>
  <path d="m910 580c-91.5 0-190 25.039-190 80v360c0 54.961 98.5 80 190 80s190-25.039 190-80v-360c0-54.961-98.5-80-190-80zm0 480c-97.441 0-150-28.398-150-40v-68.52c47.293 20.43 98.512 30.168 150 28.52 51.488 1.6484 102.71-8.0898 150-28.52v68.52c0 11.602-52.559 40-150 40zm0-120c-97.441 0-150-28.398-150-40v-68.52c47.293 20.43 98.512 30.168 150 28.52 51.488 1.6484 102.71-8.0898 150-28.52v68.52c0 11.602-52.559 40-150 40zm0-120c-97.441 0-150-28.398-150-40v-68.52c47.293 20.43 98.512 30.168 150 28.52 51.488 1.6484 102.71-8.0898 150-28.52v68.52c0 11.602-52.559 40-150 40zm0-120c-97.441 0-150-28.398-150-40s52.559-40 150-40 150 28.398 150 40-52.559 40-150 40z"/>
 </g>
</svg>
