<?xml version="1.0" encoding="UTF-8" standalone="no"?>
<!DOCTYPE svg PUBLIC "-//W3C//DTD SVG 1.1//EN" "http://www.w3.org/Graphics/SVG/1.1/DTD/svg11.dtd">
<svg width="100%" height="100%" viewBox="0 0 416 416" version="1.1" xmlns="http://www.w3.org/2000/svg" xmlns:xlink="http://www.w3.org/1999/xlink" xml:space="preserve" xmlns:serif="http://www.serif.com/" style="fill-rule:evenodd;clip-rule:evenodd;stroke-linejoin:round;stroke-miterlimit:2;">
    <g transform="matrix(0.9226,0,0,0.9226,-0.11923,-0.405824)">
        <path d="M225.129,0.44C349.31,0.44 450.129,101.259 450.129,225.44C450.129,349.621 349.31,450.44 225.129,450.44C100.948,450.44 0.129,349.621 0.129,225.44C0.129,101.259 100.948,0.44 225.129,0.44ZM158.967,370.05L98.96,370.05L98.96,176.808L158.967,176.808L158.967,370.05ZM383.621,370.05L323.678,370.05L323.678,275.981C323.678,253.562 323.226,224.812 292.479,224.812C261.28,224.812 256.499,249.169 256.499,274.366L256.499,370.05L196.556,370.05L196.556,176.808L254.109,176.808L254.109,203.168L254.949,203.168C262.96,187.985 282.53,171.963 311.726,171.963C372.457,171.963 383.621,211.955 383.621,263.899L383.621,370.05ZM128.931,150.448C109.743,150.448 94.179,134.555 94.179,115.366C94.179,96.302 109.867,80.614 128.931,80.614C147.996,80.614 163.684,96.302 163.684,115.366C163.684,134.555 148.113,150.448 128.931,150.448Z" style="fill:white;"/>
    </g>
</svg>
