<?xml version="1.0" encoding="utf-8"?>
<!-- Generator: Adobe Illustrator 24.0.0, SVG Export Plug-In . SVG Version: 6.00 Build 0)  -->
<svg version="1.1" id="Capa_1" xmlns="http://www.w3.org/2000/svg" xmlns:xlink="http://www.w3.org/1999/xlink" x="0px" y="0px"
	 viewBox="0 0 100 100" style="enable-background:new 0 0 100 100;" xml:space="preserve">
<style type="text/css">
	.st0{fill:#FFFFFF;}
</style>
<g>
	<g id="post-linkedin">
		<path class="st0" d="M90,0H10C4.5,0,0,4.5,0,10v80c0,5.5,4.5,10,10,10h80c5.5,0,10-4.5,10-10V10C100,4.5,95.5,0,90,0z M30,85H15
			V40h15V85z M22.5,31.5c-5,0-9-4-9-9s4-9,9-9s9,4,9,9S27.5,31.5,22.5,31.5z M85,85H70V58.5c0-4-3.5-7.5-7.5-7.5S55,54.5,55,58.5V85
			H40V40h15v6c2.5-4,8-7,12.5-7C77,39,85,47,85,56.5V85L85,85z"/>
	</g>
</g>
</svg>
