<?xml version="1.0" encoding="UTF-8" standalone="no"?>
<!DOCTYPE svg PUBLIC "-//W3C//DTD SVG 1.1//EN" "http://www.w3.org/Graphics/SVG/1.1/DTD/svg11.dtd">
<svg width="100%" height="100%" viewBox="0 0 7288 10967" version="1.1" xmlns="http://www.w3.org/2000/svg" xmlns:xlink="http://www.w3.org/1999/xlink" xml:space="preserve" xmlns:serif="http://www.serif.com/" style="fill-rule:evenodd;clip-rule:evenodd;stroke-miterlimit:10;">
    <path d="M162.389,9004.28L35.497,9053.1L30.097,9151.1L112.736,9286.21L182.285,9286.21L187.701,9102.77L211.174,9042.23L162.389,9004.28ZM366.052,8835.32L321.33,8884.99L398.57,8927.02L366.052,8835.32ZM295.167,8813.15L221.538,8883.66L286.139,8871.92L295.167,8813.15ZM270.323,8735.9L410.774,8623L506.486,8607.16L600.896,8507.79L756.729,8448.59L918.83,8202.82L1085.96,8145.41L1201.12,8046.03L1211.5,7972.39L1310.84,7852.27L1310.84,7632.65L1394.42,7533.27L1614.32,7517.44L1666.69,7371.07L1771.04,7266.28L1886.19,7245.48L1948.99,7124.85L1870.41,6947.32L1766.09,6816.28L1776.45,6680.32L1760.67,6471.12L1697.88,6497.32L1666.69,6722.34L1687.53,6931.49L1577.74,6863.31L1666.69,7004.68L1661.3,7109.51L1541.16,7250.93L1446.75,7240.06L1316.26,7391.85L1305.91,7501.62L1159.12,7585.67L1012.81,7894.25L803.674,8098.46L688.517,8113.81L583.726,8312.6L500.219,8339.25L291.087,8611.24L254.507,8684.42L270.323,8735.9ZM2041.57,7118.53L2095.32,7076.52L2119.23,7017.34L2161.24,7082.88L2219.07,7130.27L2216.33,7212.48L2107.53,7217.94L2004.99,7208.86L2041.57,7118.53ZM1949.44,6022.06L2096.66,6063.6L2144.11,6171.17L2088.97,6208.17L2041.57,6273.67L1976.09,6273.67L1934.09,6108.34L1949.44,6022.06ZM2038.87,5956.55L1973.36,5880.22L1923.71,5773.11L1970.69,5712.59L2086.3,5731.1L2173.01,5827.8L2319.73,5859.4L2350.91,5935.32L2288.15,6008.97L2193.78,5966.95L2038.87,5956.55ZM3694.95,10142.3L3700.34,10213.3L3786.61,10344.3L3870.64,10370.4L4054.42,10205.6L4067.51,10152.7L3986.26,10124.2L3896.82,10066.4L3823.64,10131.9L3694.95,10142.3ZM3920.78,9961.17L3768.99,9798.96L3868.37,9594.78L3910.36,9385.56L3863.37,9280.74L3993.92,9123.55L4135.26,9087.4L4240.05,8982.58L4375.97,9024.17L4579.69,8982.58L4517.34,8861.97L4585.1,8731.38L4752.64,8658.18L4836.14,8532.63L4951.35,8521.78L5144.61,8684.42L5155.01,8924.75L5004.61,9154.26L5133.31,9025.96L5271.96,8991.62L5437.7,8905.32L5515.86,8658.18L5667.62,8595.41L5741.23,8757.61L5829.74,8715.6L5845.53,8600.35L5788.16,8558.81L5861.32,8276.01L6018.05,8339.24L6107.03,8407.02L6143.61,8339.24L6143.61,8150.4L6195.99,8140.01L6305.74,8260.65L6311.14,8150.4L6248.4,7868.03L6253.35,7705.87L6368.49,7732.05L6415.94,7721.65L6447.06,7841.83L6645.8,8004.03L6786.68,8145.4L6881.09,8061.86L6876.13,8171.65L6980.47,8328.41L6980.47,8511.81L6881.09,8496.03L6860.33,8574.17L6943.89,8679.02L7001.23,8684.42L6990.83,8772.96L6996.25,8945.98L7048.63,8861.97L7069.39,9029.59L7069.39,9191.78L7148,9311.92L7231.54,9448.41L7257.76,9683.72L7184.58,9877.11L7124.98,9872.58L7127.65,9961.59L7078,9867.16L6996.25,9880.25L6970.05,9966.99L7022.46,10179.3L7007.1,10339.3L7001.7,10441.4L6951.98,10341.6L6886.07,10121.5L6891.47,9990.51L6823.28,9880.25L6788.95,9736.15L6686.91,9592.05L6589.77,9649.42L6410.95,9958.89L6382.03,10076.8L6508.05,10171.3L6587.11,10362.8L6652.6,10454.5L6644.91,10603.6L6445.26,10860.6L6342.78,10936.6L6298.07,10879.1L6251.07,10742.7L6303.49,10658.7L6256.49,10598.6L6182.91,10653.7L6164.37,10732.3L6046.51,10800.5L5896.56,10737.8L5770.59,10622.1L5608,10622.1L5471.61,10464.9L5448.12,10344.3L5345.59,10207.8L5377.24,10116.6L5361.4,10003.6L5293.19,9922.32L5358.68,9838.24L5350.99,9762.37L5408.8,9733.46L5534.84,9780.87L5419.22,9667.94L5390.31,9545.02L5253.94,9432.11L5130.64,9405.93L4994.22,9285.27L4926.06,9282.59L4868.24,9345.84L4899.41,9411.34L4852.44,9474.12L4928.31,9586.6L4870.52,9578.96L4755.31,9492.19L4679.01,9503.04L4716.06,9413.6L4642.43,9387.37L4587.34,9432.11L4576.47,9563.13L4506.06,9518.37L4440.1,9555.44L4395.38,9513.43L4427.01,9363.86L4329.91,9272.18L4251.33,9308.79L4172.76,9487.21L4088.73,9560.41L3980.8,9864.47L3920.78,9961.17ZM6749.65,7418.95L6720.76,7576.19L6697.29,7634.04L6768.21,7728.46L6870.26,7691.85L6817.88,7552.72L6749.65,7418.95ZM6647.58,7741.54L6629.07,7822.4L6691.85,7890.63L6718.07,7801.66L6647.58,7741.54ZM6487.3,7694.54L6521.61,7529.19L6424.51,7408.59L6421.82,7272.16L6474.16,7238.24L6437.58,7156.92L6366.68,7188.57L6340.52,7348.03L6421.82,7526.52L6400.59,7615.48L6432.2,7683.72L6487.3,7694.54ZM6513.47,6988.85L6424.51,6934.21L6429.49,7015.55L6479.61,7049.42L6513.47,6988.85ZM6492.72,6852.89L6558.19,6834.38L6516.19,6787.39L6461.09,6795.08L6492.72,6852.89ZM5778.68,6493.71L5631.89,6543.43L5500.5,6486.02L5403.4,6488.74L5458.48,6627.46L5461.21,6774.28L5550.19,6863.31L5621.07,6790.11L5705.1,6868.71L5694.68,7057.07L5762.91,7188.57L5786.35,7400.91L5904.7,7482.25L5917.79,7280.25L5996.37,7387.82L6122.37,7353.45L6135.46,7240.98L6007.22,7023.22L5910.1,6954.99L5886.19,6734.96L5804.91,6553.79L5778.68,6493.71ZM5901.97,6472.46L6020.31,6546.14L6062.3,6645.96L6277.29,6659.09L6319.28,6679.87L6353.59,6643.26L6429.49,6677.14L6361.28,6588.12L6316.56,6457.11L6237.98,6386.17L6248.4,6179.26L6222.18,5919.96L6237.98,5840.89L6177.46,5796.62L6056.89,5631.28L5980.59,5497.54L5894.28,5489.85L5846.89,5513.36L5778.68,5479.49L5702.37,5494.85L5652.72,5547.68L5508.62,5542.25L5392.98,5544.99L5332.51,5516.09L5329.77,5613.19L5442.7,5843.62L5626.47,5990.41L5791.82,6184.26L5865.39,6231.66L5844.18,6297.2L5775.98,6386.17L5755.19,6420.51L5823.4,6394.33L5849.61,6433.65L5901.97,6472.46ZM5597.58,6268.27L5568.68,6407.4L5455.81,6420.51L5350.98,6349.59L5426.89,6291.76L5597.58,6268.27ZM5697.37,8006.29L5826.12,8111.08L5804.91,8236.67L5700.12,8168.5L5671.19,8079.47L5697.37,8006.29ZM6106.57,7426.62L6177.46,7558.11L6180.19,7667.89L6080.38,7552.72L6106.57,7426.62ZM5442.7,7405.86L5526.7,7403.17L5605.72,7476.8L5618.38,7631.31L5563.28,7728.46L5345.59,7827.8L5164.49,7838.69L5177.58,7770.46L5107.15,7673.29L5193.38,7555.42L5442.7,7405.86ZM4996.49,8077.23L5041.19,8113.81L5028.12,8197.4L4912.51,8244.83L4820.79,8176.59L4862.82,8092.58L4996.49,8077.23ZM4632.01,7841.83L4611.26,7559.45L4700.22,7146.08L4830.72,7010.08L4836.14,6889.94L4726.42,6805.89L4658.22,6847.92L4564.34,6800.48L4449.13,6879.07L4449.13,7015.08L4365.6,7146.08L4391.32,7339.45L4313.22,7507.07L4082.86,7564.44L4020.1,7653.44L4062.1,7878.43L4161.47,7894.24L4328.57,7999.03L4475.34,8009.45L4480.31,8176.59L4590.03,8234.43L4721,8155.82L4726.42,8024.8L4632.01,7841.83ZM4783.8,7910.08L4893.55,7784.49L4945.88,7475.44L5144.61,7250.93L5181.18,7109.5L5160.41,6978.48L5212.82,6889.94L5207.41,6612.54L5129.25,6643.74L5081.84,6905.3L4945.88,7124.85L4930.13,7292.45L4867.3,7501.62L4757.58,7637.63L4752.63,7789.4L4783.8,7910.08ZM5421.9,6941.9L5416.49,7083.27L5366.82,7010.08L5421.9,6941.9ZM4193.52,6976.24L4072.96,7015.55L4028.24,7159.64L4112.23,7232.82L4238.24,7101.81L4245.91,7010.08L4193.52,6976.24ZM3831.33,7072.91L3783.91,7133.43L3718.45,7159.64L3661.03,6915.65L3713.45,6742.63L3708.03,6493.7L3739.66,6357.28L3742.34,6218.57L3671,6200.09L3521.94,6144.92L3550.43,6055.91L3700.34,6016.66L3839.47,6155.79L3944.21,6200.09L3918.05,6257.91L3997.07,6265.58L4148.81,6255.16L4251.33,6284.09L4338.05,6417.84L4432.42,6299.92L4519.12,6244.76L4584.61,6349.59L4560.67,6472.45L4482.09,6533.03L4411.21,6687.54L4238.24,6832.11L4180.44,6928.81L4104.09,6928.81L4086.03,6976.24L3991.66,6970.82L3831.33,7072.91ZM4539.89,6016.66L4658.22,5825.53L4765.72,5814.71L4920.65,6013.91L5099,6087.56L5214.61,6074.47L5214.61,5985.46L5127.91,5872.54L4904.82,5728.38L4807.72,5709.87L4681.74,5591.95L4629.33,5597.37L4642.42,5549.94L4539.89,5518.78L4545.3,5676.01L4574.21,5793.9L4510.98,5849.03L4508.31,5932.59L4539.89,6016.66ZM4778.79,5492.58L4820.79,5565.77L4936.4,5678.69L4999.19,5678.69L4878.6,5526.45L4778.79,5492.58ZM4506.05,5217L4358.79,5067.89L4303.74,5080.98L4301,5165.04L4490.23,5369.24L4524.54,5301L4506.05,5217ZM4054.42,5578.86L3988.93,5626.29L4007.01,5709.87L4143.85,5699.49L4154.19,5628.55L4054.42,5578.86ZM3715.72,5458.25L3655.62,5599.64L3566.26,5722.96L3642.56,5911.81L3731.52,5882.89L3786.61,5702.21L3736.94,5573.91L3771.26,5408.51L3715.72,5458.25ZM3429.82,4910.23L3600.56,5025.89L3631.73,4944.54L3692.21,4871.38L3618.59,4748.03L3484.96,4698.36L3409.05,4803.13L3429.82,4910.23ZM5190.65,4315.67L5119.76,4370.34L5146.41,4532.99L5104.41,4645.48L5054.28,4685.27L5119.76,4763.86L5311.74,4724.52L5364.09,4572.28L5295.93,4425.46L5190.65,4315.67ZM2309.85,4823.03L2341.43,4891.26L2440.8,4885.79L2477.38,5058.41L2576.72,5094.99L2670.63,5220.61L2670.63,5445.58L2785.84,5513.36L2791.25,5644.36L2932.18,5816.94L3052.73,5838.17L3183.23,5727.98L3183.23,5612.72L3251.45,5565.77L3251.45,5440.18L3178.29,5330.37L3230.68,5230.98L3230.68,5099.94L3083.91,5042.58L2780.39,4775.61L2607.89,4817.61L2440.8,4754.78L2309.85,4823.03ZM2060.07,4506.78L2075.89,4608.86L2254.26,4685.27L2290.84,4648.65L2157.18,4506.78L2060.07,4506.78ZM3345.37,3588.34L3418.53,3781.66L3397.79,3844.47L3423.95,3943.86L3523.33,3849.89L3539.16,3629.87L3612.32,3556.67L3517.91,3488.9L3345.37,3588.34ZM3471.8,4137.23L3495.29,4257.84L3600.57,4317.94L3574.35,4205.41L3471.8,4137.23ZM3204,4084.82L3316.94,4173.84L3385.1,4315.67L3550.43,4373.08L3666.03,4333.76L3697.61,4218.55L3891.85,4064.04L4033.17,4061.31L4248.6,4197.75L4335.31,4368.06L4316.8,4519.85L4385.01,4593.51L4482.09,4530.27L4471.73,4388.84L4534.96,4336.45L4616.26,4475.58L4789.21,4483.27L4930.98,4577.7L4962.63,4627.42L4857.37,4643.2L4784.21,4601.2L4712.86,4648.65L4742.21,4774.23L4841.14,5026.76L4836.14,5126.19L4982.51,5126.19L5087.25,5178.6L5207.4,5173.13L5265.2,5251.78L5202.01,5314.56L5217.79,5403.57L5165.82,5612.72L5039.85,5571.17L4919.71,5424.8L5034.87,5356.57L5045.29,5283.38L4925.11,5257.19L4930.13,5309.63L4804.56,5346.2L4642.42,5157.78L4532.68,5121.17L4532.68,4964.44L4475.34,4827.98L4266.23,4749.83L4171.82,4582.23L4077.89,4535.23L3993.92,4451.67L3915.77,4435.84L3894.54,4509.03L4046.28,4775.61L4093.27,5016.4L4035.91,5026.76L3894.54,4786.43L3732.41,4671.24L3675.06,4561.47L3377.01,4440.81L3209.45,4456.62L3146.66,4551.05L3178.29,4650.48L3041.92,4734L2874.78,4566.4L2775.46,4655.41L2660.3,4681.61L2728.46,4561.47L2670.63,4435.84L2587.14,4467.04L2545.1,4613.86L2451.17,4451.67L2466.97,4278.6L2451.17,4195.04L2529.75,4101.1L2686.47,3896.88L2560.93,3802.49L2404.23,3787.07L2398.78,3876.08L2477.39,3959.68L2393.36,4069.45L2299.44,4064.04L2158.07,3881.08L2153.12,3734.71L2095.32,3713.48L2042.91,3755.46L1980.58,3708.46L1975.15,3446.92L1865.43,3248.1L1813.03,3038.95L1865.43,2939.52L1839.25,2887.13L1755.24,2881.71L1718.65,2724.97L1739.87,2546.95L1839.25,2667.14L1964.82,2688.34L2069.11,2630.49L2069.11,2536.55L1953.95,2295.75L2022.14,2123.18L2106.14,1762.19L2100.72,1464.05L2058.72,1286.01L2205.51,992.82L2231.22,830.615L2440.81,757.421L2718.1,809.851L2838.2,945.823L2942.54,1014.05L2979.11,940.858L3183.24,940.858L3282.63,856.848L3293,789.07L3361.19,762.837L3455.11,888.445L3444.75,992.82L3361.19,1092.25L3330.03,1375.03L3460.53,1600.01L3544.09,1631.2L3591.09,1814.61L3664.64,1903.17L3596.49,2243.32L3507.51,2452.99L3549.49,2625.56L3429.4,2818.95L3418.53,2745.75L3465.98,2640.91L3377.01,2693.32L3152.08,2907.96L3099.71,3038.95L3115.5,3201.1L3041.92,3310.93L3016.16,3488.9L3094.26,3551.28L3167.87,3740.11L3261.82,3844.47L3204.45,3928.03L3204,4084.82ZM3141.71,391.487L3052.74,501.279L3136.29,569.057L3193.64,464.682C3193.64,464.682 3136.29,391.487 3141.71,391.487ZM2827.84,30.098L2718.1,108.692L2806.61,187.303L2827.84,30.098ZM2519.38,228.831L2618.71,323.258L2482.35,349.491L2519.38,228.831ZM2613.31,542.876L2796.21,542.876L2681.05,605.636L2613.31,542.876Z" style="fill:white;stroke:white;stroke-width:5.99px;"/>
    <g transform="matrix(1.4148,-0.483424,0.483424,1.4148,-4603.34,-3036.26)">
        <path d="M2988.78,6003.11L1392.75,9397.83" style="fill:none;fill-rule:nonzero;stroke:rgb(140,140,140);stroke-width:34.72px;stroke-miterlimit:4;"/>
        <path d="M2868.05,6051.65L2988.78,6003.11L3028.41,6127.05" style="fill:none;fill-rule:nonzero;stroke:rgb(140,140,140);stroke-width:41.32px;stroke-miterlimit:4;"/>
    </g>
    <g transform="matrix(1,0,0,1,17.2067,92.1934)">
        <g transform="matrix(1,0,0,1,413.801,62.7689)">
            <path d="M1027.83,9876.62C998.669,9889.64 963.879,9896.15 923.46,9896.15C874.09,9896.15 835.637,9882.25 808.104,9854.44C780.57,9826.64 766.803,9787.85 766.803,9738.07C766.803,9687.34 780.672,9648.32 808.409,9620.98C836.146,9593.65 875.717,9579.99 927.122,9579.99C959.946,9579.99 992.566,9583.85 1024.98,9591.59L1024.98,9640.62C988.225,9627.73 957.437,9621.29 932.616,9621.29C900.877,9621.29 876.395,9631.36 859.17,9651.5C841.944,9671.64 833.332,9700.23 833.332,9737.26C833.332,9773.61 842.589,9801.95 861.103,9822.3C879.617,9842.64 905.353,9852.82 938.312,9852.82C967.88,9852.82 997.72,9845.36 1027.83,9830.44L1027.83,9876.62Z" style="fill:rgb(140,140,140);fill-rule:nonzero;"/>
        </g>
        <g transform="matrix(1,0,0,1,413.801,62.7689)">
            <path d="M1174.9,9864.62C1154.83,9884.02 1133.33,9893.71 1110.41,9893.71C1090.88,9893.71 1075.01,9887.75 1062.8,9875.81C1050.59,9863.87 1044.49,9848.41 1044.49,9829.42C1044.49,9804.74 1054.36,9785.72 1074.09,9772.36C1093.83,9759 1122.07,9752.32 1158.83,9752.32L1174.9,9752.32L1174.9,9731.97C1174.9,9708.78 1161.68,9697.18 1135.23,9697.18C1111.76,9697.18 1088.03,9703.83 1064.02,9717.12L1064.02,9675.61C1091.28,9665.31 1118.27,9660.15 1144.99,9660.15C1203.45,9660.15 1232.68,9683.41 1232.68,9729.94L1232.68,9828.81C1232.68,9846.31 1238.31,9855.06 1249.57,9855.06C1251.6,9855.06 1254.25,9854.79 1257.5,9854.24L1258.92,9888.02C1246.17,9891.82 1234.92,9893.71 1225.15,9893.71C1200.47,9893.71 1184.6,9884.02 1177.55,9864.62L1174.9,9864.62ZM1174.9,9832.27C1174.9,9832.27 1174.9,9786.9 1174.9,9786.9L1160.66,9786.9C1121.73,9786.9 1102.27,9799.11 1102.27,9823.52C1102.27,9831.8 1105.08,9838.75 1110.71,9844.38C1116.34,9850.01 1123.29,9852.82 1131.57,9852.82C1145.67,9852.82 1160.12,9845.97 1174.9,9832.27Z" style="fill:rgb(140,140,140);fill-rule:nonzero;"/>
        </g>
        <g transform="matrix(1,0,0,1,413.801,62.7689)">
            <path d="M1348.61,9888.63L1263.37,9665.24L1326.84,9665.24L1389.3,9826.37L1451.35,9665.24L1494.89,9665.24L1408.83,9888.63L1348.61,9888.63Z" style="fill:rgb(140,140,140);fill-rule:nonzero;"/>
        </g>
        <g transform="matrix(1,0,0,1,413.801,62.7689)">
            <path d="M1523.75,9888.63L1523.75,9665.24L1583.97,9665.24L1583.97,9888.63L1523.75,9888.63ZM1523.75,9627.6L1523.75,9577.35L1583.97,9577.35L1583.97,9627.6L1523.75,9627.6Z" style="fill:rgb(140,140,140);fill-rule:nonzero;"/>
        </g>
        <g transform="matrix(1,0,0,1,413.801,62.7689)">
            <path d="M1757.48,9887.41C1743.1,9891.61 1731.78,9893.72 1723.5,9893.72C1671.28,9893.72 1645.17,9869.3 1645.17,9820.48L1645.17,9702.88L1620.15,9702.88L1620.15,9665.24L1645.17,9665.24L1645.17,9627.6L1705.4,9620.69L1705.4,9665.24L1753.21,9665.24L1753.21,9702.88L1705.4,9702.88L1705.4,9812.54C1705.4,9839.94 1716.59,9853.64 1738.97,9853.64C1744.12,9853.64 1750.29,9852.69 1757.48,9850.79L1757.48,9887.41Z" style="fill:rgb(140,140,140);fill-rule:nonzero;"/>
        </g>
        <g transform="matrix(1,0,0,1,413.801,62.7689)">
            <path d="M1976.16,9881.1C1947.54,9889.51 1920.41,9893.71 1894.78,9893.71C1857.48,9893.71 1828.05,9883.13 1806.48,9861.98C1784.92,9840.82 1774.13,9811.93 1774.13,9775.31C1774.13,9740.72 1784,9712.88 1803.74,9691.79C1823.47,9670.7 1849.55,9660.15 1881.96,9660.15C1914.65,9660.15 1938.52,9670.46 1953.58,9691.08C1968.63,9711.69 1976.16,9744.31 1976.16,9788.94L1837.61,9788.94C1841.68,9831.53 1865.08,9852.82 1907.8,9852.82C1928.01,9852.82 1950.8,9848.14 1976.16,9838.78L1976.16,9881.1ZM1836.8,9754.96L1916.95,9754.96C1916.95,9716.85 1904.68,9697.79 1880.13,9697.79C1855.17,9697.79 1840.73,9716.85 1836.8,9754.96Z" style="fill:rgb(140,140,140);fill-rule:nonzero;"/>
        </g>
    </g>
</svg>
