<?xml version="1.0" encoding="UTF-8" standalone="no"?>
<!DOCTYPE svg PUBLIC "-//W3C//DTD SVG 1.1//EN" "http://www.w3.org/Graphics/SVG/1.1/DTD/svg11.dtd">
<svg width="100%" height="100%" viewBox="0 0 4674 6984" version="1.1" xmlns="http://www.w3.org/2000/svg" xmlns:xlink="http://www.w3.org/1999/xlink" xml:space="preserve" xmlns:serif="http://www.serif.com/" style="fill-rule:evenodd;clip-rule:evenodd;stroke-miterlimit:10;">
    <g transform="matrix(15.3533,0,0,-15.2442,104.061,1249.58)">
        <path d="M0,-294.135L-5.3,-296.174L-5.526,-300.268L-2.074,-305.911L0.831,-305.911L1.057,-298.249L2.038,-295.72L0,-294.135ZM8.507,-287.078L6.639,-289.153L9.865,-290.908L8.507,-287.078ZM5.546,-286.152L2.471,-289.097L5.169,-288.607L5.546,-286.152ZM4.508,-282.925L10.375,-278.209L14.373,-277.548L18.316,-273.397L24.825,-270.924L31.596,-260.659L38.577,-258.261L43.387,-254.11L43.821,-251.034L47.97,-246.016L47.97,-236.843L51.461,-232.692L60.646,-232.031L62.834,-225.917L67.192,-221.54L72.002,-220.671L74.625,-215.633L71.343,-208.217L66.985,-202.744L67.418,-197.065L66.759,-188.327L64.136,-189.421L62.834,-198.82L63.704,-207.556L59.118,-204.708L62.834,-210.613L62.608,-214.992L57.59,-220.899L53.647,-220.445L48.196,-226.785L47.764,-231.37L41.633,-234.881L35.521,-247.77L26.786,-256.3L21.976,-256.941L17.599,-265.244L14.111,-266.357L5.376,-277.718L3.848,-280.775L4.508,-282.925ZM78.492,-215.369L80.737,-213.614L81.736,-211.142L83.491,-213.879L85.906,-215.859L85.792,-219.293L81.247,-219.521L76.964,-219.142L78.492,-215.369ZM74.644,-169.57L80.793,-171.305L82.775,-175.798L80.472,-177.344L78.492,-180.08L75.757,-180.08L74.003,-173.174L74.644,-169.57ZM78.379,-166.834L75.643,-163.645L73.569,-159.172L75.531,-156.644L80.36,-157.417L83.982,-161.456L90.111,-162.776L91.413,-165.947L88.792,-169.023L84.85,-167.268L78.379,-166.834ZM147.552,-341.671L147.778,-344.633L151.381,-350.106L154.891,-351.199L162.567,-344.312L163.114,-342.104L159.72,-340.915L155.984,-338.5L152.928,-341.236L147.552,-341.671ZM156.985,-334.104L150.645,-327.329L154.796,-318.8L156.55,-310.061L154.587,-305.683L160.04,-299.117L165.944,-297.607L170.321,-293.229L175.998,-294.966L184.507,-293.229L181.903,-288.191L184.733,-282.736L191.731,-279.679L195.219,-274.435L200.031,-273.981L208.104,-280.775L208.538,-290.813L202.256,-300.4L207.632,-295.041L213.423,-293.606L220.346,-290.002L223.611,-279.679L229.949,-277.057L233.024,-283.832L236.721,-282.077L237.381,-277.264L234.984,-275.528L238.04,-263.716L244.587,-266.357L248.303,-269.188L249.831,-266.357L249.831,-258.47L252.019,-258.035L256.603,-263.074L256.829,-258.47L254.208,-246.675L254.415,-239.902L259.224,-240.995L261.206,-240.561L262.506,-245.581L270.807,-252.356L276.692,-258.261L280.635,-254.771L280.428,-259.357L284.786,-265.905L284.786,-273.565L280.635,-272.906L279.768,-276.17L283.258,-280.549L285.653,-280.775L285.219,-284.473L285.445,-291.7L287.633,-288.191L288.5,-295.192L288.5,-301.967L291.784,-306.985L295.273,-312.686L296.368,-322.515L293.312,-330.593L290.822,-330.403L290.934,-334.121L288.86,-330.177L285.445,-330.724L284.351,-334.347L286.54,-343.217L285.898,-349.897L285.673,-354.162L283.596,-349.992L280.843,-340.801L281.069,-335.329L278.22,-330.724L276.787,-324.705L272.524,-318.686L268.467,-321.082L260.998,-334.009L259.79,-338.935L265.054,-342.879L268.356,-350.878L271.091,-354.71L270.77,-360.936L262.431,-371.674L258.15,-374.845L256.283,-372.447L254.32,-366.749L256.509,-363.24L254.546,-360.73L251.473,-363.031L250.698,-366.314L245.775,-369.164L239.512,-366.542L234.25,-361.711L227.459,-361.711L221.762,-355.143L220.781,-350.106L216.498,-344.407L217.82,-340.595L217.159,-335.876L214.31,-332.481L217.045,-328.969L216.724,-325.8L219.139,-324.593L224.403,-326.573L219.574,-321.856L218.366,-316.722L212.67,-312.005L207.52,-310.912L201.822,-305.872L198.975,-305.76L196.56,-308.402L197.862,-311.138L195.9,-313.76L199.069,-318.459L196.655,-318.139L191.843,-314.515L188.656,-314.968L190.203,-311.232L187.128,-310.137L184.827,-312.005L184.373,-317.478L181.432,-315.609L178.677,-317.157L176.809,-315.402L178.13,-309.155L174.074,-305.325L170.792,-306.854L167.51,-314.307L164,-317.364L159.492,-330.065L156.985,-334.104ZM275.145,-227.917L273.938,-234.485L272.958,-236.901L275.92,-240.845L280.183,-239.316L277.995,-233.504L275.145,-227.917ZM270.882,-241.391L270.109,-244.769L272.731,-247.619L273.826,-243.902L270.882,-241.391ZM264.187,-239.428L265.62,-232.522L261.564,-227.484L261.452,-221.786L263.638,-220.369L262.11,-216.972L259.149,-218.294L258.056,-224.955L261.452,-232.41L260.565,-236.126L261.885,-238.976L264.187,-239.428ZM265.28,-209.952L261.564,-207.67L261.772,-211.067L263.866,-212.482L265.28,-209.952ZM264.413,-204.273L267.148,-203.5L265.394,-201.537L263.092,-201.858L264.413,-204.273ZM234.588,-189.27L228.457,-191.347L222.969,-188.949L218.913,-189.063L221.214,-194.857L221.328,-200.99L225.044,-204.708L228.005,-201.651L231.515,-204.934L231.08,-212.802L233.93,-218.294L234.909,-227.164L239.852,-230.561L240.399,-222.124L243.681,-226.617L248.944,-225.181L249.491,-220.483L244.134,-211.388L240.078,-208.538L239.079,-199.347L235.684,-191.78L234.588,-189.27ZM239.738,-188.383L244.681,-191.46L246.435,-195.63L255.415,-196.178L257.169,-197.046L258.602,-195.517L261.772,-196.932L258.923,-193.214L257.055,-187.742L253.773,-184.779L254.208,-176.136L253.113,-165.305L253.773,-162.003L251.245,-160.154L246.209,-153.247L243.022,-147.661L239.417,-147.34L237.437,-148.322L234.588,-146.907L231.401,-147.549L229.327,-149.756L223.308,-149.529L218.478,-149.643L215.952,-148.436L215.838,-152.492L220.555,-162.117L228.231,-168.248L235.137,-176.345L238.21,-178.325L237.324,-181.062L234.476,-184.779L233.607,-186.213L236.456,-185.119L237.551,-186.762L239.738,-188.383ZM227.024,-179.854L225.817,-185.666L221.102,-186.213L216.724,-183.251L219.894,-180.835L227.024,-179.854ZM231.192,-252.45L236.57,-256.827L235.684,-262.073L231.307,-259.225L230.099,-255.507L231.192,-252.45ZM248.284,-228.238L251.245,-233.73L251.359,-238.315L247.19,-233.504L248.284,-228.238ZM220.555,-227.37L224.063,-227.258L227.364,-230.333L227.893,-236.787L225.591,-240.845L216.498,-244.995L208.934,-245.449L209.481,-242.599L206.539,-238.541L210.141,-233.618L220.555,-227.37ZM201.917,-255.413L203.784,-256.941L203.238,-260.433L198.409,-262.414L194.578,-259.563L196.334,-256.054L201.917,-255.413ZM186.693,-245.581L185.826,-233.786L189.542,-216.52L194.993,-210.839L195.219,-205.821L190.636,-202.31L187.788,-204.066L183.866,-202.084L179.054,-205.367L179.054,-211.048L175.565,-216.52L176.639,-224.597L173.377,-231.598L163.755,-233.994L161.134,-237.712L162.888,-247.109L167.039,-247.77L174.018,-252.147L180.149,-252.582L180.356,-259.563L184.939,-261.979L190.41,-258.696L190.636,-253.223L186.693,-245.581ZM193.033,-248.431L197.617,-243.185L199.803,-230.277L208.104,-220.899L209.631,-214.992L208.764,-209.519L210.953,-205.821L210.727,-194.234L207.462,-195.537L205.482,-206.462L199.803,-215.633L199.145,-222.634L196.521,-231.37L191.938,-237.051L191.731,-243.391L193.033,-248.431ZM219.686,-207.991L219.46,-213.896L217.385,-210.839L219.686,-207.991ZM168.377,-209.425L163.342,-211.067L161.474,-217.086L164.982,-220.143L170.245,-214.671L170.566,-210.839L168.377,-209.425ZM153.249,-213.463L151.269,-215.991L148.534,-217.086L146.136,-206.895L148.325,-199.668L148.099,-189.27L149.42,-183.572L149.532,-177.778L146.552,-177.006L140.326,-174.702L141.516,-170.984L147.778,-169.344L153.589,-175.156L157.964,-177.006L156.871,-179.421L160.172,-179.742L166.51,-179.307L170.792,-180.515L174.414,-186.101L178.356,-181.176L181.978,-178.872L184.713,-183.251L183.713,-188.383L180.431,-190.913L177.47,-197.367L170.245,-203.405L167.831,-207.444L164.642,-207.444L163.888,-209.425L159.946,-209.199L153.249,-213.463ZM182.845,-169.344L187.788,-161.361L192.278,-160.909L198.749,-169.23L206.199,-172.306L211.028,-171.759L211.028,-168.041L207.406,-163.325L198.088,-157.303L194.032,-156.53L188.77,-151.605L186.581,-151.831L187.128,-149.85L182.845,-148.548L183.071,-155.116L184.279,-160.04L181.638,-162.343L181.526,-165.833L182.845,-169.344ZM192.824,-147.454L194.578,-150.511L199.407,-155.228L202.03,-155.228L196.993,-148.869L192.824,-147.454ZM181.432,-135.943L175.281,-129.715L172.981,-130.262L172.867,-133.773L180.771,-142.302L182.204,-139.452L181.432,-135.943ZM162.567,-151.058L159.832,-153.039L160.587,-156.53L166.303,-156.096L166.735,-153.133L162.567,-151.058ZM148.42,-146.02L145.91,-151.926L142.177,-157.077L145.364,-164.965L149.08,-163.757L151.381,-156.21L149.306,-150.851L150.74,-143.943L148.42,-146.02ZM136.478,-123.13L143.61,-127.961L144.912,-124.563L147.438,-121.507L144.363,-116.355L138.781,-114.28L135.611,-118.656L136.478,-123.13ZM210.027,-98.295L207.066,-100.579L208.179,-107.373L206.425,-112.071L204.331,-113.733L207.066,-117.016L215.085,-115.373L217.271,-109.014L214.424,-102.881L210.027,-98.295ZM89.698,-119.487L91.017,-122.337L95.168,-122.109L96.696,-129.319L100.845,-130.847L104.768,-136.094L104.768,-145.491L109.58,-148.322L109.806,-153.794L115.692,-161.002L120.728,-161.889L126.179,-157.286L126.179,-152.472L129.028,-150.511L129.028,-145.265L125.972,-140.679L128.161,-136.527L128.161,-131.054L122.03,-128.658L109.352,-117.507L102.147,-119.261L95.168,-116.637L89.698,-119.487ZM79.265,-106.278L79.926,-110.542L87.376,-113.733L88.904,-112.204L83.321,-106.278L79.265,-106.278ZM132.951,-67.915L136.007,-75.99L135.14,-78.614L136.233,-82.765L140.384,-78.84L141.045,-69.65L144.101,-66.593L140.158,-63.762L132.951,-67.915ZM138.232,-90.842L139.213,-95.88L143.61,-98.39L142.515,-93.69L138.232,-90.842ZM127.046,-88.653L131.763,-92.371L134.61,-98.295L141.516,-100.693L146.345,-99.051L147.664,-94.239L155.777,-87.785L161.68,-87.671L170.678,-93.37L174.3,-100.484L173.527,-106.824L176.376,-109.901L180.431,-107.259L179.998,-101.352L182.639,-99.163L186.035,-104.975L193.259,-105.296L199.181,-109.24L200.503,-111.317L196.106,-111.976L193.05,-110.222L190.07,-112.204L191.296,-117.449L195.428,-127.997L195.219,-132.15L201.333,-132.15L205.708,-134.339L210.727,-134.111L213.141,-137.396L210.501,-140.018L211.16,-143.736L208.99,-152.472L203.728,-150.737L198.71,-144.623L203.52,-141.773L203.955,-138.716L198.936,-137.622L199.145,-139.812L193.9,-141.34L187.128,-133.47L182.544,-131.941L182.544,-125.394L180.149,-119.694L171.414,-116.43L167.471,-109.429L163.548,-107.466L160.04,-103.976L156.776,-103.315L155.889,-106.372L162.227,-117.507L164.19,-127.564L161.794,-127.997L155.889,-117.959L149.117,-113.147L146.722,-108.562L134.272,-103.522L127.274,-104.183L124.651,-108.127L125.972,-112.28L120.276,-115.769L113.295,-108.768L109.146,-112.486L104.336,-113.58L107.183,-108.562L104.768,-103.315L101.28,-104.618L99.524,-110.751L95.601,-103.976L96.261,-96.747L95.601,-93.257L98.883,-89.333L105.429,-80.803L100.185,-76.86L93.64,-76.216L93.412,-79.934L96.696,-83.426L93.186,-88.011L89.263,-87.785L83.358,-80.143L83.151,-74.029L80.737,-73.142L78.548,-74.896L75.945,-72.933L75.718,-62.008L71.135,-53.704L68.946,-44.968L71.135,-40.815L70.041,-38.626L66.532,-38.4L65.004,-31.853L65.89,-24.417L70.041,-29.438L75.286,-30.323L79.642,-27.907L79.642,-23.983L74.832,-13.925L77.681,-6.717L81.189,8.361L80.963,20.815L79.209,28.251L85.34,40.498L86.414,47.273L95.168,50.33L106.75,48.14L111.767,42.461L116.125,39.611L117.652,42.668L126.179,42.668L130.33,46.177L130.763,49.008L133.612,50.104L137.535,44.857L137.102,40.498L133.612,36.345L132.31,24.533L137.761,15.136L141.251,13.833L143.214,6.172L146.287,2.473L143.44,-11.735L139.723,-20.493L141.477,-27.701L136.461,-35.778L136.007,-32.721L137.989,-28.342L134.272,-30.531L124.877,-39.496L122.69,-44.968L123.349,-51.741L120.276,-56.328L119.2,-63.762L122.462,-66.367L125.537,-74.255L129.461,-78.614L127.065,-82.104L127.046,-88.653ZM124.444,65.615L120.728,61.029L124.218,58.198L126.613,62.558C126.613,62.558 124.218,65.615 124.444,65.615ZM111.334,80.71L106.75,77.427L110.447,74.144L111.334,80.71ZM98.45,72.409L102.599,68.465L96.903,67.369L98.45,72.409ZM102.373,59.292L110.013,59.292L105.203,56.67L102.373,59.292Z" style="fill:white;stroke:white;stroke-width:0.25px;"/>
    </g>
    <g transform="matrix(8.33333,0,0,8.33333,-9493.7,-21558.7)">
        <text x="1266.12px" y="2953.56px" style="font-family:'LucidaGrande-Bold', 'Lucida Grande', sans-serif;font-weight:600;font-size:24px;fill:rgb(4,45,30);">C<tspan x="1282.25px 1295.38px 1308.64px 1315.47px 1324.23px " y="2953.56px 2953.56px 2953.56px 2953.56px 2953.56px ">avite</tspan></text>
    </g>
    <g transform="matrix(8.33333,0,0,8.33333,-9556.28,-21937.2)">
        <text x="1248.15px" y="2894.56px" style="font-family:'LucidaGrande-Bold', 'Lucida Grande', sans-serif;font-weight:600;font-size:24px;fill:rgb(10,127,54);">M<tspan x="1269.01px 1282.2px 1297.04px 1303.91px 1310.79px " y="2894.56px 2894.56px 2894.56px 2894.56px 2894.56px ">anila</tspan></text>
    </g>
    <g transform="matrix(8.33333,0,0,8.33333,-9481.99,-21735.2)">
        <text x="1388.31px" y="2913.56px" style="font-family:'LucidaGrande-Bold', 'Lucida Grande', sans-serif;font-weight:600;font-size:24px;fill:rgb(81,51,95);">L<tspan x="1401.65px 1415.14px 1430.35px 1445.5px 1460.64px " y="2913.56px 2913.56px 2913.56px 2913.56px 2913.56px ">aguna</tspan></text>
    </g>
    <g transform="matrix(8.33333,0,0,8.33333,1722.17,2389.77)">
        <path d="M0,19C5.247,19 9.5,14.747 9.5,9.5C9.5,4.253 5.247,0 0,0C-5.247,0 -9.5,4.253 -9.5,9.5C-9.5,14.747 -5.247,19 0,19" style="fill:rgb(10,127,54);fill-rule:nonzero;"/>
    </g>
    <g transform="matrix(8.33333,0,0,8.33333,1680.51,2523.11)">
        <path d="M0,19C5.247,19 9.5,14.747 9.5,9.5C9.5,4.253 5.247,0 0,0C-5.247,0 -9.5,4.253 -9.5,9.5C-9.5,14.747 -5.247,19 0,19" style="fill:rgb(4,45,30);fill-rule:nonzero;"/>
    </g>
    <g transform="matrix(8.33333,0,0,8.33333,1813.84,2481.44)">
        <path d="M0,19C5.247,19 9.5,14.747 9.5,9.5C9.5,4.253 5.247,0 0,0C-5.247,0 -9.5,4.253 -9.5,9.5C-9.5,14.747 -5.247,19 0,19" style="fill:rgb(81,51,95);fill-rule:nonzero;"/>
    </g>
</svg>
