<?xml version="1.0" encoding="UTF-8" standalone="no"?>
<!DOCTYPE svg PUBLIC "-//W3C//DTD SVG 1.1//EN" "http://www.w3.org/Graphics/SVG/1.1/DTD/svg11.dtd">
<svg width="100%" height="100%" viewBox="0 0 3934 6281" version="1.1" xmlns="http://www.w3.org/2000/svg" xmlns:xlink="http://www.w3.org/1999/xlink" xml:space="preserve" xmlns:serif="http://www.serif.com/" style="fill-rule:evenodd;clip-rule:evenodd;stroke-miterlimit:10;">
    <g transform="matrix(15.8386,0,0,-13.7139,1539.18,1653.42)">
        <path d="M0,-216.866L-4.166,-219.577L-3.753,-223.331L0.43,-226.87L1.688,-221.032L0,-216.866ZM-1.347,-210.723L-6.573,-212.698L-2.802,-213.848L-1.347,-210.723ZM55.515,-139.543L55.929,-144.446L60.003,-147.876L63.02,-147.266L55.515,-139.543ZM-49.52,-263.619L-50.759,-267.373L-49.52,-269.761L-49.825,-275.725L-46.091,-270.822L-46.091,-263.834C-46.091,-263.834 -48.999,-263.511 -49.52,-263.619ZM-28.998,-278.221L-27.955,-284.165L-27.13,-281.041L-27.543,-278.545L-28.998,-278.221ZM-10.864,-306.51L-8.691,-311.108L-6.608,-310.283L-7.433,-306.725L-9.516,-305.684L-10.864,-306.51ZM-26.734,119.208L-23.431,112.436L-15.729,114.305L-10.127,107.641L-8.672,97.654L-13.251,94.332L-9.086,87.056L-4.508,85.386L0.484,89.554L11.096,89.339L11.292,84.345L7.972,77.7L11.292,72.078L11.096,67.498L7.755,63.133L10.252,56.056L10.252,46.069L10.754,30.928L18.672,35.096L25.747,36.766L26.573,42.604L35.729,46.77L45.317,41.76L51.152,42.19L56.144,35.94L68.227,37.178L74.475,50.112L84.046,52.177L96.955,48.854L101.121,40.52L113.618,31.521L120.672,26.312L123.581,20.062L122.558,15.069L120.475,11.53L123.581,4.67L123.169,-3.432L121.714,-7.815L126.921,-11.551L132.954,-18.214L138.359,-18.626L143.349,-20.71L141.483,-23.818L148.754,-28.613L150.01,-32.566L148.125,-39.012L148.539,-42.749L146.456,-48.173L148.539,-52.735L148.125,-63.136L144.391,-67.301L137.532,-70.625L132.542,-66.672L124.424,-67.715L118.177,-66.062L111.946,-66.062L103.831,-68.971L101.336,-66.476L93.022,-66.26L79.503,-70.625L73.882,-70.625L67.869,-79.157L65.982,-87.687L61.207,-94.136L60.579,-105.362L63.074,-116.821L68.065,-119.515L70.777,-125.138L70.148,-135.752L69.358,-140.188L66.826,-139.883L66.504,-143.907L65.409,-144.338L64.546,-142.936L58.549,-137.926L56.269,-137.818L56.378,-135.195L52.787,-133.345L45.173,-125.945L41.026,-124.419L37.777,-127.148L38.422,-128.441L37.883,-129.537L35.37,-127.796L29.176,-126.269L23.412,-127.687L19.373,-126.269L15.027,-126.699L16.554,-122.138L18.402,-120.163L15.782,-115.6L16.231,-107.983L17.847,-106.242L16.321,-102.434L11.329,-101.447L10.342,-100.693L8.492,-101.232L6.428,-99.703L1.956,-101.77L-1.509,-102.092L-3.59,-100.351L-5.44,-102.65L-8.691,-102.686L-10.414,-101.805L-10.414,-103.135L-11.743,-107.051L-6.931,-109.457L-6.069,-114.702L-9.121,-119.712L-8.906,-126.054L-9.983,-129.537L-7.81,-131.298L-8.691,-139.381L-12.82,-144.608L-13.701,-150.516L-17.847,-156.624L-19.373,-178.536L-26.214,-187.356L-26.214,-193.443L-28.944,-199.209L-25.999,-199.748L-25.137,-201.166L-27.849,-204.652L-27.417,-207.274L-25.999,-213.256L-25.999,-217.063L-20.344,-225.343L-23.181,-230.894L-21.438,-233.084L-18.279,-232.203L-17.525,-229.816L-14.688,-226.654L-13.269,-227.642L-8.924,-228.505L-6.411,-230.894L-5.764,-236.875L-3.16,-240.377L-3.699,-246.573L-0.647,-247.669L2.298,-254.081L5.44,-253.973L5.332,-250.813L5.78,-248.424L7.181,-252.895L10.449,-257.673L10.557,-262.47L13.285,-263.996L15.565,-275.869L14.471,-277.485L13.501,-279.567L12.083,-277.61L7.522,-280.645L6.751,-284.776L15.135,-287.938L16.104,-283.7L17.847,-284.903L18.402,-290.022L22.228,-293.202L30.45,-301.32L33.916,-303.959L36.286,-302.289L42.14,-302.937L47.49,-305.002L51.224,-313.336L54.366,-317.448L59.645,-320.825L60.292,-323.61L58.926,-325.046L58.926,-330.255L54.958,-333.164L51.009,-329.824L45.821,-330.452L39.375,-336.074L31.671,-334.205L31.886,-330.04L35.208,-325.872L36.034,-317.557L32.3,-313.819L26.268,-313.819L24.813,-310.479L16.913,-308.199L11.508,-303.42L7.755,-308.199L5.889,-314.825L3.482,-310.91L-8.924,-301.984L-9.336,-299.648L-6.931,-296.81L-6.716,-293.74L-9.768,-293.308L-11.743,-288.513L-17.416,-287.632L-17.416,-283.7L-23.953,-274.969L-28.101,-274.969L-31.386,-264.48L-36.628,-263.619L-36.628,-259.255L-39.897,-256.847L-39.68,-254.009L-45.138,-256.632L-44.923,-262.091L-48.623,-261.661L-51.242,-257.726L-52.77,-247.903L-51.459,-245.28L-52.338,-236.982L-48.623,-235.222L-48.837,-224.085L-45.785,-224.751L-43.612,-220.386L-46.88,-219.72L-42.733,-213.829L-44.043,-211.424L-40.327,-205.963L-43.612,-205.533L-42.41,-196.031L-40.901,-191.702L-38.191,-187.122L-37.365,-179.848L-31.134,-175.266L-24.258,-156.964L-20.936,-154.88L-20.522,-145.307L-24.258,-138.86L-23.844,-130.543L-26.341,-125.335L-27.597,-116.821L-30.919,-113.282L-30.29,-107.032L-31.548,-101.41L-29.465,-96.633L-33.199,-84.366L-41.099,-76.659L-49.843,-69.799L-57.33,-60.441L-57.527,-55.232L-61.693,-45.245L-55.661,-41.725L-54.835,-37.342L-58.155,-22.579L-55.876,-18.411L-50.472,-15.501L-51.083,-9.682L-57.115,-6.772L-58.155,-0.522L-61.496,6.969L-66.056,8.62L-72.915,23.601L-80.42,28.81L-82.071,33.174L-86.238,37.125L-91.012,45.442L-95.375,46.698L-96.004,51.278L-88.517,54.404L-83.112,58.355L-85.195,63.133L-85.195,71.664L-81.031,75.616L-82.485,85.601L-77.905,91.835L-67.096,87.435L-60.435,92.859L-54.079,92.769L-52.195,95.787L-51.998,102.99L-48.352,106.33L-41.062,105.289L-38.872,108.413L-41.996,112.706L-41.89,115.94L-35.425,118.239L-26.968,118.669L-26.734,119.208Z" style="fill:rgb(72,76,77);stroke:white;stroke-width:0.25px;"/>
    </g>
    <g transform="matrix(8.33333,0,0,8.33333,-1996.6,-36363.1)">
        <text x="445.757px" y="4689.56px" style="font-family:'LucidaGrande-Bold', 'Lucida Grande', sans-serif;font-weight:600;font-size:24px;fill:rgb(72,180,92);">B<tspan x="460.167px 473.57px 488.625px 503.75px 518.231px 532.853px " y="4689.56px 4689.56px 4689.56px 4689.56px 4689.56px 4689.56px ">angkok</tspan></text>
    </g>
    <g transform="matrix(8.33333,0,0,8.33333,1529.37,2940.46)">
        <path d="M0,19C5.247,19 9.5,14.747 9.5,9.5C9.5,4.253 5.247,0 0,0C-5.247,0 -9.5,4.253 -9.5,9.5C-9.5,14.747 -5.247,19 0,19" style="fill:rgb(72,180,92);fill-rule:nonzero;"/>
    </g>
</svg>
