<?xml version="1.0" encoding="UTF-8" standalone="no"?>
<!DOCTYPE svg PUBLIC "-//W3C//DTD SVG 1.1//EN" "http://www.w3.org/Graphics/SVG/1.1/DTD/svg11.dtd">
<svg width="100%" height="100%" viewBox="0 0 10146 16259" version="1.1" xmlns="http://www.w3.org/2000/svg" xmlns:xlink="http://www.w3.org/1999/xlink" xml:space="preserve" xmlns:serif="http://www.serif.com/" style="fill-rule:evenodd;clip-rule:evenodd;stroke-miterlimit:10;">
    <g transform="matrix(4.16667,0,0,4.16667,0,0)">
        <g transform="matrix(5.55556,0,0,5.55556,828.803,1026.54)">
            <path d="M0,332.649L-6.39,336.807L-5.757,342.566L0.66,347.994L2.589,339.039L0,332.649ZM-2.066,323.226L-10.082,326.256L-4.298,328.02L-2.066,323.226ZM85.154,214.044L85.789,221.565L92.038,226.826L96.666,225.89L85.154,214.044ZM-75.958,404.363L-77.859,410.121L-75.958,413.784L-76.426,422.933L-70.699,415.412L-70.699,404.693C-70.699,404.693 -75.159,404.197 -75.958,404.363ZM-44.48,426.761L-42.88,435.878L-41.615,431.087L-42.248,427.258L-44.48,426.761ZM-16.664,470.153L-13.331,477.206L-10.136,475.941L-11.401,470.483L-14.597,468.886L-16.664,470.153ZM-41.007,-182.853L-35.941,-172.465L-24.127,-175.332L-15.534,-165.11L-13.302,-149.791L-20.326,-144.696L-13.937,-133.535L-6.915,-130.974L0.742,-137.367L17.02,-137.037L17.321,-129.377L12.228,-119.184L17.321,-110.56L17.02,-103.535L11.895,-96.84L15.725,-85.984L15.725,-70.665L16.496,-47.441L28.641,-53.834L39.493,-56.395L40.76,-65.351L54.805,-71.741L69.511,-64.056L78.462,-64.715L86.119,-55.128L104.653,-57.028L114.237,-76.867L128.918,-80.035L148.719,-74.937L155.109,-62.154L174.278,-48.351L185.098,-40.36L189.56,-30.773L187.991,-23.115L184.796,-17.686L189.56,-7.163L188.928,5.264L186.696,11.987L194.683,17.717L203.937,27.938L212.228,28.57L219.882,31.767L217.02,36.534L228.173,43.889L230.099,49.952L227.208,59.84L227.843,65.572L224.648,73.892L227.843,80.889L227.208,96.843L221.481,103.232L210.96,108.331L203.305,102.267L190.853,103.867L181.271,101.332L171.713,101.332L159.266,105.794L155.439,101.967L142.686,101.635L121.949,108.331L113.327,108.331L104.104,121.418L101.209,134.502L93.885,144.394L92.922,161.614L96.749,179.191L104.404,183.323L108.564,191.948L107.6,208.229L106.388,215.033L102.504,214.565L102.01,220.738L100.33,221.399L99.007,219.248L89.808,211.564L86.311,211.398L86.478,207.375L80.97,204.537L69.291,193.186L62.93,190.845L57.946,195.031L58.935,197.014L58.108,198.695L54.254,196.025L44.753,193.683L35.912,195.858L29.716,193.683L23.05,194.342L25.392,187.346L28.227,184.317L24.208,177.318L24.897,165.634L27.375,162.963L25.035,157.123L17.377,155.608L15.864,154.452L13.026,155.279L9.86,152.933L3,156.104L-2.315,156.598L-5.507,153.927L-8.344,157.454L-13.331,157.509L-15.974,156.158L-15.974,158.198L-18.013,164.205L-10.631,167.895L-9.309,175.94L-13.991,183.625L-13.661,193.353L-15.313,198.695L-11.98,201.397L-13.331,213.795L-19.665,221.813L-21.016,230.875L-27.375,240.244L-29.716,273.855L-40.21,287.384L-40.21,296.721L-44.397,305.565L-39.88,306.392L-38.557,308.567L-42.717,313.914L-42.055,317.936L-39.88,327.112L-39.88,332.951L-31.206,345.652L-35.557,354.167L-32.884,357.525L-28.038,356.174L-26.882,352.513L-22.53,347.663L-20.353,349.178L-13.688,350.502L-9.834,354.167L-8.841,363.341L-4.847,368.712L-5.674,378.216L-0.992,379.898L3.525,389.733L8.344,389.567L8.179,384.72L8.866,381.056L11.015,387.914L16.028,395.243L16.193,402.601L20.378,404.941L23.875,423.153L22.197,425.632L20.709,428.826L18.534,425.824L11.538,430.479L10.355,436.816L23.215,441.666L24.702,435.165L27.375,437.01L28.227,444.862L34.095,449.74L46.707,462.192L52.024,466.24L55.659,463.679L64.638,464.673L72.845,467.84L78.572,480.624L83.392,486.931L91.489,492.111L92.482,496.383L90.386,498.586L90.386,506.576L84.3,511.038L78.242,505.915L70.285,506.878L60.397,515.502L48.58,512.634L48.91,506.246L54.005,499.853L55.272,487.098L49.545,481.365L40.292,481.365L38.061,476.241L25.943,472.744L17.652,465.414L11.895,472.744L9.033,482.908L5.341,476.902L-13.688,463.211L-14.32,459.628L-10.631,455.274L-10.302,450.566L-14.983,449.903L-18.013,442.548L-26.714,441.196L-26.714,435.165L-36.741,421.773L-43.104,421.773L-48.143,405.684L-56.183,404.363L-56.183,397.669L-61.198,393.976L-60.865,389.623L-69.237,393.646L-68.907,402.019L-74.583,401.36L-78.6,395.324L-80.944,380.256L-78.933,376.233L-80.281,363.505L-74.583,360.805L-74.911,343.722L-70.229,344.744L-66.896,338.048L-71.909,337.027L-65.548,327.991L-67.557,324.301L-61.857,315.925L-66.896,315.265L-65.052,300.691L-62.738,294.05L-58.581,287.025L-57.314,275.867L-47.756,268.839L-37.209,240.766L-32.114,237.569L-31.479,222.885L-37.209,212.996L-36.574,200.239L-40.404,192.25L-42.331,179.191L-47.426,173.762L-46.462,164.175L-48.391,155.552L-45.196,148.224L-50.924,129.408L-63.042,117.587L-76.454,107.064L-87.938,92.71L-88.24,84.72L-94.631,69.4L-85.378,64.002L-84.111,57.278L-89.204,34.633L-85.708,28.24L-77.419,23.776L-78.356,14.851L-87.608,10.387L-89.204,0.8L-94.328,-10.69L-101.323,-13.223L-111.844,-36.202L-123.356,-44.192L-125.888,-50.886L-132.28,-56.946L-139.603,-69.704L-146.295,-71.63L-147.26,-78.656L-135.776,-83.451L-127.485,-89.511L-130.68,-96.84L-130.68,-109.925L-124.293,-115.987L-126.523,-131.303L-119.498,-140.866L-102.918,-134.117L-92.701,-142.436L-82.951,-142.298L-80.062,-146.928L-79.759,-157.976L-74.167,-163.1L-62.985,-161.502L-59.626,-166.294L-64.417,-172.879L-64.255,-177.84L-54.338,-181.367L-41.366,-182.026L-41.007,-182.853Z" style="fill:rgb(72,76,77);stroke:white;stroke-width:0.38px;"/>
        </g>
        <g transform="matrix(4.08031,3.74623,3.75726,-4.09233,1409.77,1579.22)">
            <path d="M-42.376,-108.814L279.412,-108.814" style="fill:none;fill-rule:nonzero;stroke:rgb(101,201,154);stroke-width:3.24px;stroke-miterlimit:4;"/>
        </g>
        <g transform="matrix(0.131372,-0.457297,0.457297,0.131372,-2319.8,2434.32)">
            <path d="M2868.05,6051.65L2988.78,6003.11L3028.41,6127.05" style="fill:none;fill-rule:nonzero;stroke:rgb(101,201,154);stroke-width:41.32px;stroke-miterlimit:4;"/>
        </g>
        <g transform="matrix(1,0,0,1,1006.5,-6748.6)">
            <text x="966.159px" y="9996.14px" style="font-weight: 600; font-size: 6.2em; font-family: Raleway,Arial,Helvetica,sans-serif; color: #484C4D">Bangkok</text>
        </g>
    </g>
</svg>
