<?xml version="1.0" encoding="UTF-8" standalone="no"?>
<!DOCTYPE svg PUBLIC "-//W3C//DTD SVG 1.1//EN" "http://www.w3.org/Graphics/SVG/1.1/DTD/svg11.dtd">
<svg width="100%" height="100%" viewBox="0 0 3934 6281" version="1.1" xmlns="http://www.w3.org/2000/svg" xmlns:xlink="http://www.w3.org/1999/xlink" xml:space="preserve" xmlns:serif="http://www.serif.com/" style="fill-rule:evenodd;clip-rule:evenodd;stroke-miterlimit:10;">
    <g transform="matrix(15.8386,0,0,-13.7139,1539.18,1653.42)">
        <path d="M0,-216.866L-4.166,-219.577L-3.753,-223.331L0.43,-226.87L1.688,-221.032L0,-216.866ZM-1.347,-210.723L-6.573,-212.698L-2.802,-213.848L-1.347,-210.723ZM55.515,-139.543L55.929,-144.446L60.003,-147.876L63.02,-147.266L55.515,-139.543ZM-49.52,-263.619L-50.759,-267.373L-49.52,-269.761L-49.825,-275.725L-46.091,-270.822L-46.091,-263.834C-46.091,-263.834 -48.999,-263.511 -49.52,-263.619ZM-28.998,-278.221L-27.955,-284.165L-27.13,-281.041L-27.543,-278.545L-28.998,-278.221ZM-10.864,-306.51L-8.691,-311.108L-6.608,-310.283L-7.433,-306.725L-9.516,-305.684L-10.864,-306.51ZM-26.734,119.208L-23.431,112.436L-15.729,114.305L-10.127,107.641L-8.672,97.654L-13.251,94.332L-9.086,87.056L-4.508,85.386L0.484,89.554L11.096,89.339L11.292,84.345L7.972,77.7L11.292,72.078L11.096,67.498L7.755,63.133L10.252,56.056L10.252,46.069L10.754,30.928L18.672,35.096L25.747,36.766L26.573,42.604L35.729,46.77L45.317,41.76L51.152,42.19L56.144,35.94L68.227,37.178L74.475,50.112L84.046,52.177L96.955,48.854L101.121,40.52L113.618,31.521L120.672,26.312L123.581,20.062L122.558,15.069L120.475,11.53L123.581,4.67L123.169,-3.432L121.714,-7.815L126.921,-11.551L132.954,-18.214L138.359,-18.626L143.349,-20.71L141.483,-23.818L148.754,-28.613L150.01,-32.566L148.125,-39.012L148.539,-42.749L146.456,-48.173L148.539,-52.735L148.125,-63.136L144.391,-67.301L137.532,-70.625L132.542,-66.672L124.424,-67.715L118.177,-66.062L111.946,-66.062L103.831,-68.971L101.336,-66.476L93.022,-66.26L79.503,-70.625L73.882,-70.625L67.869,-79.157L65.982,-87.687L61.207,-94.136L60.579,-105.362L63.074,-116.821L68.065,-119.515L70.777,-125.138L70.148,-135.752L69.358,-140.188L66.826,-139.883L66.504,-143.907L65.409,-144.338L64.546,-142.936L58.549,-137.926L56.269,-137.818L56.378,-135.195L52.787,-133.345L45.173,-125.945L41.026,-124.419L37.777,-127.148L38.422,-128.441L37.883,-129.537L35.37,-127.796L29.176,-126.269L23.412,-127.687L19.373,-126.269L15.027,-126.699L16.554,-122.138L18.402,-120.163L15.782,-115.6L16.231,-107.983L17.847,-106.242L16.321,-102.434L11.329,-101.447L10.342,-100.693L8.492,-101.232L6.428,-99.703L1.956,-101.77L-1.509,-102.092L-3.59,-100.351L-5.44,-102.65L-8.691,-102.686L-10.414,-101.805L-10.414,-103.135L-11.743,-107.051L-6.931,-109.457L-6.069,-114.702L-9.121,-119.712L-8.906,-126.054L-9.983,-129.537L-7.81,-131.298L-8.691,-139.381L-12.82,-144.608L-13.701,-150.516L-17.847,-156.624L-19.373,-178.536L-26.214,-187.356L-26.214,-193.443L-28.944,-199.209L-25.999,-199.748L-25.137,-201.166L-27.849,-204.652L-27.417,-207.274L-25.999,-213.256L-25.999,-217.063L-20.344,-225.343L-23.181,-230.894L-21.438,-233.084L-18.279,-232.203L-17.525,-229.816L-14.688,-226.654L-13.269,-227.642L-8.924,-228.505L-6.411,-230.894L-5.764,-236.875L-3.16,-240.377L-3.699,-246.573L-0.647,-247.669L2.298,-254.081L5.44,-253.973L5.332,-250.813L5.78,-248.424L7.181,-252.895L10.449,-257.673L10.557,-262.47L13.285,-263.996L15.565,-275.869L14.471,-277.485L13.501,-279.567L12.083,-277.61L7.522,-280.645L6.751,-284.776L15.135,-287.938L16.104,-283.7L17.847,-284.903L18.402,-290.022L22.228,-293.202L30.45,-301.32L33.916,-303.959L36.286,-302.289L42.14,-302.937L47.49,-305.002L51.224,-313.336L54.366,-317.448L59.645,-320.825L60.292,-323.61L58.926,-325.046L58.926,-330.255L54.958,-333.164L51.009,-329.824L45.821,-330.452L39.375,-336.074L31.671,-334.205L31.886,-330.04L35.208,-325.872L36.034,-317.557L32.3,-313.819L26.268,-313.819L24.813,-310.479L16.913,-308.199L11.508,-303.42L7.755,-308.199L5.889,-314.825L3.482,-310.91L-8.924,-301.984L-9.336,-299.648L-6.931,-296.81L-6.716,-293.74L-9.768,-293.308L-11.743,-288.513L-17.416,-287.632L-17.416,-283.7L-23.953,-274.969L-28.101,-274.969L-31.386,-264.48L-36.628,-263.619L-36.628,-259.255L-39.897,-256.847L-39.68,-254.009L-45.138,-256.632L-44.923,-262.091L-48.623,-261.661L-51.242,-257.726L-52.77,-247.903L-51.459,-245.28L-52.338,-236.982L-48.623,-235.222L-48.837,-224.085L-45.785,-224.751L-43.612,-220.386L-46.88,-219.72L-42.733,-213.829L-44.043,-211.424L-40.327,-205.963L-43.612,-205.533L-42.41,-196.031L-40.901,-191.702L-38.191,-187.122L-37.365,-179.848L-31.134,-175.266L-24.258,-156.964L-20.936,-154.88L-20.522,-145.307L-24.258,-138.86L-23.844,-130.543L-26.341,-125.335L-27.597,-116.821L-30.919,-113.282L-30.29,-107.032L-31.548,-101.41L-29.465,-96.633L-33.199,-84.366L-41.099,-76.659L-49.843,-69.799L-57.33,-60.441L-57.527,-55.232L-61.693,-45.245L-55.661,-41.725L-54.835,-37.342L-58.155,-22.579L-55.876,-18.411L-50.472,-15.501L-51.083,-9.682L-57.115,-6.772L-58.155,-0.522L-61.496,6.969L-66.056,8.62L-72.915,23.601L-80.42,28.81L-82.071,33.174L-86.238,37.125L-91.012,45.442L-95.375,46.698L-96.004,51.278L-88.517,54.404L-83.112,58.355L-85.195,63.133L-85.195,71.664L-81.031,75.616L-82.485,85.601L-77.905,91.835L-67.096,87.435L-60.435,92.859L-54.079,92.769L-52.195,95.787L-51.998,102.99L-48.352,106.33L-41.062,105.289L-38.872,108.413L-41.996,112.706L-41.89,115.94L-35.425,118.239L-26.968,118.669L-26.734,119.208Z" style="fill:rgb(72,76,77);stroke:white;stroke-width:0.25px;"/>
    </g>
    <g transform="matrix(8.33333,0,0,8.33333,-1879.6,-36457.6)">
        <g>
            <g transform="matrix(1,0,0,1,445.757,4689.56)">
                <g transform="matrix(24,0,0,24,0,0)">
                    <path d="M0.09,-0L0.09,-0.723L0.336,-0.723C0.409,-0.723 0.464,-0.709 0.502,-0.682C0.54,-0.654 0.559,-0.614 0.559,-0.562C0.559,-0.475 0.501,-0.414 0.385,-0.377C0.52,-0.345 0.588,-0.278 0.588,-0.179C0.588,-0.121 0.568,-0.077 0.529,-0.046C0.489,-0.015 0.432,-0 0.358,-0L0.09,-0ZM0.232,-0.422L0.268,-0.422C0.31,-0.422 0.344,-0.432 0.368,-0.453C0.393,-0.474 0.406,-0.502 0.406,-0.538C0.406,-0.571 0.396,-0.594 0.376,-0.606C0.356,-0.618 0.318,-0.624 0.262,-0.624L0.232,-0.624L0.232,-0.422ZM0.232,-0.103L0.264,-0.103C0.327,-0.103 0.371,-0.109 0.395,-0.123C0.419,-0.136 0.431,-0.161 0.431,-0.197C0.431,-0.234 0.415,-0.264 0.383,-0.289C0.351,-0.313 0.31,-0.325 0.261,-0.325L0.232,-0.325L0.232,-0.103Z" style="fill:rgb(72,180,92);fill-rule:nonzero;"/>
                </g>
            </g>
            <g transform="matrix(1,0,0,1,460.167,4689.56)">
                <g transform="matrix(24,0,0,24,0,0)">
                    <path d="M0.353,-0.058C0.305,-0.011 0.253,0.012 0.198,0.012C0.151,0.012 0.113,-0.002 0.084,-0.031C0.055,-0.059 0.04,-0.097 0.04,-0.142C0.04,-0.201 0.064,-0.247 0.111,-0.279C0.158,-0.311 0.226,-0.327 0.314,-0.327L0.353,-0.327L0.353,-0.376C0.353,-0.432 0.321,-0.459 0.258,-0.459C0.201,-0.459 0.145,-0.444 0.087,-0.412L0.087,-0.511C0.152,-0.536 0.217,-0.548 0.281,-0.548C0.422,-0.548 0.492,-0.493 0.492,-0.381L0.492,-0.144C0.492,-0.102 0.505,-0.081 0.532,-0.081C0.537,-0.081 0.543,-0.081 0.551,-0.083L0.555,-0.001C0.524,0.008 0.497,0.012 0.474,0.012C0.414,0.012 0.376,-0.011 0.359,-0.058L0.353,-0.058ZM0.353,-0.135L0.353,-0.244L0.319,-0.244C0.225,-0.244 0.179,-0.215 0.179,-0.156C0.179,-0.136 0.185,-0.12 0.199,-0.106C0.212,-0.093 0.229,-0.086 0.249,-0.086C0.283,-0.086 0.318,-0.102 0.353,-0.135Z" style="fill:rgb(72,180,92);fill-rule:nonzero;"/>
                </g>
                <g transform="matrix(24,0,0,24,14.1094,0)">
                    <path d="M0.09,-0L0.09,-0.536L0.235,-0.536L0.235,-0.435C0.282,-0.511 0.343,-0.548 0.417,-0.548C0.465,-0.548 0.503,-0.533 0.531,-0.503C0.558,-0.473 0.572,-0.431 0.572,-0.379L0.572,-0L0.428,-0L0.428,-0.343C0.428,-0.404 0.408,-0.435 0.367,-0.435C0.321,-0.435 0.277,-0.402 0.235,-0.337L0.235,-0L0.09,-0Z" style="fill:rgb(72,180,92);fill-rule:nonzero;"/>
                </g>
                <g transform="matrix(24,0,0,24,29.8711,0)">
                    <path d="M0.094,0.167L0.106,0.062C0.166,0.089 0.222,0.103 0.276,0.103C0.33,0.103 0.368,0.091 0.392,0.068C0.416,0.046 0.428,0.009 0.428,-0.042L0.428,-0.116C0.393,-0.039 0.334,-0 0.253,-0C0.19,-0 0.139,-0.024 0.102,-0.072C0.064,-0.119 0.045,-0.184 0.045,-0.265C0.045,-0.351 0.066,-0.419 0.108,-0.471C0.15,-0.523 0.206,-0.548 0.276,-0.548C0.331,-0.548 0.381,-0.526 0.428,-0.482L0.443,-0.536L0.573,-0.536L0.573,-0.127C0.573,-0.045 0.568,0.014 0.558,0.05C0.548,0.086 0.529,0.117 0.5,0.142C0.452,0.184 0.384,0.205 0.296,0.205C0.234,0.205 0.167,0.192 0.094,0.167ZM0.428,-0.2L0.428,-0.397C0.393,-0.437 0.356,-0.457 0.318,-0.457C0.282,-0.457 0.253,-0.44 0.231,-0.407C0.21,-0.374 0.199,-0.329 0.199,-0.273C0.199,-0.168 0.233,-0.116 0.3,-0.116C0.347,-0.116 0.389,-0.144 0.428,-0.2Z" style="fill:rgb(72,180,92);fill-rule:nonzero;"/>
                </g>
                <g transform="matrix(24,0,0,24,45.7031,0)">
                    <path d="M0.09,-0L0.09,-0.771L0.235,-0.771L0.235,-0.286L0.244,-0.286L0.435,-0.536L0.555,-0.536L0.379,-0.307L0.61,-0L0.435,-0L0.244,-0.268L0.235,-0.268L0.235,-0L0.09,-0Z" style="fill:rgb(72,180,92);fill-rule:nonzero;"/>
                </g>
                <g transform="matrix(24,0,0,24,60.8906,0)">
                    <path d="M0.315,0.012C0.232,0.012 0.165,-0.013 0.116,-0.064C0.067,-0.114 0.042,-0.182 0.042,-0.268C0.042,-0.355 0.067,-0.423 0.116,-0.473C0.166,-0.523 0.234,-0.548 0.319,-0.548C0.404,-0.548 0.472,-0.523 0.522,-0.473C0.571,-0.423 0.596,-0.355 0.596,-0.269C0.596,-0.181 0.571,-0.112 0.521,-0.063C0.472,-0.013 0.403,0.012 0.315,0.012ZM0.318,-0.078C0.401,-0.078 0.442,-0.142 0.442,-0.269C0.442,-0.327 0.431,-0.373 0.409,-0.407C0.387,-0.441 0.357,-0.458 0.319,-0.458C0.281,-0.458 0.251,-0.441 0.229,-0.407C0.207,-0.373 0.196,-0.327 0.196,-0.268C0.196,-0.21 0.207,-0.164 0.229,-0.129C0.25,-0.095 0.28,-0.078 0.318,-0.078Z" style="fill:rgb(72,180,92);fill-rule:nonzero;"/>
                </g>
                <g transform="matrix(24,0,0,24,76.2188,0)">
                    <path d="M0.09,-0L0.09,-0.771L0.235,-0.771L0.235,-0.286L0.244,-0.286L0.435,-0.536L0.555,-0.536L0.379,-0.307L0.61,-0L0.435,-0L0.244,-0.268L0.235,-0.268L0.235,-0L0.09,-0Z" style="fill:rgb(72,180,92);fill-rule:nonzero;"/>
                </g>
            </g>
        </g>
    </g>
    <g transform="matrix(26.6084,0,0,27.6052,-3583.33,2661.72)">
        <path d="M192.555,11.7C193.758,10.195 196.5,6.548 196.5,4.5C196.5,2.016 194.484,0 192,0C189.516,0 187.5,2.016 187.5,4.5C187.5,6.548 190.242,10.195 191.445,11.7C191.733,12.059 192.267,12.059 192.555,11.7ZM192,3C192.823,3 193.5,3.677 193.5,4.5C193.5,5.323 192.823,6 192,6C191.177,6 190.5,5.323 190.5,4.5C190.5,3.677 191.177,3 192,3Z" style="fill:rgb(72,180,92);fill-rule:nonzero;"/>
    </g>
</svg>
