<?xml version="1.0" encoding="utf-8"?>
<!-- Generator: Adobe Illustrator 24.0.0, SVG Export Plug-In . SVG Version: 6.00 Build 0)  -->
<svg version="1.1" id="Capa_1" xmlns="http://www.w3.org/2000/svg" xmlns:xlink="http://www.w3.org/1999/xlink" x="0px" y="0px"
	 viewBox="0 0 100 100" style="enable-background:new 0 0 100 100;" xml:space="preserve">
<style type="text/css">
	.st0{fill:#FFFFFF;}
</style>
<g>
	<g>
		<path class="st0" d="M100,19.6c-3.7,1.6-7.7,2.7-11.8,3.2c4.3-2.5,7.5-6.5,9-11.3c-4,2.4-8.3,4-13,5c-3.8-4-9.1-6.5-15-6.5
			c-11.3,0-20.5,9.2-20.5,20.5c0,1.6,0.1,3.2,0.5,4.7c-17.1-0.8-32.1-9-42.3-21.4c-1.8,3.1-2.8,6.6-2.8,10.4c0,7.1,3.7,13.4,9.1,17
			c-3.3-0.1-6.5-1-9.3-2.5c0,0.1,0,0.1,0,0.2c0,10,7.1,18.2,16.4,20.1c-1.7,0.4-3.5,0.7-5.4,0.7c-1.3,0-2.6-0.1-3.9-0.4
			c2.7,8.1,10.2,14.1,19.2,14.3c-7,5.4-15.8,8.8-25.4,8.8c-1.7,0-3.3-0.1-4.9-0.3C9,88,19.7,91.3,31.3,91.3C69,91.3,89.7,60,89.7,33
			c0-0.9,0-1.8-0.1-2.7C93.8,27.4,97.2,23.8,100,19.6z"/>
	</g>
</g>
</svg>
