<?xml version="1.0" encoding="UTF-8" standalone="no"?>
<!DOCTYPE svg PUBLIC "-//W3C//DTD SVG 1.1//EN" "http://www.w3.org/Graphics/SVG/1.1/DTD/svg11.dtd">
<svg width="100%" height="100%" viewBox="0 0 3964 5852" version="1.1" xmlns="http://www.w3.org/2000/svg" xmlns:xlink="http://www.w3.org/1999/xlink" xml:space="preserve" xmlns:serif="http://www.serif.com/" style="fill-rule:evenodd;clip-rule:evenodd;stroke-miterlimit:10;">
    <g transform="matrix(8.33333,0,0,8.33333,1017.46,697.021)">
        <path d="M0,534.936L4.871,540.754L3.004,545.332L6.604,552.531L11.501,550.177L13.368,536.992L10.552,535.882L8.036,529.926L0,534.936ZM-120.181,-33.677L-117.151,-36.246L-113.58,-36.87L-111.359,-41.242L-106.596,-45.37L-97.396,-49.064L-91.74,-48.36L-92.28,-41.674L-88.356,-38.603L-82.404,-38.684L-80.916,-47.022L-74.393,-51.815L-65.597,-43.176L-61.026,-49.309L-56.017,-48.997L-53.961,-42.703L-44.247,-47.429L-42.677,-53.871L-31.986,-57.012L-23.518,-52.138L-8.932,-56.944L-9.554,-70.438L-0.163,-75.771L10.5,-75.771L16.452,-81.728L25.843,-74.201L25.843,-68.559L35.587,-66.662L39.347,-61.032L59.074,-61.342L62.511,-56.944L74.122,-61.653L81.646,-55.699L80.074,-47.237L73.823,-46.29L69.414,-30.306L74.445,-28.409L76.935,-19.328L94.498,-13.046L97.013,-6.792L105.457,-3.03L114.199,1.354L123.156,-1.326L126.917,1.652L132.249,0.082L139.963,4.251L139.285,4.088L140.937,7.528L137.988,12.454L133.384,14.431L129.759,14.268L122.236,19.033L114.685,18.518L106.813,20.008L104.513,23.933L106.325,30.185L102.049,33.138L100.424,36.087L96.313,33.624L89.737,35.113L85.65,39.038L82.698,40.204L79.913,36.087L76.962,35.113L76.314,41.176L73.01,45.778L75.31,48.379L74.174,54.957L74.499,61.86L73.338,63.484L75.798,68.573L73.498,72.526L70.226,73.499L63.839,83.679L58.235,83.842L56.126,80.89L55.799,84.49L51.85,87.444L49.415,95.05L45.787,98L45.463,105.905L48.738,106.582L52.039,110.831L47.763,125.315L42.811,132.571L52.039,140.448L51.038,145.078L43.81,147.055L51.391,149.355L64.217,156.907L75.718,168.114L79.993,167.791L85.594,177.646L85.594,182.599L83.944,185.549L87.569,195.431L89.221,200.682L106.325,214.517L115.849,220.12L116.852,223.071L140.204,235.901L161.259,251.362L165.859,259.589L185.263,274.073L191.514,285.281L192.841,292.184L195.493,292.184L195.142,298.113L205.018,308.317L205.018,312.923L207.318,316.547L205.341,320.149L212.921,329.352L214.897,345.245L218.196,347.87L221.633,361.811L224.42,364.6L224.745,372.314L223.285,377.243L226.045,384.634L224.097,387.748L227.209,398.739L227.532,402.853L231.485,404.476L233.433,410.703L238.521,420.718L237.544,427.298L235.569,427.136L235.408,423.832L232.62,420.558L229.021,422.695L229.508,429.438L233.596,433.686L232.785,437.613L228.373,441.077L228.021,446.003L221.145,451.257L227.209,460.436L223.934,468.15L226.721,471.75L220.985,477.164L216.221,478.978L214.897,489.644L210.322,491.458L200.47,501.446L194.059,504.911L185.371,510.977L184.398,518.368L176.522,518.368L171.434,524.105L152.572,535.096L141.26,536.262L136.336,533.796L128.136,535.909L126.484,534.285L127.648,528.843L127.325,523.62L125.348,528.707L124.024,530.819L116.661,528.843L121.56,532.796L121.424,535.909L119.153,537.48L112.009,536.341L123.86,541.811L121.237,545.764L124.509,552.639L118.125,555.943L108.705,548.986L116.661,557.568L115.824,561.845L112.224,566.608L108.461,565.282L104.998,560.193L100.101,561.032L102.372,567.42L102.049,569.56L103.861,572.022L100.424,574.486L98.125,577.762L93.686,578.087L85.325,585.477L81.725,588.102L75.962,587.291L74.014,592.056L72.85,601.234L67.437,606.159L65.298,605.972L65.787,607.946L46.599,616.664L36.262,615.175L42.839,611.087L50.712,607.621L54.962,602.695L50.55,604.507L44.462,601.234L45.463,587.942L46.599,586.613L43.975,585.965L45.626,580.225L44.814,566.446L51.198,555.943L63.35,546.412L67.111,541.999L60.887,544.788L51.687,543.463L45.139,545.601L41.023,542.975L36.938,544.627L28.575,542.327L29.875,540.187L29.552,532.959L27.495,531.443L35.587,521.536L44.974,519.963L49.983,507.431L58.779,507.103L63.459,510.244L83.838,505.238L92.306,510.244L94.498,516.201L108.273,515.254L104.214,506.184L105.785,500.201L97.936,492.054L88.22,489.237L86.353,473.887L95.122,467.607L111.113,468.231L115.498,459.755L128.028,451.609L139.936,448.171L141.828,442.513L148.73,439.697L154.98,426.837L153.411,416.821L156.251,405.208L153.115,396.735L154.98,383.254L147.46,365.712L139.635,361.622L134.469,348.195L135.875,348.142L144.02,343.134L142.747,330.272L139.635,324.318L137.744,313.03L149.975,303.311L149.975,292.968L143.399,292.024L139.936,287.014L141.207,275.399L147.46,269.147L144.644,262.542L136.172,266.006L131.788,264.734L126.457,257.532L116.744,256.911L113.306,252.526L114.877,245.296L108.273,242.48L104.513,243.727L98.882,237.77L97.637,230.243L92.93,222.42L82.266,222.42L76.637,219.58L72.877,209.237L59.399,194.186L60.022,187.609L51.255,175.072L38.698,169.414L27.736,154.362L18.968,153.442L6.116,146.54L-7.364,145.591L-13.639,134.303L-20.539,134.303L-22.408,128.673L-16.155,121.77L-25.222,111.427L-26.495,104.201L-19.891,103.901L-7.364,99.516L0.973,98.107L5.708,93.37L10.717,76.396L16.995,74.204L16.995,68.221L4.599,65.216L4.871,57.474L3.272,48.702L-7.983,46.51L-14.263,38.688L-26.495,38.688L-36.21,44.642L-46.871,41.501L-65.03,41.176L-74.122,26.452L-89.169,12.347L-85.732,5.116L-87.301,-4.275L-95.122,-10.854L-102.32,-21.845L-117.395,-28.114L-120.181,-33.677Z" style="fill:white;stroke:white;stroke-width:0.38px;"/>
    </g>
    <g transform="matrix(8.33333,0,0,8.33333,-11174.1,-52339.3)">
        <text x="1629.08px" y="6890.56px" style="font-family:'LucidaGrande-Bold', 'Lucida Grande', sans-serif;font-weight:600;font-size:24px;fill:rgb(34,47,62);">H<tspan x="1646.69px " y="6890.56px ">o</tspan></text>
        <text x="1667.1px" y="6890.56px" style="font-family:'LucidaGrande-Bold', 'Lucida Grande', sans-serif;font-weight:600;font-size:24px;fill:rgb(34,47,62);">C<tspan x="1683.07px 1697.72px " y="6890.56px 6890.56px ">hi</tspan></text>
        <text x="1709.94px" y="6890.56px" style="font-family:'LucidaGrande-Bold', 'Lucida Grande', sans-serif;font-weight:600;font-size:24px;fill:rgb(34,47,62);">M<tspan x="1730.6px 1737.29px 1751.93px " y="6890.56px 6890.56px 6890.56px ">inh</tspan></text>
        <text x="1771.57px" y="6890.56px" style="font-family:'LucidaGrande-Bold', 'Lucida Grande', sans-serif;font-weight:600;font-size:24px;fill:rgb(34,47,62);">C<tspan x="1787.55px 1794.23px 1802.84px " y="6890.56px 6890.56px 6890.56px ">ity</tspan></text>
    </g>
    <g transform="matrix(8.33333,0,0,8.33333,-11174.1,-52339.3)">
        <text x="1550.65px" y="6417.56px" style="font-family:'LucidaGrande-Bold', 'Lucida Grande', sans-serif;font-weight:600;font-size:24px;fill:rgb(81,51,95);">H<tspan x="1568.54px 1581.81px 1596.74px 1611.23px " y="6417.56px 6417.56px 6417.56px 6417.56px ">anoi</tspan></text>
    </g>
    <g transform="matrix(8.33333,0,0,8.33333,2030.12,4935.74)">
        <path d="M0,19C5.247,19 9.5,14.747 9.5,9.5C9.5,4.253 5.247,0 0,0C-5.247,0 -9.5,4.253 -9.5,9.5C-9.5,14.747 -5.247,19 0,19" style="fill:rgb(34,47,62);fill-rule:nonzero;"/>
    </g>
    <g transform="matrix(8.33333,0,0,8.33333,1430.12,977.41)">
        <path d="M0,19C5.247,19 9.5,14.747 9.5,9.5C9.5,4.253 5.247,0 0,0C-5.247,0 -9.5,4.253 -9.5,9.5C-9.5,14.747 -5.247,19 0,19" style="fill:rgb(81,51,95);fill-rule:nonzero;"/>
    </g>
</svg>
