<?xml version="1.0" encoding="UTF-8" standalone="no"?>
<!DOCTYPE svg PUBLIC "-//W3C//DTD SVG 1.1//EN" "http://www.w3.org/Graphics/SVG/1.1/DTD/svg11.dtd">
<svg width="100%" height="100%" viewBox="0 0 3983 5852" version="1.1" xmlns="http://www.w3.org/2000/svg" xmlns:xlink="http://www.w3.org/1999/xlink" xml:space="preserve" xmlns:serif="http://www.serif.com/" style="fill-rule:evenodd;clip-rule:evenodd;stroke-miterlimit:10;">
    <g transform="matrix(8.33333,0,0,8.33333,1017.42,696.979)">
        <path d="M0,534.936L4.871,540.754L3.004,545.332L6.604,552.531L11.501,550.177L13.368,536.992L10.552,535.882L8.036,529.926L0,534.936ZM-120.181,-33.677L-117.151,-36.246L-113.58,-36.87L-111.359,-41.242L-106.596,-45.37L-97.396,-49.064L-91.74,-48.36L-92.28,-41.674L-88.356,-38.603L-82.404,-38.684L-80.916,-47.022L-74.393,-51.815L-65.597,-43.176L-61.026,-49.309L-56.017,-48.997L-53.961,-42.703L-44.247,-47.429L-42.677,-53.871L-31.986,-57.012L-23.518,-52.138L-8.932,-56.944L-9.554,-70.438L-0.163,-75.771L10.5,-75.771L16.452,-81.728L25.843,-74.201L25.843,-68.559L35.587,-66.662L39.347,-61.032L59.074,-61.342L62.511,-56.944L74.122,-61.653L81.646,-55.699L80.074,-47.237L73.823,-46.29L69.414,-30.306L74.445,-28.409L76.935,-19.328L94.498,-13.046L97.013,-6.792L105.457,-3.03L114.199,1.354L123.156,-1.326L126.917,1.652L132.249,0.082L139.963,4.251L139.285,4.088L140.937,7.528L137.988,12.454L133.384,14.431L129.759,14.268L122.236,19.033L114.685,18.518L106.813,20.008L104.513,23.933L106.325,30.185L102.049,33.138L100.424,36.087L96.313,33.624L89.737,35.113L85.65,39.038L82.698,40.204L79.913,36.087L76.962,35.113L76.314,41.176L73.01,45.778L75.31,48.379L74.174,54.957L74.499,61.86L73.338,63.484L75.798,68.573L73.498,72.526L70.226,73.499L63.839,83.679L58.235,83.842L56.126,80.89L55.799,84.49L51.85,87.444L49.415,95.05L45.787,98L45.463,105.905L48.738,106.582L52.039,110.831L47.763,125.315L42.811,132.571L52.039,140.448L51.038,145.078L43.81,147.055L51.391,149.355L64.217,156.907L75.718,168.114L79.993,167.791L85.594,177.646L85.594,182.599L83.944,185.549L87.569,195.431L89.221,200.682L106.325,214.517L115.849,220.12L116.852,223.071L140.204,235.901L161.259,251.362L165.859,259.589L185.263,274.073L191.514,285.281L192.841,292.184L195.493,292.184L195.142,298.113L205.018,308.317L205.018,312.923L207.318,316.547L205.341,320.149L212.921,329.352L214.897,345.245L218.196,347.87L221.633,361.811L224.42,364.6L224.745,372.314L223.285,377.243L226.045,384.634L224.097,387.748L227.209,398.739L227.532,402.853L231.485,404.476L233.433,410.703L238.521,420.718L237.544,427.298L235.569,427.136L235.408,423.832L232.62,420.558L229.021,422.695L229.508,429.438L233.596,433.686L232.785,437.613L228.373,441.077L228.021,446.003L221.145,451.257L227.209,460.436L223.934,468.15L226.721,471.75L220.985,477.164L216.221,478.978L214.897,489.644L210.322,491.458L200.47,501.446L194.059,504.911L185.371,510.977L184.398,518.368L176.522,518.368L171.434,524.105L152.572,535.096L141.26,536.262L136.336,533.796L128.136,535.909L126.484,534.285L127.648,528.843L127.325,523.62L125.348,528.707L124.024,530.819L116.661,528.843L121.56,532.796L121.424,535.909L119.153,537.48L112.009,536.341L123.86,541.811L121.237,545.764L124.509,552.639L118.125,555.943L108.705,548.986L116.661,557.568L115.824,561.845L112.224,566.608L108.461,565.282L104.998,560.193L100.101,561.032L102.372,567.42L102.049,569.56L103.861,572.022L100.424,574.486L98.125,577.762L93.686,578.087L85.325,585.477L81.725,588.102L75.962,587.291L74.014,592.056L72.85,601.234L67.437,606.159L65.298,605.972L65.787,607.946L46.599,616.664L36.262,615.175L42.839,611.087L50.712,607.621L54.962,602.695L50.55,604.507L44.462,601.234L45.463,587.942L46.599,586.613L43.975,585.965L45.626,580.225L44.814,566.446L51.198,555.943L63.35,546.412L67.111,541.999L60.887,544.788L51.687,543.463L45.139,545.601L41.023,542.975L36.938,544.627L28.575,542.327L29.875,540.187L29.552,532.959L27.495,531.443L35.587,521.536L44.974,519.963L49.983,507.431L58.779,507.103L63.459,510.244L83.838,505.238L92.306,510.244L94.498,516.201L108.273,515.254L104.214,506.184L105.785,500.201L97.936,492.054L88.22,489.237L86.353,473.887L95.122,467.607L111.113,468.231L115.498,459.755L128.028,451.609L139.936,448.171L141.828,442.513L148.73,439.697L154.98,426.837L153.411,416.821L156.251,405.208L153.115,396.735L154.98,383.254L147.46,365.712L139.635,361.622L134.469,348.195L135.875,348.142L144.02,343.134L142.747,330.272L139.635,324.318L137.744,313.03L149.975,303.311L149.975,292.968L143.399,292.024L139.936,287.014L141.207,275.399L147.46,269.147L144.644,262.542L136.172,266.006L131.788,264.734L126.457,257.532L116.744,256.911L113.306,252.526L114.877,245.296L108.273,242.48L104.513,243.727L98.882,237.77L97.637,230.243L92.93,222.42L82.266,222.42L76.637,219.58L72.877,209.237L59.399,194.186L60.022,187.609L51.255,175.072L38.698,169.414L27.736,154.362L18.968,153.442L6.116,146.54L-7.364,145.591L-13.639,134.303L-20.539,134.303L-22.408,128.673L-16.155,121.77L-25.222,111.427L-26.495,104.201L-19.891,103.901L-7.364,99.516L0.973,98.107L5.708,93.37L10.717,76.396L16.995,74.204L16.995,68.221L4.599,65.216L4.871,57.474L3.272,48.702L-7.983,46.51L-14.263,38.688L-26.495,38.688L-36.21,44.642L-46.871,41.501L-65.03,41.176L-74.122,26.452L-89.169,12.347L-85.732,5.116L-87.301,-4.275L-95.122,-10.854L-102.32,-21.845L-117.395,-28.114L-120.181,-33.677Z" style="fill:white;stroke:white;stroke-width:0.38px;"/>
    </g>
    <g transform="matrix(8.33333,0,0,8.33333,-11174.1,-52339.3)">
        <g>
            <g transform="matrix(1,0,0,1,1629.08,6890.56)">
                <g transform="matrix(24,0,0,24,0,0)">
                    <path d="M0.09,-0L0.09,-0.723L0.241,-0.723L0.241,-0.429L0.54,-0.429L0.54,-0.723L0.69,-0.723L0.69,-0L0.54,-0L0.54,-0.33L0.241,-0.33L0.241,-0L0.09,-0Z" style="fill:#074820;;fill-rule:nonzero;"/>
                </g>
            </g>
            <g transform="matrix(1,0,0,1,1646.69,6890.56)">
                <g transform="matrix(24,0,0,24,0,0)">
                    <path d="M0.315,0.012C0.232,0.012 0.165,-0.013 0.116,-0.064C0.067,-0.114 0.042,-0.182 0.042,-0.268C0.042,-0.355 0.067,-0.423 0.116,-0.473C0.166,-0.523 0.234,-0.548 0.319,-0.548C0.404,-0.548 0.472,-0.523 0.522,-0.473C0.571,-0.423 0.596,-0.355 0.596,-0.269C0.596,-0.181 0.571,-0.112 0.521,-0.063C0.472,-0.013 0.403,0.012 0.315,0.012ZM0.318,-0.078C0.401,-0.078 0.442,-0.142 0.442,-0.269C0.442,-0.327 0.431,-0.373 0.409,-0.407C0.387,-0.441 0.357,-0.458 0.319,-0.458C0.281,-0.458 0.251,-0.441 0.229,-0.407C0.207,-0.373 0.196,-0.327 0.196,-0.268C0.196,-0.21 0.207,-0.164 0.229,-0.129C0.25,-0.095 0.28,-0.078 0.318,-0.078Z" style="fill:#074820;;fill-rule:nonzero;"/>
                </g>
            </g>
        </g>
        <g>
            <g transform="matrix(1,0,0,1,1667.1,6890.56)">
                <g transform="matrix(24,0,0,24,0,0)">
                    <path d="M0.672,-0.029C0.602,0.002 0.518,0.018 0.421,0.018C0.303,0.018 0.211,-0.015 0.145,-0.082C0.078,-0.149 0.045,-0.242 0.045,-0.361C0.045,-0.483 0.079,-0.577 0.145,-0.642C0.212,-0.708 0.307,-0.741 0.43,-0.741C0.509,-0.741 0.587,-0.731 0.665,-0.713L0.665,-0.595C0.577,-0.626 0.503,-0.642 0.443,-0.642C0.367,-0.642 0.308,-0.617 0.267,-0.569C0.226,-0.521 0.205,-0.452 0.205,-0.363C0.205,-0.276 0.227,-0.208 0.272,-0.159C0.316,-0.11 0.378,-0.086 0.457,-0.086C0.528,-0.086 0.6,-0.104 0.672,-0.14L0.672,-0.029Z" style="fill:#074820;;fill-rule:nonzero;"/>
                </g>
            </g>
            <g transform="matrix(1,0,0,1,1683.07,6890.56)">
                <g transform="matrix(24,0,0,24,0,0)">
                    <path d="M0.09,-0L0.09,-0.771L0.235,-0.771L0.235,-0.435C0.282,-0.511 0.343,-0.548 0.417,-0.548C0.465,-0.548 0.503,-0.533 0.531,-0.503C0.558,-0.473 0.572,-0.431 0.572,-0.379L0.572,-0L0.428,-0L0.428,-0.343C0.428,-0.404 0.408,-0.435 0.367,-0.435C0.321,-0.435 0.277,-0.402 0.235,-0.337L0.235,-0L0.09,-0Z" style="fill:#074820;;fill-rule:nonzero;"/>
                </g>
                <g transform="matrix(24,0,0,24,15.7617,0)">
                    <path d="M0.09,-0L0.09,-0.536L0.235,-0.536L0.235,-0L0.09,-0ZM0.09,-0.626L0.09,-0.747L0.235,-0.747L0.235,-0.626L0.09,-0.626Z" style="fill:#074820;;fill-rule:nonzero;"/>
                </g>
            </g>
        </g>
        <g>
            <g transform="matrix(1,0,0,1,1709.94,6890.56)">
                <g transform="matrix(24,0,0,24,0,0)">
                    <path d="M0.09,-0L0.09,-0.723L0.29,-0.723L0.463,-0.214L0.643,-0.723L0.817,-0.723L0.817,-0L0.679,-0L0.679,-0.545L0.502,-0.048L0.381,-0.048L0.208,-0.553L0.208,-0L0.09,-0Z" style="fill:#074820;;fill-rule:nonzero;"/>
                </g>
            </g>
            <g transform="matrix(1,0,0,1,1730.6,6890.56)">
                <g transform="matrix(24,0,0,24,0,0)">
                    <path d="M0.09,-0L0.09,-0.536L0.235,-0.536L0.235,-0L0.09,-0ZM0.09,-0.626L0.09,-0.747L0.235,-0.747L0.235,-0.626L0.09,-0.626Z" style="fill:#074820;;fill-rule:nonzero;"/>
                </g>
                <g transform="matrix(24,0,0,24,7.80469,0)">
                    <path d="M0.09,-0L0.09,-0.536L0.235,-0.536L0.235,-0.435C0.282,-0.511 0.343,-0.548 0.417,-0.548C0.465,-0.548 0.503,-0.533 0.531,-0.503C0.558,-0.473 0.572,-0.431 0.572,-0.379L0.572,-0L0.428,-0L0.428,-0.343C0.428,-0.404 0.408,-0.435 0.367,-0.435C0.321,-0.435 0.277,-0.402 0.235,-0.337L0.235,-0L0.09,-0Z" style="fill:#074820;;fill-rule:nonzero;"/>
                </g>
                <g transform="matrix(24,0,0,24,23.5664,0)">
                    <path d="M0.09,-0L0.09,-0.771L0.235,-0.771L0.235,-0.435C0.282,-0.511 0.343,-0.548 0.417,-0.548C0.465,-0.548 0.503,-0.533 0.531,-0.503C0.558,-0.473 0.572,-0.431 0.572,-0.379L0.572,-0L0.428,-0L0.428,-0.343C0.428,-0.404 0.408,-0.435 0.367,-0.435C0.321,-0.435 0.277,-0.402 0.235,-0.337L0.235,-0L0.09,-0Z" style="fill:#074820;;fill-rule:nonzero;"/>
                </g>
            </g>
        </g>
        <g>
            <g transform="matrix(1,0,0,1,1771.57,6890.56)">
                <g transform="matrix(24,0,0,24,0,0)">
                    <path d="M0.672,-0.029C0.602,0.002 0.518,0.018 0.421,0.018C0.303,0.018 0.211,-0.015 0.145,-0.082C0.078,-0.149 0.045,-0.242 0.045,-0.361C0.045,-0.483 0.079,-0.577 0.145,-0.642C0.212,-0.708 0.307,-0.741 0.43,-0.741C0.509,-0.741 0.587,-0.731 0.665,-0.713L0.665,-0.595C0.577,-0.626 0.503,-0.642 0.443,-0.642C0.367,-0.642 0.308,-0.617 0.267,-0.569C0.226,-0.521 0.205,-0.452 0.205,-0.363C0.205,-0.276 0.227,-0.208 0.272,-0.159C0.316,-0.11 0.378,-0.086 0.457,-0.086C0.528,-0.086 0.6,-0.104 0.672,-0.14L0.672,-0.029Z" style="fill:#074820;;fill-rule:nonzero;"/>
                </g>
            </g>
            <g transform="matrix(1,0,0,1,1787.55,6890.56)">
                <g transform="matrix(24,0,0,24,0,0)">
                    <path d="M0.09,-0L0.09,-0.536L0.235,-0.536L0.235,-0L0.09,-0ZM0.09,-0.626L0.09,-0.747L0.235,-0.747L0.235,-0.626L0.09,-0.626Z" style="fill:#074820;;fill-rule:nonzero;"/>
                </g>
                <g transform="matrix(24,0,0,24,7.80469,0)">
                    <path d="M0.367,-0.003C0.332,0.007 0.305,0.012 0.285,0.012C0.16,0.012 0.097,-0.046 0.097,-0.164L0.097,-0.446L0.037,-0.446L0.037,-0.536L0.097,-0.536L0.097,-0.626L0.242,-0.643L0.242,-0.536L0.356,-0.536L0.356,-0.446L0.242,-0.446L0.242,-0.183C0.242,-0.117 0.269,-0.084 0.322,-0.084C0.335,-0.084 0.349,-0.086 0.367,-0.091L0.367,-0.003Z" style="fill:#074820;;fill-rule:nonzero;"/>
                </g>
                <g transform="matrix(24,0,0,24,17.5312,0)">
                    <path d="M0.092,0.193L0.214,-0L0.015,-0.536L0.17,-0.536L0.303,-0.178L0.461,-0.536L0.571,-0.536L0.24,0.193L0.092,0.193Z" style="fill:#074820;;fill-rule:nonzero;"/>
                </g>
            </g>
        </g>
    </g>
    <g transform="matrix(8.33333,0,0,8.33333,-11174.1,-52339.3)">
        <g>
            <g transform="matrix(1,0,0,1,1550.65,6417.56)">
                <g transform="matrix(24,0,0,24,0,0)">
                    <path d="M0.09,-0L0.09,-0.723L0.241,-0.723L0.241,-0.429L0.54,-0.429L0.54,-0.723L0.69,-0.723L0.69,-0L0.54,-0L0.54,-0.33L0.241,-0.33L0.241,-0L0.09,-0Z" style="fill:#074820;;fill-rule:nonzero;"/>
                </g>
            </g>
            <g transform="matrix(1,0,0,1,1568.54,6417.56)">
                <g transform="matrix(24,0,0,24,0,0)">
                    <path d="M0.353,-0.058C0.305,-0.011 0.253,0.012 0.198,0.012C0.151,0.012 0.113,-0.002 0.084,-0.031C0.055,-0.059 0.04,-0.097 0.04,-0.142C0.04,-0.201 0.064,-0.247 0.111,-0.279C0.158,-0.311 0.226,-0.327 0.314,-0.327L0.353,-0.327L0.353,-0.376C0.353,-0.432 0.321,-0.459 0.258,-0.459C0.201,-0.459 0.145,-0.444 0.087,-0.412L0.087,-0.511C0.152,-0.536 0.217,-0.548 0.281,-0.548C0.422,-0.548 0.492,-0.493 0.492,-0.381L0.492,-0.144C0.492,-0.102 0.505,-0.081 0.532,-0.081C0.537,-0.081 0.543,-0.081 0.551,-0.083L0.555,-0.001C0.524,0.008 0.497,0.012 0.474,0.012C0.414,0.012 0.376,-0.011 0.359,-0.058L0.353,-0.058ZM0.353,-0.135L0.353,-0.244L0.319,-0.244C0.225,-0.244 0.179,-0.215 0.179,-0.156C0.179,-0.136 0.185,-0.12 0.199,-0.106C0.212,-0.093 0.229,-0.086 0.249,-0.086C0.283,-0.086 0.318,-0.102 0.353,-0.135Z" style="fill:#074820;;fill-rule:nonzero;"/>
                </g>
                <g transform="matrix(24,0,0,24,14.1094,0)">
                    <path d="M0.09,-0L0.09,-0.536L0.235,-0.536L0.235,-0.435C0.282,-0.511 0.343,-0.548 0.417,-0.548C0.465,-0.548 0.503,-0.533 0.531,-0.503C0.558,-0.473 0.572,-0.431 0.572,-0.379L0.572,-0L0.428,-0L0.428,-0.343C0.428,-0.404 0.408,-0.435 0.367,-0.435C0.321,-0.435 0.277,-0.402 0.235,-0.337L0.235,-0L0.09,-0Z" style="fill:#074820;;fill-rule:nonzero;"/>
                </g>
                <g transform="matrix(24,0,0,24,29.8711,0)">
                    <path d="M0.315,0.012C0.232,0.012 0.165,-0.013 0.116,-0.064C0.067,-0.114 0.042,-0.182 0.042,-0.268C0.042,-0.355 0.067,-0.423 0.116,-0.473C0.166,-0.523 0.234,-0.548 0.319,-0.548C0.404,-0.548 0.472,-0.523 0.522,-0.473C0.571,-0.423 0.596,-0.355 0.596,-0.269C0.596,-0.181 0.571,-0.112 0.521,-0.063C0.472,-0.013 0.403,0.012 0.315,0.012ZM0.318,-0.078C0.401,-0.078 0.442,-0.142 0.442,-0.269C0.442,-0.327 0.431,-0.373 0.409,-0.407C0.387,-0.441 0.357,-0.458 0.319,-0.458C0.281,-0.458 0.251,-0.441 0.229,-0.407C0.207,-0.373 0.196,-0.327 0.196,-0.268C0.196,-0.21 0.207,-0.164 0.229,-0.129C0.25,-0.095 0.28,-0.078 0.318,-0.078Z" style="fill:#074820;;fill-rule:nonzero;"/>
                </g>
                <g transform="matrix(24,0,0,24,45.1992,0)">
                    <path d="M0.09,-0L0.09,-0.536L0.235,-0.536L0.235,-0L0.09,-0ZM0.09,-0.626L0.09,-0.747L0.235,-0.747L0.235,-0.626L0.09,-0.626Z" style="fill:#074820;;fill-rule:nonzero;"/>
                </g>
            </g>
        </g>
    </g>
    <g transform="matrix(26.6084,0,0,27.6052,-3665.84,785.12)">
        <path d="M192.555,11.7C193.758,10.195 196.5,6.548 196.5,4.5C196.5,2.016 194.484,0 192,0C189.516,0 187.5,2.016 187.5,4.5C187.5,6.548 190.242,10.195 191.445,11.7C191.733,12.059 192.267,12.059 192.555,11.7ZM192,3C192.823,3 193.5,3.677 193.5,4.5C193.5,5.323 192.823,6 192,6C191.177,6 190.5,5.323 190.5,4.5C190.5,3.677 191.177,3 192,3Z" style="fill:#074820;;fill-rule:nonzero;"/>
    </g>
    <g transform="matrix(26.6084,0,0,27.6052,-2986.66,4680.31)">
        <path d="M192.555,11.7C193.758,10.195 196.5,6.548 196.5,4.5C196.5,2.016 194.484,0 192,0C189.516,0 187.5,2.016 187.5,4.5C187.5,6.548 190.242,10.195 191.445,11.7C191.733,12.059 192.267,12.059 192.555,11.7ZM192,3C192.823,3 193.5,3.677 193.5,4.5C193.5,5.323 192.823,6 192,6C191.177,6 190.5,5.323 190.5,4.5C190.5,3.677 191.177,3 192,3Z" style="fill:#074820;;fill-rule:nonzero;"/>
    </g>
</svg>
