<?xml version="1.0" encoding="utf-8"?>
<!-- Generator: Adobe Illustrator 24.0.0, SVG Export Plug-In . SVG Version: 6.00 Build 0)  -->
<svg version="1.1" id="Capa_1" xmlns="http://www.w3.org/2000/svg" xmlns:xlink="http://www.w3.org/1999/xlink" x="0px" y="0px"
	 viewBox="0 0 145 100" style="enable-background:new 0 0 145 100;" xml:space="preserve">
<style type="text/css">
	.st0{fill:#FFFFFF;}
</style>
<path class="st0" d="M75.712,99.869l-29.748-0.542c-9.632-0.189-19.288,0.188-28.731-1.77C2.868,94.631,1.851,80.285,0.786,68.252
	c-1.467-16.917-0.899-34.142,1.87-50.918C4.219,7.921,10.37,2.304,19.884,1.693c32.115-2.218,64.443-1.955,96.487-0.92
	c3.384,0.095,6.792,0.613,10.129,1.204c16.472,2.879,16.874,19.136,17.942,32.821c1.065,13.826,0.615,27.724-1.42,41.456
	c-1.633,11.37-4.757,20.905-17.942,21.825c-16.519,1.204-32.66,2.173-49.226,1.864C75.855,99.869,75.76,99.869,75.712,99.869z
	 M58.223,71.083c12.449-7.126,24.66-14.133,37.038-21.212c-12.472-7.126-24.66-14.133-37.038-21.212V71.083z"/>
</svg>
