<?xml version="1.0" encoding="utf-8"?>
<!-- Generator: Adobe Illustrator 24.0.0, SVG Export Plug-In . SVG Version: 6.00 Build 0)  -->
<svg version="1.1" id="Layer_1" xmlns="http://www.w3.org/2000/svg" xmlns:xlink="http://www.w3.org/1999/xlink" x="0px" y="0px"
	 viewBox="0 0 320 66" style="enable-background:new 0 0 320 66;" xml:space="preserve">
<style type="text/css">
	.st0{fill:#FFFFFF;}
	.st1{fill:#868686;}
</style>
<path class="st0" d="M70.513,62.979h1.015c1.016,0,1.856-0.107,2.529-0.317c0.673-0.226,1.28-0.579,1.82-1.069
	c1.112-1.009,1.67-2.322,1.67-3.941c0-1.63-0.547-2.955-1.646-3.97c-0.991-0.908-2.445-1.362-4.373-1.362h-1.015V62.979z
	 M68.248,65.086V50.202h3.142c1.508,0,2.698,0.149,3.569,0.442c0.937,0.286,1.79,0.782,2.553,1.474
	c1.544,1.403,2.319,3.242,2.319,5.523c0,2.286-0.805,4.137-2.415,5.552c-0.811,0.705-1.658,1.2-2.541,1.475
	c-0.829,0.274-2.001,0.412-3.521,0.412h-3.106V65.086z"/>
<path class="st0" d="M91.797,59.36l-2.222-5.063L87.25,59.36H91.797z M92.716,61.474h-6.41l-1.67,3.612h-2.433L89.61,49.27
	l7.148,15.817h-2.475L92.716,61.474z"/>
<polygon class="st0" points="103.919,52.315 103.919,65.086 101.661,65.086 101.661,52.315 98.219,52.315 98.219,50.201 
	107.355,50.201 107.355,52.315 "/>
<path class="st0" d="M118.415,59.36l-2.222-5.063l-2.325,5.063H118.415z M119.34,61.474h-6.41l-1.67,3.612h-2.433l7.407-15.817
	l7.148,15.817h-2.475L119.34,61.474z"/>
<path class="st0" d="M143.243,51.001v2.663c-1.304-1.087-2.655-1.63-4.055-1.63c-1.538,0-2.835,0.549-3.887,1.648
	c-1.058,1.092-1.592,2.43-1.592,4.012c0,1.565,0.529,2.878,1.592,3.953c1.063,1.075,2.361,1.612,3.899,1.612
	c0.793,0,1.472-0.131,2.024-0.388c0.312-0.131,0.631-0.305,0.967-0.519c0.331-0.221,0.685-0.484,1.051-0.788v2.711
	c-1.292,0.728-2.649,1.086-4.073,1.086c-2.138,0-3.965-0.74-5.479-2.227c-1.508-1.499-2.259-3.302-2.259-5.415
	c0-1.893,0.631-3.589,1.893-5.069c1.55-1.821,3.556-2.729,6.025-2.729C140.69,49.915,141.987,50.279,143.243,51.001"/>
<polygon class="st0" points="156.345,52.315 150.343,52.315 150.343,55.892 156.17,55.892 156.17,58.005 150.343,58.005 
	150.343,62.979 156.345,62.979 156.345,65.092 148.079,65.092 148.079,50.207 156.339,50.207 156.339,52.315 "/>
<polygon class="st0" points="161.295,65.086 161.295,49.192 172.216,60.549 172.216,50.208 174.475,50.208 174.475,66 
	163.554,54.674 163.554,65.092 161.295,65.092 "/>
<polygon class="st0" points="184.182,52.315 184.182,65.086 181.923,65.086 181.923,52.315 178.481,52.315 178.481,50.201 
	187.618,50.201 187.618,52.315 "/>
<path class="st0" d="M193.878,57.038h0.715c2.138,0,3.207-0.812,3.207-2.436c0-1.523-1.039-2.287-3.123-2.287h-0.805v4.723H193.878z
	 M196.689,58.745l4.638,6.341h-2.763l-4.277-6.09h-0.409v6.09h-2.259V50.201h2.649c1.976,0,3.406,0.37,4.289,1.11
	c0.967,0.824,1.454,1.911,1.454,3.26c0,1.051-0.306,1.959-0.913,2.717C198.491,58.047,197.687,58.531,196.689,58.745"/>
<polygon class="st0" points="213.828,52.315 207.827,52.315 207.827,55.892 213.654,55.892 213.654,58.005 207.827,58.005 
	207.827,62.979 213.828,62.979 213.828,65.092 205.568,65.092 205.568,50.207 213.828,50.207 "/>
<path class="st0" d="M227.248,52.423l-1.832,1.081c-0.342-0.591-0.666-0.979-0.979-1.158c-0.324-0.203-0.739-0.311-1.249-0.311
	c-0.624,0-1.147,0.179-1.562,0.532c-0.414,0.346-0.618,0.782-0.618,1.313c0,0.728,0.54,1.313,1.628,1.755l1.496,0.609
	c1.214,0.49,2.102,1.087,2.667,1.791c0.565,0.705,0.841,1.565,0.841,2.585c0,1.367-0.456,2.502-1.376,3.391
	c-0.925,0.902-2.073,1.35-3.443,1.35c-1.297,0-2.373-0.383-3.22-1.147c-0.835-0.764-1.352-1.839-1.562-3.23l2.289-0.501
	c0.102,0.872,0.283,1.481,0.541,1.815c0.462,0.645,1.141,0.961,2.037,0.961c0.702,0,1.292-0.233,1.754-0.705
	c0.468-0.466,0.697-1.063,0.697-1.786c0-0.286-0.042-0.555-0.12-0.794c-0.079-0.239-0.205-0.46-0.379-0.663
	c-0.174-0.203-0.39-0.394-0.666-0.567c-0.27-0.179-0.595-0.346-0.967-0.508l-1.447-0.597c-2.049-0.86-3.076-2.119-3.076-3.779
	c0-1.117,0.433-2.054,1.291-2.806c0.859-0.758,1.928-1.135,3.208-1.135C224.93,49.915,226.281,50.751,227.248,52.423"/>
<path class="st0" d="M18.917,52.984l-7.311,0.681c1.1,1.11,2.163,2.012,3.076,2.711l4.235-0.394V52.984z"/>
<path class="st0" d="M7.954,49.198l10.963-2.042v-2.998L6.368,46.494C6.866,47.455,7.401,48.357,7.954,49.198"/>
<path class="st0" d="M4.626,42.32l14.297-4v-2.997L3.875,39.532C4.085,40.499,4.331,41.431,4.626,42.32"/>
<path class="st0" d="M18.917,26.492L3.196,32.355c-0.006,0.209-0.018,0.412-0.018,0.627c0,0.806,0.037,1.582,0.09,2.346
	l15.649-5.839V26.492z"/>
<path class="st0" d="M3.61,27.794l15.307-7.135v-2.997L4.379,24.438C4.067,25.501,3.808,26.617,3.61,27.794"/>
<path class="st0" d="M6.848,18.581l12.074-6.753V8.831l-8.554,4.777C9.149,14.999,7.93,16.658,6.848,18.581"/>
<polygon class="st0" points="60.229,13.261 18.917,0 18.917,2.997 60.229,16.258 "/>
<rect x="18.917" y="61.814" class="st0" width="41.312" height="2.997"/>
<path class="st0" d="M34.343,37.442L34.343,37.442c-0.144,1.015-0.342,1.988-0.571,2.92l26.456,3.642v-2.997L34.343,37.442z"/>
<path class="st0" d="M34.446,29.34c0.114,0.973,0.18,1.988,0.198,3.033l25.585,4.693v-2.997L34.446,29.34z"/>
<path class="st0" d="M32.025,45.353c-0.468,1.015-0.979,1.97-1.52,2.86l29.724,2.729v-2.997L32.025,45.353z"/>
<path class="st0" d="M26.558,53.336c-1.1,1.14-2.163,2.066-3.1,2.806c-0.018,0.018-0.03,0.036-0.042,0.047l36.812,1.69v-2.997
	L26.558,53.336z"/>
<path class="st0" d="M23.951,10.216c1.268,1.039,2.721,2.406,4.151,4.138l32.127,8.843v-2.998L23.951,10.216z"/>
<path class="st0" d="M32.055,20.67c0.468,1.033,0.901,2.125,1.268,3.29l26.906,6.168v-2.998L32.055,20.67z"/>
<path class="st0" d="M112.27,37.735L112.27,37.735c-1.376,0-2.613-0.824-3.13-2.09l-8.133-19.817
	c-0.553-1.349,0.445-2.83,1.916-2.83h0.361c0.847,0,1.61,0.513,1.923,1.296l7.245,18.103h0.108l6.885-18.073
	c0.306-0.8,1.075-1.325,1.934-1.325c1.46,0,2.457,1.463,1.923,2.812l-7.876,19.798C114.907,36.887,113.657,37.735,112.27,37.735"/>
<path class="st0" d="M135.896,25.363c0,1.302,0.204,2.513,0.612,3.618c0.409,1.11,1.003,2.077,1.784,2.908
	c0.781,0.83,1.712,1.48,2.793,1.958c1.081,0.478,2.295,0.711,3.641,0.711c1.346,0,2.559-0.239,3.641-0.711
	c1.081-0.478,2.012-1.128,2.793-1.958c0.781-0.83,1.376-1.797,1.784-2.908c0.408-1.11,0.612-2.317,0.612-3.618
	c0-1.302-0.204-2.514-0.612-3.618c-0.409-1.11-1.003-2.077-1.784-2.908c-0.781-0.83-1.712-1.48-2.793-1.958
	c-1.081-0.478-2.295-0.717-3.641-0.717c-1.346,0-2.559,0.239-3.641,0.717c-1.081,0.478-2.012,1.128-2.793,1.958
	c-0.781,0.83-1.376,1.797-1.784,2.908C136.1,22.856,135.896,24.062,135.896,25.363 M131.427,25.363c0-1.941,0.336-3.702,1.009-5.284
	c0.673-1.588,1.598-2.949,2.763-4.096c1.171-1.147,2.571-2.036,4.199-2.669c1.628-0.633,3.401-0.949,5.316-0.949
	c1.917,0,3.689,0.316,5.316,0.949c1.628,0.633,3.034,1.522,4.199,2.669c1.171,1.146,2.091,2.513,2.763,4.096
	c0.673,1.588,1.009,3.35,1.009,5.284c0,1.941-0.337,3.702-1.009,5.284c-0.673,1.588-1.598,2.949-2.763,4.096
	c-1.171,1.147-2.571,2.036-4.199,2.669c-1.634,0.633-3.406,0.949-5.316,0.949c-1.91,0-3.688-0.317-5.316-0.949
	c-1.634-0.633-3.033-1.522-4.199-2.669c-1.171-1.146-2.091-2.507-2.763-4.096C131.763,29.065,131.427,27.304,131.427,25.363"/>
<path class="st0" d="M248.628,12.998L248.628,12.998c1.147,0,2.073,0.926,2.073,2.06v21.644c0,1.141-0.931,2.06-2.073,2.06
	c-1.147,0-2.072-0.925-2.072-2.06V15.058C246.555,13.918,247.481,12.998,248.628,12.998 M246.555,6.795
	c0-0.549,0.198-1.021,0.601-1.427c0.403-0.406,0.889-0.609,1.472-0.609c0.583,0,1.075,0.203,1.472,0.609
	c0.403,0.406,0.601,0.884,0.601,1.427c0,0.597-0.192,1.081-0.583,1.463c-0.39,0.382-0.883,0.573-1.49,0.573
	c-0.607,0-1.105-0.191-1.49-0.573C246.748,7.875,246.555,7.392,246.555,6.795"/>
<path class="st0" d="M265.965,25.363c0,1.302,0.204,2.513,0.612,3.618c0.409,1.11,1.003,2.077,1.784,2.908
	c0.781,0.83,1.712,1.48,2.793,1.958c1.081,0.478,2.295,0.711,3.641,0.711s2.559-0.239,3.641-0.711
	c1.081-0.478,2.012-1.128,2.793-1.958c0.781-0.83,1.376-1.797,1.784-2.908c0.408-1.11,0.613-2.317,0.613-3.618
	c0-1.302-0.205-2.514-0.613-3.618c-0.409-1.11-1.003-2.077-1.784-2.908c-0.781-0.83-1.712-1.48-2.793-1.958
	c-1.081-0.478-2.295-0.717-3.641-0.717s-2.559,0.239-3.641,0.717c-1.081,0.478-2.012,1.128-2.793,1.958
	c-0.781,0.83-1.376,1.797-1.784,2.908C266.169,22.856,265.965,24.062,265.965,25.363 M261.495,25.363
	c0-1.941,0.336-3.702,1.009-5.284c0.673-1.588,1.598-2.949,2.763-4.096c1.171-1.147,2.571-2.036,4.199-2.669
	c1.628-0.633,3.401-0.949,5.316-0.949c1.917,0,3.689,0.316,5.316,0.949c1.628,0.633,3.034,1.522,4.199,2.669
	c1.171,1.146,2.091,2.513,2.763,4.096c0.673,1.588,1.009,3.35,1.009,5.284c0,1.941-0.337,3.702-1.009,5.284
	c-0.673,1.588-1.598,2.949-2.763,4.096c-1.171,1.147-2.571,2.036-4.199,2.669c-1.634,0.633-3.406,0.949-5.316,0.949
	c-1.91,0-3.688-0.317-5.316-0.949c-1.634-0.633-3.033-1.522-4.199-2.669c-1.172-1.146-2.091-2.507-2.763-4.096
	C261.832,29.065,261.495,27.304,261.495,25.363"/>
<path class="st0" d="M235.28,34.349c-0.637,0.144-1.256,0.209-1.862,0.209c-0.925,0-1.634-0.149-2.127-0.447
	c-0.498-0.298-0.871-0.705-1.117-1.218c-0.246-0.507-0.39-1.11-0.426-1.797c-0.036-0.687-0.054-1.439-0.054-2.245V16.485h5.845
	c0.823,0,1.496-0.662,1.496-1.486v-0.513c0-0.818-0.667-1.487-1.496-1.487h-5.845h-4.145h-3.929c-0.823,0-1.496,0.663-1.496,1.487
	v0.513c0,0.818,0.667,1.486,1.496,1.486h3.929v13.584c0,1.266,0.079,2.424,0.241,3.463c0.162,1.039,0.487,1.911,0.985,2.615
	c0.498,0.705,1.189,1.248,2.073,1.636c0.883,0.388,2.072,0.579,3.563,0.579c0.78,0,1.603-0.072,2.475-0.209
	c0.451-0.071,0.883-0.173,1.292-0.292c0.643-0.191,1.058-0.812,1.028-1.474l-0.03-0.669c-0.042-0.949-0.943-1.582-1.874-1.373
	C235.292,34.343,235.286,34.349,235.28,34.349"/>
<path class="st0" d="M201.729,34.582c0.21-0.018,0.42-0.036,0.625-0.06c1.405-0.149,2.799-0.615,3.682-1.761
	c0.919-1.2,1.382-2.836,1.382-4.914V15.058c0-1.14,0.931-2.06,2.073-2.06c1.148,0,2.072,0.925,2.072,2.06v13.213
	c0,1.481-0.186,2.848-0.559,4.096c-0.372,1.248-0.949,2.317-1.73,3.2c-0.781,0.884-1.76,1.571-2.949,2.06
	c-1.784,0.741-3.785,0.866-5.701,0.818c-1.851-0.042-3.791-0.102-5.521-0.818c-1.189-0.495-2.174-1.182-2.949-2.06
	c-0.781-0.877-1.358-1.947-1.73-3.2c-0.373-1.248-0.559-2.615-0.559-4.096V15.058c0-1.14,0.931-2.06,2.072-2.06
	c1.147,0,2.072,0.925,2.072,2.06v12.789c0,2.078,0.462,3.72,1.382,4.914C196.822,34.618,199.507,34.755,201.729,34.582"/>
<path class="st0" d="M308.136,16.867c-0.21,0.018-0.42,0.036-0.625,0.06c-1.405,0.149-2.799,0.615-3.682,1.761
	c-0.919,1.2-1.382,2.836-1.382,4.914v12.789c0,1.141-0.931,2.06-2.072,2.06c-1.148,0-2.073-0.925-2.073-2.06V23.178
	c0-1.481,0.186-2.848,0.559-4.096c0.372-1.247,0.949-2.317,1.73-3.2c0.781-0.883,1.76-1.57,2.949-2.06
	c1.784-0.741,3.785-0.866,5.701-0.818c1.851,0.042,3.791,0.102,5.521,0.818c1.19,0.495,2.175,1.182,2.95,2.06
	c0.781,0.878,1.358,1.947,1.73,3.2c0.372,1.248,0.559,2.615,0.559,4.096v13.213c0,1.141-0.931,2.06-2.073,2.06
	c-1.147,0-2.072-0.925-2.072-2.06V23.602c0-2.077-0.462-3.72-1.382-4.914C313.038,16.831,310.353,16.694,308.136,16.867"/>
<path class="st0" d="M91.971,19.841c-0.565-1.6-1.376-2.961-2.421-4.072c-1.045-1.11-2.295-1.958-3.748-2.538
	c-1.454-0.579-3.051-0.872-4.788-0.872c-1.845,0-3.544,0.317-5.106,0.949c-1.562,0.633-2.908,1.523-4.043,2.669
	c-1.136,1.146-2.019,2.519-2.662,4.126c-0.637,1.606-0.955,3.356-0.955,5.26c0,1.798,0.295,3.487,0.877,5.075
	c0.583,1.588,1.418,2.961,2.499,4.126c1.081,1.164,2.403,2.09,3.965,2.776c1.562,0.687,3.316,1.033,5.263,1.033
	c2.336,0,4.397-0.382,6.169-1.134c1.147-0.49,2.235-1.218,3.262-2.191c0.739-0.699,0.949-1.839,0.361-2.669
	c-0.727-1.021-2.145-1.146-2.998-0.346c-0.691,0.651-1.436,1.176-2.228,1.582c-1.243,0.633-2.763,0.949-4.571,0.949
	c-1.136,0-2.181-0.209-3.136-0.633c-0.955-0.424-1.79-0.997-2.499-1.72c-0.709-0.722-1.285-1.571-1.73-2.538
	c-0.439-0.955-0.691-1.958-0.769-3.003c-0.084-0.842-0.156-2.185,0.006-3.529h-0.006c0.282-2.114,1.136-3.803,2.553-5.075
	c1.418-1.266,3.28-1.904,5.587-1.904c2.306,0,4.115,0.633,5.424,1.904c1.31,1.266,2.001,2.961,2.073,5.075h-9.798
	c-0.967,0-1.754,0.782-1.754,1.743c0,0.962,0.787,1.744,1.754,1.744h12.933c0.739,0,1.328-0.603,1.328-1.338
	C92.818,23.256,92.536,21.441,91.971,19.841"/>
<path class="st0" d="M178.553,34.349L178.553,34.349c-0.637,0.144-1.262,0.209-1.862,0.209c-0.925,0-1.634-0.149-2.127-0.447
	c-0.498-0.298-0.871-0.705-1.117-1.218c-0.246-0.507-0.39-1.11-0.426-1.797c-0.036-0.687-0.054-1.439-0.054-2.245V14.419
	c0-1.14-0.931-2.06-2.073-2.06c-1.147,0-2.072,0.926-2.072,2.06v15.649c0,1.266,0.079,2.424,0.241,3.463
	c0.162,1.039,0.486,1.911,0.985,2.615c0.498,0.705,1.189,1.254,2.072,1.636c0.883,0.388,2.073,0.579,3.562,0.579
	c0.781,0,1.604-0.072,2.475-0.209c0.439-0.071,0.853-0.161,1.249-0.28c0.661-0.191,1.1-0.818,1.075-1.505l-0.024-0.579
	C180.41,34.833,179.503,34.14,178.553,34.349"/>
<rect x="0.006" y="61.814" class="st1" width="18.917" height="2.997"/>
<path class="st1" d="M11.606,53.664l-11.6,1.081v2.997l14.682-1.367C13.769,55.676,12.706,54.775,11.606,53.664"/>
<path class="st1" d="M7.954,49.198c-0.559-0.836-1.093-1.738-1.586-2.705l-6.362,1.188v2.997L7.954,49.198z"/>
<path class="st1" d="M3.875,39.532l-3.868,1.081v2.997l4.62-1.29C4.331,41.431,4.085,40.499,3.875,39.532"/>
<path class="st1" d="M3.274,35.323c-0.054-0.764-0.09-1.54-0.09-2.346c0-0.215,0.012-0.418,0.018-0.627l-3.19,1.189v2.997
	L3.274,35.323z"/>
<path class="st1" d="M3.61,27.794c0.198-1.176,0.456-2.293,0.769-3.356L0.006,26.48v2.997L3.61,27.794z"/>
<path class="st1" d="M10.369,13.607L0,19.405v2.997l6.843-3.827C7.929,16.658,9.149,14.999,10.369,13.607"/>
<polygon class="st1" points="18.917,0 0.006,12.341 0.006,15.339 18.917,2.997 "/>
</svg>
