<?xml version="1.0" encoding="utf-8"?>
<!-- Generator: Adobe Illustrator 24.0.0, SVG Export Plug-In . SVG Version: 6.00 Build 0)  -->
<svg version="1.1" id="Layer_1" xmlns="http://www.w3.org/2000/svg" xmlns:xlink="http://www.w3.org/1999/xlink" x="0px" y="0px"
	 viewBox="0 0 50 53" style="enable-background:new 0 0 50 53;" xml:space="preserve">
<style type="text/css">
	.st0{fill:#FFFFFF;}
</style>
<path class="st0" d="M6.603,40.232c-0.464-0.684-0.908-1.421-1.316-2.212l-5.281,0.971v2.451L6.603,40.232z"/>
<path class="st0" d="M3.217,32.327l-3.211,0.884v2.451l3.835-1.055C3.595,33.88,3.391,33.118,3.217,32.327"/>
<path class="st0" d="M2.718,28.885c-0.045-0.625-0.075-1.26-0.075-1.919c0-0.176,0.01-0.342,0.015-0.513L0.01,27.425v2.451
	L2.718,28.885z"/>
<path class="st0" d="M2.997,22.728c0.164-0.962,0.379-1.875,0.638-2.744l-3.631,1.67v2.451L2.997,22.728z"/>
<path class="st0" d="M8.608,11.127L0,15.868v2.451l5.68-3.13C6.583,13.622,7.595,12.265,8.608,11.127"/>
<g>
	<path class="st0" d="M15.704,43.328l-6.069,0.557c0.913,0.908,1.795,1.645,2.553,2.217l3.516-0.322V43.328z"/>
	<path class="st0" d="M6.603,40.232l9.101-1.67v-2.451L5.286,38.02C5.7,38.807,6.144,39.544,6.603,40.232"/>
	<path class="st0" d="M3.84,34.607l11.869-3.271v-2.451L3.216,32.327C3.391,33.118,3.596,33.88,3.84,34.607"/>
	<path class="st0" d="M15.704,21.664L2.653,26.458c-0.005,0.171-0.015,0.337-0.015,0.513c0,0.659,0.03,1.294,0.075,1.919
		l12.991-4.775V21.664z"/>
	<path class="st0" d="M2.997,22.728l12.707-5.835v-2.451L3.635,19.984C3.376,20.853,3.162,21.766,2.997,22.728"/>
	<path class="st0" d="M5.685,15.194l10.024-5.522V7.221l-7.102,3.906C7.595,12.265,6.583,13.622,5.685,15.194"/>
	<polygon class="st0" points="50,10.844 15.704,0 15.704,2.451 50,13.295 	"/>
	<rect x="15.704" y="50.549" class="st0" width="34.296" height="2.451"/>
	<path class="st0" d="M28.511,30.618L28.511,30.618c-0.12,0.83-0.284,1.626-0.474,2.388L50,35.984v-2.451L28.511,30.618z"/>
	<path class="st0" d="M28.596,23.993c0.095,0.796,0.15,1.626,0.164,2.48L50,30.311V27.86L28.596,23.993z"/>
	<path class="st0" d="M26.586,37.088c-0.389,0.83-0.813,1.611-1.262,2.339L50,41.658v-2.451L26.586,37.088z"/>
	<path class="st0" d="M22.048,43.616c-0.913,0.932-1.795,1.689-2.573,2.295c-0.015,0.014-0.025,0.029-0.035,0.039L50,47.331V44.88
		L22.048,43.616z"/>
	<path class="st0" d="M19.883,8.354c1.052,0.85,2.259,1.968,3.446,3.384L50,18.969v-2.451L19.883,8.354z"/>
	<path class="st0" d="M26.611,16.903c0.389,0.845,0.748,1.738,1.052,2.69L50,24.638v-2.451L26.611,16.903z"/>
	<rect x="0.005" y="50.549" class="st0" width="15.704" height="2.451"/>
	<path class="st0" d="M9.635,43.884l-9.63,0.884v2.451l12.188-1.118C11.43,45.53,10.548,44.792,9.635,43.884"/>
	<polygon class="st0" points="15.704,0 0.005,10.092 0.005,12.543 15.704,2.451 	"/>
</g>
</svg>
