<?xml version="1.0" encoding="utf-8"?>
<!-- Generator: Adobe Illustrator 24.0.0, SVG Export Plug-In . SVG Version: 6.00 Build 0)  -->
<svg version="1.1" id="Layer_1" xmlns="http://www.w3.org/2000/svg" xmlns:xlink="http://www.w3.org/1999/xlink" x="0px" y="0px"
	 viewBox="0 0 120 120" style="enable-background:new 0 0 120 120;" xml:space="preserve">
<style type="text/css">
	.st0{fill:#6AC398;}
	.st1{fill:#FFFFFF;}
</style>
<circle class="st0" cx="60" cy="60" r="60"/>
<path class="st1" d="M61.9,22.9C41,22.9,24,39.9,24,60.8s17,37.9,37.9,37.9s37.8-17.1,37.8-38S82.8,22.9,61.9,22.9z M61.9,96.5
	c-19.7,0-35.8-16-35.8-35.8s16-35.8,35.8-35.8s35.8,16,35.8,35.8C97.6,80.5,81.6,96.5,61.9,96.5z"/>
<path class="st1" d="M70,38.7H53.7c-0.6,0-1.1,0.5-1.1,1l0,0v42c0,0.6,0.5,1,1.1,1H70c0.6,0,1-0.4,1.1-1v-42
	C71.1,39.1,70.6,38.7,70,38.7L70,38.7z M69,80.7H54.8V40.8H69V80.7z"/>
<path class="st1" d="M62.7,49.2h6.4c0.6-0.1,1-0.6,1-1.2c0-0.5-0.4-0.9-1-1h-6.4c-0.6,0.1-1,0.6-1,1.2
	C61.7,48.8,62.1,49.2,62.7,49.2z"/>
<path class="st1" d="M62.7,52.8h6.4c0.6-0.1,1-0.6,1-1.2c0-0.5-0.4-0.9-1-1h-6.4c-0.6,0.1-1,0.6-1,1.2S62.1,52.8,62.7,52.8z"/>
<path class="st1" d="M62.7,56.4h6.4c0.6-0.1,1-0.6,1-1.2c0-0.5-0.4-0.9-1-1h-6.4c-0.6,0.1-1,0.6-1,1.2
	C61.7,55.9,62.1,56.3,62.7,56.4z"/>
<path class="st1" d="M62.7,60h6.4c0.6-0.1,1-0.6,1-1.2c0-0.5-0.4-0.9-1-1h-6.4c-0.6,0.1-1,0.6-1,1.2C61.7,59.5,62.1,59.9,62.7,60z"
	/>
<path class="st1" d="M62.7,63.6h6.4c0.6-0.1,1-0.6,1-1.2c0-0.5-0.4-0.9-1-1h-6.4c-0.6,0.1-1,0.6-1,1.2
	C61.7,63.1,62.1,63.5,62.7,63.6z"/>
<path class="st1" d="M58.7,67.2h6.4c0.6-0.1,1-0.6,1-1.2c0-0.5-0.4-0.9-1-1h-6.4c-0.6,0.1-1,0.6-1,1.2
	C57.7,66.8,58.1,67.2,58.7,67.2z"/>
<path class="st1" d="M58.7,70.7h6.4c0.6-0.1,1-0.6,1-1.2c0-0.5-0.4-0.9-1-1h-6.4c-0.6,0.1-1,0.6-1,1.2
	C57.7,70.3,58.1,70.7,58.7,70.7z"/>
<path class="st1" d="M58.7,74.3h6.4c0.6-0.1,1-0.6,1-1.2c0-0.5-0.4-0.9-1-1h-6.4c-0.6,0.1-1,0.6-1,1.2
	C57.7,73.9,58.1,74.3,58.7,74.3z"/>
<path class="st1" d="M81.1,40.8c0.6-0.1,1-0.6,1-1.2c0-0.5-0.4-0.9-1-1h-6.2c-0.6,0.1-1,0.6-1,1.2c0,0.5,0.4,0.9,1,1H77v39.9h-2.1
	c-0.6,0.1-1,0.6-1,1.2c0,0.5,0.4,0.9,1,1h6.2c0.6-0.1,1-0.6,1-1.2c0-0.5-0.4-0.9-1-1h-2V40.8H81.1z"/>
<path class="st1" d="M48.9,40.8c0.6-0.1,1-0.6,1-1.2c0-0.5-0.4-0.9-1-1h-6.2c-0.6,0.1-1,0.6-1,1.2c0,0.5,0.4,0.9,1,1h2v39.9h-2
	c-0.6,0.1-1,0.6-1,1.2c0,0.5,0.4,0.9,1,1h6.2c0.6-0.1,1-0.6,1-1.2c0-0.5-0.4-0.9-1-1h-2.1V40.8H48.9z"/>
</svg>
