<?xml version="1.0" encoding="utf-8"?>
<!-- Generator: Adobe Illustrator 24.0.0, SVG Export Plug-In . SVG Version: 6.00 Build 0)  -->
<svg version="1.1" id="Layer_1" xmlns="http://www.w3.org/2000/svg" xmlns:xlink="http://www.w3.org/1999/xlink" x="0px" y="0px"
	 viewBox="0 0 120 120" style="enable-background:new 0 0 120 120;" xml:space="preserve">
<style type="text/css">
	.st0{fill:#6AC398;}
	.st1{fill:#FFFFFF;}
</style>
<circle class="st0" cx="60" cy="60" r="60"/>
<g>
	<path class="st1" d="M78.8,51.3c0-10.4-8.4-18.8-18.8-18.8l0,0c-10.4,0-18.8,8.4-18.8,18.8c0,1.9,0.3,3.6,0.8,5.3l0,0v0.1
		c0.4,1.2,0.9,2.4,1.5,3.6L57,86.8c0.1,0.2,0.1,0.4,0.2,0.6v0.1l0,0c0.5,0.9,1.5,1.6,2.7,1.6s2.2-0.6,2.7-1.6l0,0l0.1-0.2
		c0.1-0.1,0.1-0.2,0.1-0.4l13.6-26.8c0.6-1.1,1.1-2.2,1.4-3.4v-0.1l0,0C78.5,55,78.8,53.2,78.8,51.3z M74.7,56.6L74.7,56.6L74,58.2
		L60,85.9l0,0L46,58.3l0,0l-0.7-1.6l0,0c-0.6-1.7-0.9-3.5-0.9-5.3c0-8.6,7-15.6,15.6-15.6s15.6,7,15.6,15.6
		C75.6,53.2,75.3,55,74.7,56.6z"/>
	<path class="st1" d="M60,41.9c-5.2,0-9.4,4.2-9.4,9.4s4.2,9.4,9.4,9.4s9.4-4.2,9.4-9.4S65.2,41.9,60,41.9z M60,57.6
		c-3.5,0-6.2-2.8-6.2-6.2s2.8-6.2,6.2-6.2s6.2,2.8,6.2,6.2S63.5,57.6,60,57.6z"/>
</g>
</svg>
